<?xml version="1.0" encoding="utf-8"?>
<!-- Generator: Adobe Illustrator 16.0.0, SVG Export Plug-In . SVG Version: 6.00 Build 0)  -->
<!DOCTYPE svg PUBLIC "-//W3C//DTD SVG 1.1//EN" "http://www.w3.org/Graphics/SVG/1.1/DTD/svg11.dtd">
<svg version="1.1" id="Capa_1" xmlns="http://www.w3.org/2000/svg" xmlns:xlink="http://www.w3.org/1999/xlink" x="0px" y="0px"
	 width="72.829px" height="59.449px" viewBox="244.661 105.325 72.829 59.449"
	 enable-background="new 244.661 105.325 72.829 59.449" xml:space="preserve">
<g id="Background">
</g>
<g>
	<g id="Layer_5_59_">
		<g>
			<path fill="#1D1D1B" d="M285.751,149.124c-1.301,0.795-2.957,1.232-4.678,1.232c-1.719,0-3.377-0.438-4.674-1.232l-21.164-12.979
				c0,0-1.91-1.17-1.91,1.48c0,3.014,0,12.049,0,12.049c0,0.121,0,0.727,0,0.912c0,6.828,12.428,14.188,27.748,14.188
				c15.324,0,27.746-7.359,27.746-14.188c0-0.188,0-0.791,0-0.912c0,0,0-9.584,0-12.777c0-2.129-1.357-1.088-1.357-1.088
				L285.751,149.124z"/>
			<path fill="#1D1D1B" d="M316.269,125.819c1.629-0.996,1.629-2.627,0-3.627l-32.238-16.121c-1.625-0.994-4.285-0.994-5.914,0
				l-32.234,16.121c-1.627,0.998-1.627,2.631,0,3.627l32.234,19.773c1.629,0.996,4.289,0.996,5.914,0"/>
			<path fill="#1D1D1B" d="M314.937,155.127c0-5.459,0-21.836,0-21.836s0.016-1.035-0.598-0.693
				c-0.494,0.273-1.699,0.947-2.125,1.314c-0.492,0.428-0.381,1.387-0.381,1.387s0,14.871,0,19.828c0,0.279-0.24,0.416-0.357,0.482
				c-1.113,0.654-1.863,1.865-1.863,3.25c0,2.084,1.689,3.773,3.773,3.773s3.77-1.689,3.77-3.773c0-1.391-0.756-2.604-1.875-3.258
				C315.171,155.54,314.937,155.409,314.937,155.127z"/>
		</g>
	</g>
</g>
</svg>
