<?xml version="1.0" encoding="utf-8"?>
<!-- Generator: Adobe Illustrator 16.0.0, SVG Export Plug-In . SVG Version: 6.00 Build 0)  -->
<!DOCTYPE svg PUBLIC "-//W3C//DTD SVG 1.1//EN" "http://www.w3.org/Graphics/SVG/1.1/DTD/svg11.dtd">
<svg version="1.1" id="Capa_1" xmlns="http://www.w3.org/2000/svg" xmlns:xlink="http://www.w3.org/1999/xlink" x="0px" y="0px"
	 width="64.563px" height="61.396px" viewBox="152.099 105.352 64.563 61.396"
	 enable-background="new 152.099 105.352 64.563 61.396" xml:space="preserve">
<g id="Background">
</g>
<g>
	<g>
		<path fill="#1D1D1B" d="M173.675,156.135h-12.016c-2.295,0-4.189-1.805-4.189-4.098v-37.232c0-2.295,1.896-4.084,4.189-4.084
			h29.072c2.295,0,4.164,1.789,4.164,4.084v31.199l5.371-6.383v-28.805c0-3.017-2.385-5.465-5.398-5.465h-37.561
			c-2.895,0-5.209,2.352-5.209,5.246v45.568c0,3.02,2.416,5.477,5.434,5.477h21.094l-2.494-2.166
			C175.044,158.53,174.22,157.374,173.675,156.135z"/>
		<path fill="#1D1D1B" d="M188.495,117.602h-24.109c-1.48,0-2.674,1.205-2.674,2.686c0,1.479,1.191,2.684,2.674,2.684h24.105
			c1.482,0,2.674-1.205,2.674-2.684C191.173,118.809,189.976,117.602,188.495,117.602z"/>
		<path fill="#1D1D1B" d="M188.495,126.549h-24.109c-1.48,0-2.674,1.199-2.674,2.682c0,1.474,1.191,2.686,2.674,2.686h24.105
			c1.482,0,2.674-1.212,2.674-2.686C191.173,127.75,189.976,126.549,188.495,126.549z"/>
		<path fill="#1D1D1B" d="M188.495,135.493h-24.109c-1.48,0-2.674,1.137-2.674,2.617c0,1.477,1.191,2.611,2.674,2.611h24.105
			c1.482,0,2.674-1.141,2.674-2.611C191.173,136.629,189.976,135.493,188.495,135.493z"/>
		<path fill="#1D1D1B" d="M161.71,146.641c0,1.48,1.195,2.613,2.676,2.613h8.998c0.377-0.965,0.953-2.08,1.744-3.014
			c0.826-0.963,1.811-1.67,2.875-2.223h-13.617C162.905,144.024,161.71,145.167,161.71,146.641z"/>
		<path fill="#1D1D1B" d="M188.495,144.024h-2.008c0.656,0.281,1.289,0.748,1.865,1.244l2.668,2.287
			c0.104-0.275,0.152-0.568,0.152-0.893C191.173,145.196,189.976,144.024,188.495,144.024z"/>
		<path fill="#1D1D1B" d="M215.009,136.856c-1.963-1.689-4.926-1.447-6.607,0.525l-15.398,18.057l-7.699-6.613
			c-1.969-1.682-4.926-1.459-6.613,0.504c-1.686,1.969-1.459,4.924,0.508,6.609l11.268,9.676c0.857,0.729,1.936,1.135,3.053,1.135
			c0.123,0,0.242-0.004,0.371-0.016c1.234-0.1,2.393-0.688,3.201-1.631l18.457-21.639
			C217.22,141.495,216.987,138.54,215.009,136.856z"/>
	</g>
</g>
</svg>
