<?xml version="1.0" encoding="utf-8"?>
<!-- Generator: Adobe Illustrator 16.0.0, SVG Export Plug-In . SVG Version: 6.00 Build 0)  -->
<!DOCTYPE svg PUBLIC "-//W3C//DTD SVG 1.1//EN" "http://www.w3.org/Graphics/SVG/1.1/DTD/svg11.dtd">
<svg version="1.1" id="Capa_1" xmlns="http://www.w3.org/2000/svg" xmlns:xlink="http://www.w3.org/1999/xlink" x="0px" y="0px"
	 width="61.895px" height="68.591px" viewBox="-0.001 0.001 61.895 68.591" enable-background="new -0.001 0.001 61.895 68.591"
	 xml:space="preserve">
<g id="Background">
</g>
<g>
	<g>
		<path fill="#1D1D1B" d="M36.599,58.148c-13.373-5.597-22.076,3.66-24.677,5.067c-3.321,1.798-8.005,3.908-9.094,0.253
			c-0.656-2.206,2.896-4.562,5.245-5.298c1.715-0.537,0.983-3.236-0.744-2.696c-3.648,1.141-8.006,4.216-7.242,8.544
			c0.567,3.217,4.6,6.15,12.372,2.072c5.65-2.965,9.487-9.104,21.389-5.926c3.908,1.045,7.068,3.592,8.42,7.469
			c0.592,1.688,3.293,0.963,2.696-0.744C43.524,62.761,40.606,59.827,36.599,58.148z"/>
	</g>
	<path fill="#1D1D1B" d="M60.842,6.692l-6.272-5.816c-0.637-0.592-1.479-0.904-2.342-0.873c-0.869,0.034-1.684,0.409-2.277,1.048
		l-34.389,37.17l-4.129,13.314c-0.184,0.592-0.014,1.242,0.447,1.668c0.455,0.42,1.115,0.549,1.697,0.319l13.062-5.046
		l34.382-37.166C62.248,9.986,62.174,7.919,60.842,6.692z M17.806,49.745l-2.928-2.705l1.608-5.256l6.436,5.961L17.806,49.745z"/>
</g>
</svg>
