<?xml version="1.0" encoding="utf-8"?>
<!-- Generator: Adobe Illustrator 16.0.0, SVG Export Plug-In . SVG Version: 6.00 Build 0)  -->
<!DOCTYPE svg PUBLIC "-//W3C//DTD SVG 1.1//EN" "http://www.w3.org/Graphics/SVG/1.1/DTD/svg11.dtd">
<svg version="1.1" id="Capa_1" xmlns="http://www.w3.org/2000/svg" xmlns:xlink="http://www.w3.org/1999/xlink" x="0px" y="0px"
	 width="60.536px" height="60.579px" viewBox="106.764 -0.992 60.536 60.579" enable-background="new 106.764 -0.992 60.536 60.579"
	 xml:space="preserve">
<g id="Background">
</g>
<g>
	<path fill="#1D1D1B" d="M166.749,17.917l-12.449,12l-2.554-2.705l9.422-9.083c0.91-0.88,0.936-2.329,0.059-3.241l-8.41-8.722
		c-0.426-0.438-1-0.69-1.611-0.699c-0.604-0.014-1.189,0.219-1.63,0.64l-7.425,7.157l6.445,6.678
		c0.525,0.552,0.484,1.46-0.066,1.997c-0.387,0.37-0.955,0.488-1.438,0.329l-9.354-9.914l12.238-11.81
		c0.742-0.709,1.935-0.67,2.646,0.068l14.146,14.661C167.48,16.014,167.48,17.203,166.749,17.917z M124.488,53.501
		c-0.434,0.422-1.022,0.652-1.629,0.64c-0.609-0.011-1.188-0.263-1.612-0.696l-8.409-8.724c-0.877-0.911-0.854-2.351,0.059-3.235
		l3.867,4.02c0.533,0.554,1.407,0.566,1.961,0.041c0.553-0.526,0.562-1.401,0.027-1.955l-3.859-4.023l1.025-0.996l3.869,4.021
		c0.527,0.548,1.402,0.564,1.959,0.037c0.551-0.535,0.562-1.404,0.029-1.961l-3.867-4.014l1.033-0.994l3.863,4.014
		c0.531,0.55,1.409,0.568,1.961,0.041c0.555-0.529,0.563-1.402,0.031-1.957l-3.865-4.019l1.027-0.993l3.868,4.015
		c0.53,0.554,1.405,0.571,1.961,0.038c0.202-0.198,0.336-0.447,0.392-0.703l-7.16-7.602l-13.703,13.205
		c-0.733,0.711-0.733,1.903-0.025,2.639l14.145,14.675c0.711,0.733,1.908,0.774,2.642,0.061l13.499-13.015l-2.553-2.705
		L124.488,53.501z M149.203,17.452c-1.782-1.846-1.729-4.797,0.119-6.575c1.84-1.783,4.791-1.729,6.568,0.115
		c1.785,1.85,1.721,4.802-0.117,6.575C153.938,19.35,150.986,19.297,149.203,17.452z M151.199,15.525
		c0.718,0.739,1.902,0.76,2.652,0.044c0.738-0.717,0.76-1.903,0.041-2.645c-0.719-0.743-1.904-0.769-2.646-0.05
		C150.506,13.591,150.482,14.78,151.199,15.525z M160.287,40.919l-12.164,11.478l-38.516-40.776l12.168-11.473L160.287,40.919z
		 M109.607,11.619c-0.664-0.705-1.017-1.631-0.987-2.595c0.03-0.961,0.438-1.865,1.142-2.524l6.896-6.5
		c1.451-1.379,3.742-1.31,5.117,0.146 M164.887,55.73c0.211,0.66,0.02,1.38-0.479,1.854c-0.505,0.476-1.235,0.614-1.876,0.369
		l-14.407-5.558l12.164-11.478L164.887,55.73z M161.025,50.775l-1.826-5.804l-7.068,6.666l5.688,2.172L161.025,50.775z"/>
</g>
</svg>
