<?xml version="1.0" encoding="utf-8"?>
<!-- Generator: Adobe Illustrator 16.0.0, SVG Export Plug-In . SVG Version: 6.00 Build 0)  -->
<!DOCTYPE svg PUBLIC "-//W3C//DTD SVG 1.1//EN" "http://www.w3.org/Graphics/SVG/1.1/DTD/svg11.dtd">
<svg version="1.1" id="Capa_1" xmlns="http://www.w3.org/2000/svg" xmlns:xlink="http://www.w3.org/1999/xlink" x="0px" y="0px"
	 width="51.413px" height="61.105px" viewBox="196.246 -1.248 51.413 61.105" enable-background="new 196.246 -1.248 51.413 61.105"
	 xml:space="preserve">
<g id="Background">
</g>
<g>
	<path fill="#1D1D1B" d="M199.489,51.815c0,0.148,0.004,0.258,0.006,0.328c0,0.043-0.008,0.086-0.01,0.129
		c0.098,2.424,2.096,4.365,4.543,4.365h40.409v-4.451c0-0.889,0.722-1.609,1.611-1.609c0.889,0,1.61,0.723,1.61,1.609v6.062
		c0,0.891-0.724,1.609-1.61,1.609h-42.265c-0.084,0-0.164-0.012-0.244-0.023c-4.062-0.254-7.287-3.629-7.287-7.748
		c0-0.096,0.012-0.186,0.016-0.279c-0.051-4.781,0-41.156,0.008-45.114c-0.008-0.056-0.019-0.107-0.019-0.166
		c0-4.288,3.485-7.772,7.771-7.772h0.016v37.417c0,0.432,0.146,0.822,0.375,1.021c0.229,0.197,0.508,0.166,0.717-0.084l5.662-6.686
		l5.363,6.67c0.121,0.148,0.267,0.229,0.414,0.229c0.104,0,0.213-0.041,0.31-0.123c0.235-0.193,0.383-0.594,0.383-1.029V-1.248
		h28.388h0.396c0.888,0,1.608,0.722,1.608,1.61v45.515c0,0.891-0.723,1.609-1.608,1.609c-0.011,0-0.019-0.002-0.028-0.002
		c-0.117,0.027-0.24,0.049-0.367,0.049h-41.623C201.608,47.534,199.628,49.432,199.489,51.815z"/>
</g>
</svg>
