<?xml version="1.0" standalone="no"?>
<!DOCTYPE svg PUBLIC "-//W3C//DTD SVG 1.1//EN" "http://www.w3.org/Graphics/SVG/1.1/DTD/svg11.dtd" >
<svg>
<metadata>
Created by FontForge 20120731 at Tue Dec 22 09:46:59 2015
 By root
Copyright (c) 2012 by Hannes von Doehren. All rights reserved.
</metadata>
<defs>
<font id="PlutoSansBold" horiz-adv-x="600" >
  <font-face 
    font-family="Pluto Sans Bold"
    font-weight="700"
    font-stretch="normal"
    units-per-em="1000"
    panose-1="2 0 0 0 0 0 0 0 0 0"
    ascent="750"
    descent="-250"
    x-height="523"
    cap-height="680"
    bbox="-162 -292 1293 909"
    underline-thickness="50"
    underline-position="0"
    unicode-range="U+0020-FB02"
  />
<missing-glyph horiz-adv-x="612" 
d="M50 720h512v-720h-512v720zM266 283h48q0 26 14 47t34 36t40 29.5t34 36t14 48.5q0 51 -36.5 85t-101.5 34q-39 0 -67 -14.5t-41.5 -37t-19 -43.5t-5.5 -41h47q0 40 21 66.5t65 26.5q41 0 64 -21.5t23 -54.5q0 -23 -21 -45t-45.5 -38t-45.5 -46t-21 -68zM255 194v-71h68
v71h-68z" />
    <glyph glyph-name=".notdef" horiz-adv-x="612" 
d="M50 720h512v-720h-512v720zM266 283h48q0 26 14 47t34 36t40 29.5t34 36t14 48.5q0 51 -36.5 85t-101.5 34q-39 0 -67 -14.5t-41.5 -37t-19 -43.5t-5.5 -41h47q0 40 21 66.5t65 26.5q41 0 64 -21.5t23 -54.5q0 -23 -21 -45t-45.5 -38t-45.5 -46t-21 -68zM255 194v-71h68
v71h-68z" />
    <glyph glyph-name=".null" horiz-adv-x="0" 
 />
    <glyph glyph-name=".null" horiz-adv-x="0" 
 />
    <glyph glyph-name="nonmarkingreturn" horiz-adv-x="333" 
 />
    <glyph glyph-name="space" unicode=" " horiz-adv-x="240" 
 />
    <glyph glyph-name="exclam" unicode="!" horiz-adv-x="307" 
d="M98 237l-30 443h169l-29 -443h-110zM55 81q0 46 25.5 71.5t72.5 25.5t73.5 -25.5t26.5 -71.5t-26.5 -70.5t-73.5 -24.5t-72.5 24.5t-25.5 70.5z" />
    <glyph glyph-name="quotedbl" unicode="&#x22;" horiz-adv-x="482" 
d="M194 680l-7 -260h-117l-7 260h131zM419 680l-8 -260h-116l-7 260h131z" />
    <glyph glyph-name="numbersign" unicode="#" horiz-adv-x="700" 
d="M336 13l35 137h-145l-37 -150h-106v13l35 137h-78v106h105l41 161h-80v106h107l40 157h104v-12l-37 -145h146l40 157h105v-12l-37 -145h88v-106h-115l-40 -161h89v-106h-116l-37 -150h-107v13zM293 417l-40 -161h145l41 161h-146z" />
    <glyph glyph-name="dollar" unicode="$" horiz-adv-x="617" 
d="M273 -129v120q-64 3 -125.5 20.5t-97.5 37.5l40 152q83 -57 183 -66v137l-76 21q-157 43 -157 184q0 84 60.5 142t172.5 68v82h72v-81q129 -6 219 -53l-48 -149q-75 48 -171 57v-130l48 -14q94 -28 138 -73t44 -115q0 -89 -62 -148t-168 -70v-122h-72zM211 489
q0 -22 14 -33.5t47 -20.5l1 -1v108q-62 -10 -62 -53zM403 199q0 34 -58 53v-113q58 15 58 60z" />
    <glyph glyph-name="percent" unicode="%" horiz-adv-x="911" 
d="M498 175q0 80 54 133.5t135 53.5q83 0 137 -53.5t54 -133.5t-54 -132.5t-137 -52.5q-82 0 -135.5 52.5t-53.5 132.5zM614 175q0 -31 20.5 -53t52.5 -22t53 22t21 53q0 32 -21 54t-53 22t-52.5 -22t-20.5 -54zM218 13l356 667h114v-12l-355 -668h-115v13zM33 503
q0 80 53.5 133.5t135.5 53.5q83 0 137 -53t54 -134q0 -80 -54 -132.5t-137 -52.5q-82 0 -135.5 52.5t-53.5 132.5zM149 503q0 -31 20.5 -53t52.5 -22t53 22t21 53q0 32 -21 54t-53 22t-52.5 -22t-20.5 -54z" />
    <glyph glyph-name="ampersand" unicode="&#x26;" horiz-adv-x="789" 
d="M646 394l123 -90q-52 -95 -124 -167l131 -117v-24h-198l-53 51q-106 -57 -229 -57q-112 0 -177.5 53.5t-65.5 145.5q0 64 36.5 105t107.5 71q-67 70 -67 148q0 76 59 126.5t172 50.5q106 0 170 -48t64 -126q0 -132 -159 -190l101 -91q65 67 109 159zM323 129q49 0 95 21
l-129 125q-65 -29 -65 -68q0 -35 26.5 -56.5t72.5 -21.5zM290 493q0 -34 51 -81l17 5q41 13 59 29.5t18 44.5q0 25 -19.5 41t-54.5 16t-53 -15.5t-18 -39.5z" />
    <glyph glyph-name="quotesingle" unicode="'" horiz-adv-x="257" 
d="M194 680l-7 -260h-117l-7 260h131z" />
    <glyph glyph-name="parenleft" unicode="(" horiz-adv-x="330" 
d="M299 664q-46 -71 -78.5 -175t-32.5 -228q0 -122 32.5 -226t78.5 -176l-93 -52q-60 55 -112.5 177.5t-52.5 277.5t52.5 277t112.5 177z" />
    <glyph glyph-name="parenright" unicode=")" horiz-adv-x="330" 
d="M30 664l94 52q60 -55 112.5 -177t52.5 -277t-52.5 -277.5t-112.5 -177.5l-94 52q46 71 79 175.5t33 226.5q0 124 -33 228.5t-79 174.5z" />
    <glyph glyph-name="asterisk" unicode="*" horiz-adv-x="527" 
d="M92 329l77 107l-122 29l35 126l126 -47l-10 136h131l-10 -137l126 48l35 -126l-125 -30l79 -105l-98 -70l-73 117l-72 -116z" />
    <glyph glyph-name="plus" unicode="+" horiz-adv-x="569" 
d="M350 546v-178h178v-131h-178v-177h-131v177h-178v131h178v178h131z" />
    <glyph glyph-name="comma" unicode="," horiz-adv-x="302" 
d="M70 -136l42 125q-60 18 -60 90q0 47 25.5 73t71.5 26t72.5 -26.5t26.5 -72.5q0 -55 -26 -126t-59 -126z" />
    <glyph glyph-name="hyphen" unicode="-" horiz-adv-x="540" 
d="M64 368h412v-131h-412v131z" />
    <glyph glyph-name="period" unicode="." horiz-adv-x="303" 
d="M52 81q0 46 26 71.5t73 25.5t73.5 -25.5t26.5 -71.5t-26.5 -70.5t-73.5 -24.5t-73 24.5t-26 70.5z" />
    <glyph glyph-name="slash" unicode="/" horiz-adv-x="521" 
d="M26 13l356 667h114v-12l-355 -668h-115v13z" />
    <glyph glyph-name="zero" unicode="0" horiz-adv-x="706" 
d="M51 339q0 165 77 258t224 93q148 0 225.5 -93t77.5 -258q0 -164 -77.5 -256.5t-225.5 -92.5q-147 0 -224 92.5t-77 256.5zM214 339q0 -195 138 -195q140 0 140 195q0 198 -140 198q-138 0 -138 -198z" />
    <glyph glyph-name="one" unicode="1" horiz-adv-x="511" 
d="M6 514l296 166h123v-680h-168v489l-187 -102z" />
    <glyph glyph-name="two" unicode="2" horiz-adv-x="648" 
d="M314 146h283v-146h-532v125l255 191q88 66 88 135q0 37 -24 61.5t-69 24.5q-59 0 -88.5 -33.5t-29.5 -90.5l-153 29q3 115 75 181.5t199 66.5t194.5 -64t67.5 -160q0 -68 -30 -122t-108 -109z" />
    <glyph glyph-name="three" unicode="3" horiz-adv-x="624" 
d="M134 280v136h148q48 0 73.5 17.5t25.5 48.5q0 34 -33.5 49t-81.5 15q-95 0 -186 -37l-38 142q38 14 104.5 26.5t124.5 12.5q139 0 209.5 -48.5t70.5 -142.5q0 -51 -28.5 -90.5t-78.5 -53.5q67 -21 99 -61t32 -107q0 -92 -77.5 -144.5t-226.5 -52.5q-99 0 -226 40l40 139
q90 -37 186 -37q60 0 95.5 22t35.5 59q0 67 -120 67h-148z" />
    <glyph glyph-name="four" unicode="4" horiz-adv-x="686" 
d="M647 122h-107v-111h-164v111h-349v110l295 437l54 -1v1h164v-416h107v-131zM196 253h180v264z" />
    <glyph glyph-name="five" unicode="5" horiz-adv-x="621" 
d="M80 298l-7 7l33 375h443v-146h-303l-9 -113h49q285 0 285 -195q0 -117 -79.5 -176.5t-218.5 -59.5q-118 0 -237 43l42 138q91 -39 186 -39q61 0 98 23t37 67q0 76 -123 76h-196z" />
    <glyph glyph-name="six" unicode="6" horiz-adv-x="683" 
d="M387 548q-145 0 -165 -150q72 52 167 52q121 0 185 -56.5t64 -158.5q0 -112 -76 -178.5t-197 -66.5q-150 0 -232.5 95t-82.5 256q0 159 83 254t234 95q135 0 239 -48l-45 -137q-84 43 -174 43zM364 320q-72 0 -139 -50q25 -127 140 -127q49 0 77.5 26.5t28.5 65.5
q0 85 -107 85z" />
    <glyph glyph-name="seven" unicode="7" horiz-adv-x="568" 
d="M96 15l263 519h-329v146h516v-116l-265 -564h-185v15z" />
    <glyph glyph-name="eight" unicode="8" horiz-adv-x="689" 
d="M345 -10q-144 0 -219.5 53t-75.5 144q0 139 139 168q-54 12 -85 52t-31 92q0 93 69 142t203 49t203 -49t69 -142q0 -52 -31 -92t-86 -52q140 -29 140 -168q0 -91 -76 -144t-219 -53zM345 286q-62 0 -94 -21.5t-32 -55.5q0 -36 34 -58.5t92 -22.5t91.5 22.5t33.5 58.5
q0 34 -31 55.5t-94 21.5zM345 555q-105 0 -105 -68q0 -31 25.5 -50t79.5 -19t79.5 19t25.5 50q0 33 -27.5 50.5t-77.5 17.5z" />
    <glyph glyph-name="nine" unicode="9" horiz-adv-x="683" 
d="M121 175q86 -43 174 -43q145 0 165 149q-71 -51 -166 -51q-121 0 -185.5 56.5t-64.5 158.5q0 112 76.5 178.5t197.5 66.5q150 0 232 -95t82 -256q0 -159 -82.5 -254t-233.5 -95q-135 0 -239 48zM320 360q72 0 137 50q-25 127 -139 127q-49 0 -77.5 -26.5t-28.5 -65.5
q0 -85 108 -85z" />
    <glyph glyph-name="colon" unicode=":" horiz-adv-x="321" 
d="M63 444q0 44 25 69t71 25t71.5 -25t25.5 -69q0 -45 -25.5 -69t-71.5 -24t-71 24t-25 69zM63 78q0 44 25 69t71 25t71.5 -25t25.5 -69q0 -45 -25.5 -69t-71.5 -24t-71 24t-25 69z" />
    <glyph glyph-name="semicolon" unicode=";" horiz-adv-x="323" 
d="M85 -132l41 120q-59 18 -59 87q0 46 25 71t69 25q45 0 70.5 -26t25.5 -70q0 -53 -25.5 -121.5t-56.5 -121.5zM61 444q0 44 25 69t71 25t71.5 -25t25.5 -69q0 -45 -25.5 -69t-71.5 -24t-71 24t-25 69z" />
    <glyph glyph-name="less" unicode="&#x3c;" horiz-adv-x="590" 
d="M39 235v129l474 183h13v-126l-355 -119l355 -117v-128h-13z" />
    <glyph glyph-name="equal" unicode="=" horiz-adv-x="626" 
d="M70 229h486v-131h-486v131zM70 507h486v-131h-486v131z" />
    <glyph glyph-name="greater" unicode="&#x3e;" horiz-adv-x="590" 
d="M551 364v-129l-474 -178h-12v128l354 117l-354 119v126h12z" />
    <glyph glyph-name="question" unicode="?" horiz-adv-x="491" 
d="M284 236h-138q-15 41 -15 61q0 51 62 98l50 37q37 28 37 65q0 25 -17 40t-45 15q-36 0 -76 -16.5t-65 -39.5l-43 131q87 63 210 63q96 0 151 -50t55 -130q0 -41 -14.5 -72.5t-28.5 -45t-43 -36.5l-56 -41q-17 -13 -23 -21.5t-6 -24.5q0 -13 5 -33zM116 81q0 46 26 71.5
t73 25.5t73.5 -25.5t26.5 -71.5t-26.5 -70.5t-73.5 -24.5t-73 24.5t-26 70.5z" />
    <glyph glyph-name="at" unicode="@" horiz-adv-x="978" 
d="M726 491v-338q0 -26 7.5 -37.5t29.5 -11.5q36 0 65.5 54.5t29.5 158.5q0 142 -98 230.5t-262 88.5q-165 0 -266.5 -103t-101.5 -270q0 -166 102 -270.5t266 -104.5q98 0 178 40l30 -76q-95 -46 -208 -46q-196 0 -325 130t-129 327q0 198 128.5 327t325.5 129t322 -112.5
t125 -288.5q0 -153 -67.5 -230t-187.5 -77q-84 0 -115 60q-49 -59 -141 -59q-96 0 -155.5 68t-59.5 174q0 108 59.5 176.5t155.5 68.5q88 0 130 -50v42h162zM564 182v146q-33 31 -83 31q-46 0 -72 -28.5t-26 -76.5q0 -47 26.5 -75t71.5 -28q47 0 83 31z" />
    <glyph glyph-name="A" unicode="A" horiz-adv-x="727" 
d="M3 0l263 680h198l257 -680h-170l-46 125h-285l-47 -125h-170zM365 514l-103 -266h202z" />
    <glyph glyph-name="B" unicode="B" horiz-adv-x="720" 
d="M85 0v680h301q240 0 240 -183q0 -101 -98 -143q152 -32 152 -170q0 -86 -64.5 -135t-183.5 -49h-347zM253 134h154q94 0 94 70q0 73 -102 73h-146v-143zM253 413h107q93 0 93 66q0 67 -91 67h-109v-133z" />
    <glyph glyph-name="C" unicode="C" horiz-adv-x="706" 
d="M217 340q0 -83 53 -139t138 -56q100 0 187 67l77 -121q-112 -101 -269 -101q-154 0 -256.5 100.5t-102.5 249.5t102.5 249.5t256.5 100.5q157 0 269 -101l-77 -121q-87 67 -187 67q-85 0 -138 -56t-53 -139z" />
    <glyph glyph-name="D" unicode="D" horiz-adv-x="788" 
d="M85 0v680h306q156 -1 253.5 -90.5t97.5 -250.5q0 -160 -97.5 -249.5t-253.5 -89.5h-306zM383 534h-130v-388h130q84 0 134.5 51t50.5 142q0 93 -50.5 144t-134.5 51z" />
    <glyph glyph-name="E" unicode="E" horiz-adv-x="683" 
d="M631 0h-546v680h546v-146h-385v-117h312v-141h-312v-130h385v-146z" />
    <glyph glyph-name="F" unicode="F" horiz-adv-x="645" 
d="M557 222h-311v-222h-161v680h526v-147h-365v-164h311v-147z" />
    <glyph glyph-name="G" unicode="G" horiz-adv-x="756" 
d="M700 402v-317q-48 -39 -132.5 -67t-160.5 -28q-156 0 -259 94.5t-103 254.5q0 161 103 256t259 95q152 0 267 -91l-77 -127q-80 63 -187 63q-84 0 -138 -52.5t-54 -143.5t55 -142.5t145 -51.5q67 0 123 29v100h-163v128h322z" />
    <glyph glyph-name="H" unicode="H" horiz-adv-x="827" 
d="M574 0v271h-321v-271h-168v680h168v-263h321v263h168v-680h-168z" />
    <glyph glyph-name="I" unicode="I" horiz-adv-x="338" 
d="M85 0v680h168v-680h-168z" />
    <glyph glyph-name="J" unicode="J" horiz-adv-x="643" 
d="M397 680h168v-405q0 -131 -69.5 -208.5t-205.5 -77.5q-257 0 -275 276l166 16q6 -70 30 -105t80 -35q58 0 82 36.5t24 107.5v395z" />
    <glyph glyph-name="K" unicode="K" horiz-adv-x="725" 
d="M85 0v680h168v-269h71l197 269h172v-25l-234 -316l252 -319v-20h-191l-199 265h-68v-265h-168z" />
    <glyph glyph-name="L" unicode="L" horiz-adv-x="608" 
d="M592 0h-507v680h168v-534h339v-146z" />
    <glyph glyph-name="M" unicode="M" horiz-adv-x="944" 
d="M691 0v416l-205 -246h-29l-204 246v-416h-168v680h145l242 -284l242 284h145v-680h-168z" />
    <glyph glyph-name="N" unicode="N" horiz-adv-x="827" 
d="M596 0l-343 413v-413h-168v680h146l343 -413v413h168v-680h-146z" />
    <glyph glyph-name="O" unicode="O" horiz-adv-x="789" 
d="M45 339q0 151 100 251t249 100q151 0 251 -100t100 -251q0 -149 -100 -249t-251 -100q-149 0 -249 100t-100 249zM209 339q0 -81 52.5 -136t132.5 -55q82 0 133.5 54.5t51.5 136.5q0 83 -51.5 137.5t-133.5 54.5q-80 0 -132.5 -54.5t-52.5 -137.5z" />
    <glyph glyph-name="P" unicode="P" horiz-adv-x="703" 
d="M85 0v680h338q108 0 179.5 -64.5t71.5 -187.5q0 -113 -73 -180.5t-178 -67.5h-170v-180h-168zM397 534h-144v-208h144q44 0 73.5 28.5t29.5 74.5q0 48 -29 76.5t-74 28.5z" />
    <glyph glyph-name="Q" unicode="Q" horiz-adv-x="795" 
d="M796 -27l17 -134q-55 -19 -125 -19q-54 0 -106 23t-83 50t-63.5 58t-45.5 39q-148 2 -246.5 101.5t-98.5 247.5q0 151 100 251t249 100q151 0 251 -100t100 -251q0 -103 -50.5 -184.5t-135.5 -125.5q79 -69 141 -69q64 0 96 13zM209 339q0 -82 52.5 -136.5t132.5 -54.5
q81 0 133 54.5t52 136.5q0 83 -52 137.5t-133 54.5t-133 -54.5t-52 -137.5z" />
    <glyph glyph-name="R" unicode="R" horiz-adv-x="734" 
d="M85 0v680h323q122 0 192 -56.5t70 -168.5q0 -74 -44.5 -128.5t-116.5 -75.5l198 -219v-32h-179l-207 241h-68v-241h-168zM405 534h-152v-168h152q41 0 66 23t25 61q0 39 -25 61.5t-66 22.5z" />
    <glyph glyph-name="S" unicode="S" horiz-adv-x="627" 
d="M49 49l39 153q104 -68 215 -68q51 0 80 16.5t29 48.5q0 23 -18 37.5t-59 24.5l-111 30q-173 46 -173 189q0 92 70 150.5t202 58.5q139 0 245 -54l-47 -145q-42 24 -98 39.5t-107 15.5q-94 0 -94 -54q0 -21 14.5 -32.5t47.5 -21.5l121 -35q93 -27 136 -73.5t43 -117.5
q0 -98 -79 -159.5t-206 -61.5q-69 0 -140 18.5t-110 40.5z" />
    <glyph glyph-name="T" unicode="T" horiz-adv-x="630" 
d="M605 533h-203v-533h-168v533h-209v147h580v-147z" />
    <glyph glyph-name="U" unicode="U" horiz-adv-x="784" 
d="M244 680v-377q0 -75 37.5 -116.5t109.5 -41.5q73 0 111.5 42t38.5 116v377h168v-388q0 -128 -84.5 -215.5t-233.5 -87.5t-232 83.5t-83 219.5v388h168z" />
    <glyph glyph-name="V" unicode="V" horiz-adv-x="742" 
d="M263 0l-257 680h184l179 -520l185 520h184l-262 -680h-213z" />
    <glyph glyph-name="W" unicode="W" horiz-adv-x="1104" 
d="M655 0l-101 262l-108 -262h-183l-257 680h181l183 -492l111 273l-80 219h183l160 -464l173 464h184l-263 -680h-183z" />
    <glyph glyph-name="X" unicode="X" horiz-adv-x="738" 
d="M718 680v-12l-231 -329l231 -326v-13h-193l-156 229l-156 -229h-194v13l231 326l-231 329v12h193l157 -232l158 232h191z" />
    <glyph glyph-name="Y" unicode="Y" horiz-adv-x="692" 
d="M262 0v262l-259 406v12h187l156 -263l156 263h187v-12l-259 -405v-263h-168z" />
    <glyph glyph-name="Z" unicode="Z" horiz-adv-x="646" 
d="M53 116l324 418h-324v146h541v-116l-323 -418h323v-146h-541v116z" />
    <glyph glyph-name="bracketleft" unicode="[" horiz-adv-x="365" 
d="M326 -188h-250v898h250v-131h-119v-636h119v-131z" />
    <glyph glyph-name="backslash" unicode="\" horiz-adv-x="521" 
d="M139 680l357 -667v-13h-115l-355 668v12h113z" />
    <glyph glyph-name="bracketright" unicode="]" horiz-adv-x="364" 
d="M39 710h249v-898h-249v131h118v636h-118v131z" />
    <glyph glyph-name="asciicircum" unicode="^" horiz-adv-x="591" 
d="M233 680h124l189 -289v-13h-141l-110 183l-110 -183h-140v13z" />
    <glyph glyph-name="underscore" unicode="_" horiz-adv-x="628" 
d="M64 -31h500v-117h-500v117z" />
    <glyph glyph-name="grave" unicode="`" 
d="M291 583l-107 158h165l81 -158h-139z" />
    <glyph glyph-name="a" unicode="a" horiz-adv-x="584" 
d="M108 361l-28 135q99 36 207 36q229 0 229 -214v-318h-164v49q-63 -59 -149 -59q-79 0 -122.5 41.5t-43.5 113.5q0 87 64.5 134.5t173.5 47.5q43 0 77 -6q-1 39 -20.5 56t-60.5 17q-83 0 -163 -33zM201 163q0 -54 66 -54q43 0 85 30v82q-22 5 -45 5q-47 0 -76.5 -16
t-29.5 -47z" />
    <glyph glyph-name="b" unicode="b" horiz-adv-x="675" 
d="M632 262q0 -119 -67.5 -195.5t-174.5 -76.5q-93 0 -149 63v-53h-168v710h168v-238q60 60 149 60q108 0 175 -75.5t67 -194.5zM461 262q0 57 -32.5 90.5t-86.5 33.5q-59 0 -101 -39v-173q40 -38 101 -38q54 0 86.5 34t32.5 92z" />
    <glyph glyph-name="c" unicode="c" horiz-adv-x="563" 
d="M41 262q0 120 78 197.5t208 77.5q120 0 204 -72l-76 -124q-52 43 -118 43q-58 0 -91 -34t-33 -88q0 -55 33 -89.5t91 -34.5q65 0 118 44l76 -124q-84 -72 -204 -72q-130 0 -208 78t-78 198z" />
    <glyph glyph-name="d" unicode="d" horiz-adv-x="675" 
d="M43 262q0 119 67 194.5t174 75.5q88 0 149 -59v237h168v-710h-168v52q-57 -62 -149 -62q-107 0 -174 76.5t-67 195.5zM214 262q0 -58 32.5 -92t86.5 -34q58 0 100 38v173q-42 39 -100 39q-54 0 -86.5 -33.5t-32.5 -90.5z" />
    <glyph glyph-name="e" unicode="e" 
d="M489 169l62 -112q-87 -71 -222 -71q-142 0 -214.5 75.5t-72.5 198.5q0 120 77 198.5t201 78.5q114 0 174.5 -61.5t60.5 -156.5q0 -65 -11 -100h-335q8 -47 41 -73.5t89 -26.5q39 0 81 15t69 35zM409 325q1 3 1 12q0 33 -23 52.5t-68 19.5t-73 -24t-34 -60h197z" />
    <glyph glyph-name="f" unicode="f" horiz-adv-x="463" 
d="M436 371h-142v-371h-168v371h-90v130h90v29q0 82 47.5 136t139.5 54q73 0 136 -25l-29 -134q-42 22 -78 22q-48 0 -48 -54v-28h142v-130z" />
    <glyph glyph-name="g" unicode="g" horiz-adv-x="674" 
d="M43 280q0 106 67.5 179t173.5 73q92 0 149 -62v53h168v-451q0 -129 -79 -199.5t-196 -70.5q-20 0 -39.5 1.5t-35 4t-32.5 6.5t-27 7t-25 8.5t-20.5 8t-18.5 8t-15 6.5l35 131q88 -48 169 -48q52 0 84 24.5t32 77.5v50q-60 -57 -149 -57q-105 0 -173 72.5t-68 177.5z
M215 280q0 -47 32 -75.5t86 -28.5q57 0 100 38v133q-41 39 -100 39q-54 0 -86 -29t-32 -77z" />
    <glyph glyph-name="h" unicode="h" horiz-adv-x="673" 
d="M73 710h168v-246q63 68 165 68q101 0 150.5 -64t49.5 -167v-301h-168v273q0 104 -92 104q-70 0 -105 -65v-312h-168v710z" />
    <glyph glyph-name="i" unicode="i" horiz-adv-x="315" 
d="M64 667q0 77 94 77q93 0 93 -77q0 -79 -93 -79q-94 0 -94 79zM73 0v523h168v-523h-168z" />
    <glyph glyph-name="j" unicode="j" horiz-adv-x="315" 
d="M74 523h168v-465q0 -172 -148 -255l-101 102q81 55 81 143v475zM65 667q0 77 94 77q92 0 92 -77q0 -79 -92 -79q-94 0 -94 79z" />
    <glyph glyph-name="k" unicode="k" horiz-adv-x="636" 
d="M602 523v-28l-200 -221l213 -246v-28h-188l-186 228v-228h-168v710h168v-404l180 217h181z" />
    <glyph glyph-name="l" unicode="l" horiz-adv-x="352" 
d="M72 710h168v-528q0 -51 36 -51q22 0 52 14l7 -133q-61 -22 -127 -22q-136 0 -136 150v570z" />
    <glyph glyph-name="m" unicode="m" horiz-adv-x="1028" 
d="M73 523h168v-56q64 66 164 66q120 0 170 -85q69 84 188 84q101 0 149.5 -64t48.5 -167v-301h-168v273q0 104 -90 104q-70 0 -101 -56v-321h-168v274q0 103 -89 103q-73 0 -104 -58v-319h-168v523z" />
    <glyph glyph-name="n" unicode="n" horiz-adv-x="673" 
d="M73 523h168v-61q64 70 165 70t150.5 -64t49.5 -167v-301h-168v273q0 104 -92 104q-70 0 -105 -65v-312h-168v523z" />
    <glyph glyph-name="o" unicode="o" horiz-adv-x="646" 
d="M41 260q0 119 80 198t201 79q123 0 203 -78.5t80 -198.5q0 -118 -80 -196t-203 -78q-121 0 -201 78t-80 196zM203 260q0 -51 33.5 -86.5t85.5 -35.5q54 0 87.5 35.5t33.5 86.5q0 53 -33.5 88.5t-87.5 35.5q-52 0 -85.5 -35.5t-33.5 -88.5z" />
    <glyph glyph-name="p" unicode="p" horiz-adv-x="673" 
d="M630 260q0 -118 -67 -194t-174 -76q-88 0 -148 58v-236h-168v711h168v-53q57 62 148 62q107 0 174 -76t67 -196zM460 260q0 58 -32 92t-87 34q-62 0 -100 -38v-175q44 -37 100 -37q54 0 86.5 33.5t32.5 90.5z" />
    <glyph glyph-name="q" unicode="q" horiz-adv-x="674" 
d="M43 260q0 120 67 196t174 76q92 0 148 -61v52h168v-711h-168v236q-60 -58 -148 -58q-107 0 -174 76t-67 194zM214 260q0 -57 32.5 -90.5t86.5 -33.5q57 0 99 37v175q-16 16 -44 27t-55 11q-55 0 -87 -34t-32 -92z" />
    <glyph glyph-name="r" unicode="r" horiz-adv-x="494" 
d="M73 0v523h168v-91q50 100 142 100q57 0 104 -30l-51 -145q-42 20 -86 20q-41 0 -69.5 -23.5t-39.5 -61.5v-292h-168z" />
    <glyph glyph-name="s" unicode="s" horiz-adv-x="524" 
d="M468 493l-43 -131q-77 40 -151 40q-56 0 -56 -35q0 -14 8.5 -19.5t33.5 -12.5l81 -22q76 -21 108 -59t32 -95q0 -76 -61.5 -122.5t-164.5 -46.5q-116 0 -206 45l33 130q92 -48 162 -48q68 0 68 32q0 25 -52 38l-74 20q-71 19 -102.5 54.5t-31.5 95.5q0 80 59.5 127.5
t166.5 47.5q50 0 104 -11.5t86 -27.5z" />
    <glyph glyph-name="t" unicode="t" horiz-adv-x="519" 
d="M145 656h143v-133h181v-130h-181v-176q0 -44 15 -63t46 -19q49 0 98 36l52 -128q-86 -53 -203 -53q-83 0 -129.5 49.5t-46.5 142.5v211h-89v130h94z" />
    <glyph glyph-name="u" unicode="u" horiz-adv-x="673" 
d="M600 0h-168v61q-64 -70 -165 -70t-150.5 64t-49.5 167v301h168v-273q0 -104 92 -104q71 0 105 65v312h168v-523z" />
    <glyph glyph-name="v" unicode="v" horiz-adv-x="630" 
d="M435 523h181l-199 -523h-205l-197 523h181l118 -371z" />
    <glyph glyph-name="w" unicode="w" horiz-adv-x="1014" 
d="M817 523h181l-181 -523h-203l-107 341l-111 -341h-203l-173 523h181l98 -371l111 371h198l103 -371z" />
    <glyph glyph-name="x" unicode="x" horiz-adv-x="619" 
d="M590 523v-12l-165 -251l165 -247v-13h-181l-99 165l-100 -165h-182v13l164 247l-164 251v12h180l102 -168l101 168h179z" />
    <glyph glyph-name="y" unicode="y" horiz-adv-x="618" 
d="M430 523h169l-209 -516q-43 -111 -94 -158t-141 -47q-69 0 -120 35l24 128q52 -27 93 -27q30 0 46.5 14t29.5 44l9 21l-232 506h185l120 -340z" />
    <glyph glyph-name="z" unicode="z" horiz-adv-x="536" 
d="M52 116l222 276h-222v131h432v-116l-220 -276h220v-131h-432v116z" />
    <glyph glyph-name="braceleft" unicode="{" horiz-adv-x="362" 
d="M317 710v-116h-40q-27 0 -41 -15t-14 -36q0 -23 24 -88.5t24 -101.5q0 -79 -87 -95q87 -16 87 -96q0 -36 -24 -101t-24 -89q0 -21 14 -36t41 -15h40v-116h-57q-169 0 -169 134q0 37 24 105.5t24 104.5q0 33 -25 47t-83 14v97q57 0 82.5 17t25.5 53q0 34 -24 101t-24 105
q0 127 169 127h57z" />
    <glyph glyph-name="bar" unicode="|" horiz-adv-x="283" 
d="M76 -188v898h131v-898h-131z" />
    <glyph glyph-name="braceright" unicode="}" horiz-adv-x="362" 
d="M45 710h57q169 0 169 -127q0 -38 -24 -105t-24 -101q0 -36 25.5 -53t81.5 -17v-97q-58 0 -82.5 -14t-24.5 -47q0 -36 24 -104.5t24 -105.5q0 -134 -169 -134h-57v116h41q27 0 40.5 14.5t13.5 36.5q0 24 -24 89t-24 101q0 80 88 96q-88 16 -88 95q0 36 24 101.5t24 88.5
q0 22 -13.5 36.5t-40.5 14.5h-41v116z" />
    <glyph glyph-name="asciitilde" unicode="~" horiz-adv-x="532" 
d="M432 380l54 -81q-16 -43 -51 -69.5t-77 -26.5q-40 0 -94 33t-86 33q-24 0 -45.5 -14.5t-33.5 -40.5l-52 85q13 38 48 65t77 27q46 0 101 -33.5t79 -33.5q51 0 80 56z" />
    <glyph glyph-name="uni00A0" unicode="&#xa0;" horiz-adv-x="240" 
 />
    <glyph glyph-name="exclamdown" unicode="&#xa1;" horiz-adv-x="292" 
d="M202 286l29 -443h-169l30 443h110zM245 442q0 -46 -26 -71t-73 -25t-73.5 25t-26.5 71t26.5 70.5t73.5 24.5t73 -24.5t26 -70.5z" />
    <glyph glyph-name="cent" unicode="&#xa2;" horiz-adv-x="596" 
d="M41 262q0 120 78 197.5t208 77.5q13 0 37 -2l31 111l75 -20l-30 -109q46 -16 91 -52l-76 -124q-26 21 -55 32l-66 -235h3q65 0 118 44l76 -124q-84 -72 -204 -72q-12 0 -34 2l-35 -126l-74 20l33 121q-83 29 -129.5 98t-46.5 161zM213 262q0 -69 47 -102l62 223
q-52 -4 -80.5 -37t-28.5 -84z" />
    <glyph glyph-name="sterling" unicode="&#xa3;" horiz-adv-x="637" 
d="M484 307h-161q11 -94 7 -144q3 -2 13.5 -8.5t16 -10t15 -8.5t17.5 -7t15 -2q34 0 46 25.5t9 79.5h127q12 -110 -24 -176t-124 -66q-26 0 -55 13t-42 22.5t-49 37.5q-26 -38 -57.5 -55.5t-83.5 -17.5q-53 0 -83 32.5t-30 82.5q0 47 30 76.5t76 29.5q21 0 44 -7
q0 33 -19 103h-94v77h73q-13 61 -13 108q0 88 55.5 143t164.5 55q59 0 120.5 -22t92.5 -47l-47 -145q-21 18 -34.5 28t-41.5 21.5t-56 11.5q-43 0 -64.5 -23.5t-21.5 -63.5q0 -26 5 -66h173v-77zM158 122q-15 0 -24 -8t-9 -20q0 -25 23 -25q29 0 36 45q-10 8 -26 8z" />
    <glyph glyph-name="currency" unicode="&#xa4;" horiz-adv-x="558" 
d="M84 302q0 43 20 81l-49 51l94 93l53 -55q32 16 72 16q46 0 80 -19l56 58l94 -93l-57 -57q18 -34 18 -75q0 -39 -18 -75l57 -55l-94 -93l-56 56q-34 -18 -80 -18q-40 0 -72 15l-53 -53l-94 93l49 49q-20 38 -20 81zM194 302q0 -34 22.5 -58t57.5 -24t57.5 24t22.5 58
t-22.5 58t-57.5 24t-57.5 -24t-22.5 -58z" />
    <glyph glyph-name="yen" unicode="&#xa5;" horiz-adv-x="627" 
d="M536 115h-140v-115h-168v115h-141v76h141v54h-141v77h112l-163 346v12h172l104 -285l110 285h173v-12l-170 -346h111v-77h-140v-54h140v-76z" />
    <glyph glyph-name="brokenbar" unicode="&#xa6;" horiz-adv-x="288" 
d="M209 375h-131v335h131v-335zM78 159h131v-347h-131v347z" />
    <glyph glyph-name="section" unicode="&#xa7;" horiz-adv-x="630" 
d="M66 -49l38 137q42 -21 104.5 -37t118.5 -16q78 0 78 31q0 23 -69 37l-127 26q-153 33 -153 155q0 75 64 122q-63 36 -63 111q0 77 68 125t193 48q145 0 245 -43l-45 -135q-40 20 -103 35t-116 15q-80 0 -80 -31q0 -21 46 -30l133 -27q88 -19 132.5 -61.5t44.5 -99.5
q0 -79 -68 -127q68 -41 68 -106q0 -78 -71.5 -127t-191.5 -49q-72 0 -139 14.5t-107 32.5zM344 350l-72 14q-30 -3 -45.5 -21.5t-15.5 -38.5t12.5 -32t44.5 -19l78 -17q30 3 48 19t18 38q0 24 -16.5 37t-51.5 20z" />
    <glyph glyph-name="dieresis" unicode="&#xa8;" 
d="M91 665q0 73 88 73q86 0 86 -73q0 -74 -86 -74q-88 0 -88 74zM349 665q0 73 88 73q86 0 86 -73q0 -74 -86 -74q-88 0 -88 74z" />
    <glyph glyph-name="copyright" unicode="&#xa9;" horiz-adv-x="794" 
d="M47 339q0 151 100 251t249 100q151 0 251 -100t100 -251q0 -149 -100 -249t-251 -100q-149 0 -249 100t-100 249zM120 339q0 -120 78 -199.5t198 -79.5t198.5 79.5t78.5 199.5q0 121 -78.5 201t-198.5 80t-198 -80t-78 -201zM337 339q0 -32 21 -51.5t56 -19.5q43 0 78 27
l46 -83q-58 -48 -136 -48q-79 0 -129 49t-50 126t50 126t129 49q80 0 136 -48l-46 -82q-35 27 -78 27q-35 0 -56 -20t-21 -52z" />
    <glyph glyph-name="ordfeminine" unicode="&#xaa;" horiz-adv-x="486" 
d="M342 318q-48 0 -70 40q-42 -40 -102 -40q-49 0 -79.5 28t-30.5 78q0 53 45 84.5t124 32.5h30v12q0 23 -12.5 32t-38.5 9q-58 0 -100 -27l-19 96q49 18 121 23q5 0 12.5 0.5t10.5 0.5q78 0 108 -30t30 -93v-122q0 -31 21 -31q14 0 34 10l3 -87q-43 -16 -87 -16zM86 247
h319v-83h-319v83zM166 436q0 -33 45 -33q26 0 48 16v60h-13q-80 0 -80 -43z" />
    <glyph glyph-name="guillemotleft" unicode="&#xab;" horiz-adv-x="569" 
d="M41 286v31l164 207h11l61 -29l-96 -193l96 -193l-61 -30h-11zM285 286v31l163 207h12l61 -29l-97 -193l97 -193l-61 -30h-12z" />
    <glyph glyph-name="logicalnot" unicode="&#xac;" horiz-adv-x="620" 
d="M414 120v177h-355v131h487l-1 -308h-131z" />
    <glyph glyph-name="uni00AD" unicode="&#xad;" horiz-adv-x="540" 
d="M64 368h412v-131h-412v131z" />
    <glyph glyph-name="registered" unicode="&#xae;" horiz-adv-x="794" 
d="M47 339q0 151 100 251t249 100q151 0 251 -100t100 -251q0 -149 -100 -249t-251 -100q-149 0 -249 100t-100 249zM120 339q0 -120 78 -199.5t198 -79.5t198.5 79.5t78.5 199.5q0 121 -78.5 201t-198.5 80t-198 -80t-78 -201zM249 169v340h175q56 0 90.5 -30.5t34.5 -84.5
q0 -69 -66 -98l75 -105v-22h-114l-74 116h-9v-116h-112zM410 416h-49v-55h49q28 0 28 27q0 28 -28 28z" />
    <glyph glyph-name="macron" unicode="&#xaf;" 
d="M437 605h-261v104h261v-104z" />
    <glyph glyph-name="degree" unicode="&#xb0;" horiz-adv-x="464" 
d="M42 503q0 80 54 133.5t136 53.5t136 -53.5t54 -133.5t-54 -132.5t-136 -52.5t-136 52.5t-54 132.5zM151 503q0 -34 23 -58t58 -24t57.5 24t22.5 58q0 35 -22.5 59t-57.5 24t-58 -24t-23 -59z" />
    <glyph glyph-name="plusminus" unicode="&#xb1;" horiz-adv-x="622" 
d="M376 659v-177h178v-131h-178v-108h-131v108h-177v131h177v177h131zM68 171h486v-131h-486v131z" />
    <glyph glyph-name="twosuperior" unicode="&#xb2;" horiz-adv-x="350" 
d="M42 438v68l128 96q43 32 43 65q0 17 -11.5 28.5t-31.5 11.5q-28 0 -42.5 -16.5t-14.5 -43.5l-83 15q2 60 39 94t102 34q67 0 101.5 -32.5t34.5 -86.5q0 -66 -74 -116l-53 -37h135v-80h-273z" />
    <glyph glyph-name="threesuperior" unicode="&#xb3;" horiz-adv-x="336" 
d="M74 651h76q48 0 48 31q0 30 -52 30q-50 0 -97 -19l-20 78q52 19 117 19q145 0 145 -99q0 -25 -16.5 -45t-44.5 -27q72 -18 72 -85q0 -47 -39.5 -74t-116.5 -27q-53 0 -116 20l23 76q46 -19 93 -19q29 0 45.5 10.5t16.5 27.5q0 31 -58 31h-76v72z" />
    <glyph glyph-name="acute" unicode="&#xb4;" 
d="M430 741l-107 -158h-139l81 158h165z" />
    <glyph glyph-name="mu" unicode="&#xb5;" horiz-adv-x="653" 
d="M244 523v-247q0 -75 18 -104t70 -29q62 0 95 49v331h168v-523h-168v45q-60 -55 -159 -55q-5 0 -12.5 0.5t-11.5 0.5v-179h-168v711h168z" />
    <glyph glyph-name="paragraph" unicode="&#xb6;" horiz-adv-x="614" 
d="M244 -188v414h-61q-68 0 -111 39t-43 110q0 69 43 108t111 40h166v-711h-105zM426 -188v711h105v-711h-105z" />
    <glyph glyph-name="periodcentered" unicode="&#xb7;" horiz-adv-x="312" 
d="M56 294q0 46 26 71.5t73 25.5t73.5 -25.5t26.5 -71.5t-26.5 -70.5t-73.5 -24.5t-73 24.5t-26 70.5z" />
    <glyph glyph-name="cedilla" unicode="&#xb8;" 
d="M209 -97l30 97h65l-16 -53q12 2 23 2q42 0 65 -18.5t23 -49.5q0 -37 -33 -58t-85 -21q-44 0 -81 11l14 52q37 -11 62 -11q49 0 49 24t-49 24q-41 0 -63 -5z" />
    <glyph glyph-name="onesuperior" unicode="&#xb9;" horiz-adv-x="281" 
d="M10 698l151 86h66v-346h-91v243l-91 -51z" />
    <glyph glyph-name="ordmasculine" unicode="&#xba;" horiz-adv-x="501" 
d="M60 503q0 80 54 133.5t136 53.5t136 -53.5t54 -133.5t-54 -132.5t-136 -52.5t-136 52.5t-54 132.5zM163 503q0 -37 24.5 -62.5t62.5 -25.5t62 25.5t24 62.5t-24 63t-62 26t-62.5 -26t-24.5 -63zM90 247h320v-83h-320v83z" />
    <glyph glyph-name="guillemotright" unicode="&#xbb;" horiz-adv-x="569" 
d="M284 317v-31l-162 -207h-13l-60 29l96 194l-97 192l61 30h13zM528 317v-31l-163 -207h-12l-61 29l96 194l-96 192l61 30h12z" />
    <glyph glyph-name="onequarter" unicode="&#xbc;" horiz-adv-x="821" 
d="M155 13l369 667h88v-12l-368 -668h-89v13zM783 59h-54v-59h-92v59h-180v59l150 228h122v-220h54v-67zM548 126h89v137zM28 598l151 86h66v-346h-91v243l-91 -51z" />
    <glyph glyph-name="onehalf" unicode="&#xbd;" horiz-adv-x="820" 
d="M156 13l369 667h88v-12l-368 -668h-89v13zM504 0v68l128 96q43 31 43 65q0 17 -11.5 28t-31.5 11q-56 0 -56 -60l-83 16q2 59 38.5 93.5t101.5 34.5q67 0 101.5 -32.5t34.5 -87.5q0 -65 -74 -116l-53 -36h135v-80h-273zM28 594l151 86h66v-346h-91v243l-91 -51z" />
    <glyph glyph-name="threequarters" unicode="&#xbe;" horiz-adv-x="857" 
d="M196 13l369 667h88v-12l-368 -668h-89v13zM824 59h-54v-59h-92v59h-180v59l150 228h122v-220h54v-67zM589 126h89v137zM85 551h76q48 0 48 31q0 30 -52 30q-49 0 -97 -19l-20 78q52 19 117 19q145 0 145 -99q0 -25 -16.5 -45t-44.5 -27q72 -18 72 -85q0 -47 -39.5 -74
t-116.5 -27q-53 0 -116 20l23 76q46 -19 93 -19q29 0 45.5 10.5t16.5 27.5q0 31 -58 31h-76v72z" />
    <glyph glyph-name="questiondown" unicode="&#xbf;" horiz-adv-x="476" 
d="M200 288h137q14 -44 14 -61q0 -52 -61 -99l-49 -37q-36 -25 -36 -65q0 -25 16.5 -39.5t43.5 -14.5q36 0 75.5 17t63.5 39l42 -132q-87 -63 -206 -63q-94 0 -148 50t-54 131q0 40 14 71.5t28 45.5t41 36l56 41q12 9 17 14.5t8.5 13.5t3.5 19q0 6 -6 33zM365 442
q0 -46 -25.5 -71t-71.5 -25t-72 25t-26 71q0 45 26 70t72 25q47 0 72 -24.5t25 -70.5z" />
    <glyph glyph-name="Agrave" unicode="&#xc0;" horiz-adv-x="727" 
d="M3 0l263 680h198l257 -680h-170l-46 125h-285l-47 -125h-170zM365 514l-103 -266h202zM308 740l-107 158h165l81 -158h-139z" />
    <glyph glyph-name="Aacute" unicode="&#xc1;" horiz-adv-x="727" 
d="M3 0l263 680h198l257 -680h-170l-46 125h-285l-47 -125h-170zM365 514l-103 -266h202zM524 898l-107 -158h-139l81 158h165z" />
    <glyph glyph-name="Acircumflex" unicode="&#xc2;" horiz-adv-x="727" 
d="M3 0l263 680h198l257 -680h-170l-46 125h-285l-47 -125h-170zM365 514l-103 -266h202zM423 740l-59 78l-59 -78h-124l102 158h162l101 -158h-123z" />
    <glyph glyph-name="Atilde" unicode="&#xc3;" horiz-adv-x="727" 
d="M3 0l263 680h198l257 -680h-170l-46 125h-285l-47 -125h-170zM365 514l-103 -266h202zM216 751l-46 56q17 39 48.5 64.5t67.5 25.5q39 0 87.5 -29t68.5 -29q44 0 68 44l48 -55q-46 -90 -117 -90q-35 0 -86 28.5t-68 28.5q-42 0 -71 -44z" />
    <glyph glyph-name="Adieresis" unicode="&#xc4;" horiz-adv-x="727" 
d="M3 0l263 680h198l257 -680h-170l-46 125h-285l-47 -125h-170zM365 514l-103 -266h202zM149 822q0 73 88 73q86 0 86 -73q0 -74 -86 -74q-88 0 -88 74zM407 822q0 73 88 73q86 0 86 -73q0 -74 -86 -74q-88 0 -88 74z" />
    <glyph glyph-name="Aring" unicode="&#xc5;" horiz-adv-x="727" 
d="M266 728q0 40 29 69t69 29t69 -29t29 -69q0 -25 -13 -48h15l257 -680h-170l-46 125h-285l-47 -125h-170l263 680h12q-12 21 -12 48zM365 514l-103 -266h202zM326 728q0 -16 11 -27t27 -11t26.5 11t10.5 27t-10.5 26.5t-26.5 10.5t-27 -10.5t-11 -26.5z" />
    <glyph glyph-name="AE" unicode="&#xc6;" horiz-adv-x="1066" 
d="M468 0v125h-237l-68 -125h-178l377 680h652v-147h-386v-119h313v-135h-313v-133h386v-146h-546zM293 248h175v324z" />
    <glyph glyph-name="Ccedilla" unicode="&#xc7;" horiz-adv-x="707" 
d="M322 -97l28 91q-134 17 -219.5 114t-85.5 232q0 149 102.5 249.5t256.5 100.5q157 0 269 -101l-77 -121q-87 67 -187 67q-85 0 -138 -56t-53 -139t53 -139t138 -56q100 0 187 67l77 -121q-108 -97 -259 -101l-13 -43q12 2 23 2q42 0 65 -18.5t23 -49.5q0 -37 -33 -58
t-85 -21q-44 0 -81 11l14 52q37 -11 62 -11q49 0 49 24t-49 24q-41 0 -63 -5z" />
    <glyph glyph-name="Egrave" unicode="&#xc8;" horiz-adv-x="683" 
d="M631 0h-546v680h546v-146h-385v-117h312v-141h-312v-130h385v-146zM302 740l-107 158h165l81 -158h-139z" />
    <glyph glyph-name="Eacute" unicode="&#xc9;" horiz-adv-x="683" 
d="M631 0h-546v680h546v-146h-385v-117h312v-141h-312v-130h385v-146zM519 898l-107 -158h-139l81 158h165z" />
    <glyph glyph-name="Ecircumflex" unicode="&#xca;" horiz-adv-x="683" 
d="M631 0h-546v680h546v-146h-385v-117h312v-141h-312v-130h385v-146zM418 740l-59 78l-59 -78h-124l102 158h162l101 -158h-123z" />
    <glyph glyph-name="Edieresis" unicode="&#xcb;" horiz-adv-x="683" 
d="M631 0h-546v680h546v-146h-385v-117h312v-141h-312v-130h385v-146zM143 822q0 73 88 73q86 0 86 -73q0 -74 -86 -74q-88 0 -88 74zM401 822q0 73 88 73q86 0 86 -73q0 -74 -86 -74q-88 0 -88 74z" />
    <glyph glyph-name="Igrave" unicode="&#xcc;" horiz-adv-x="338" 
d="M85 0v680h168v-680h-168zM107 740l-107 158h165l81 -158h-139z" />
    <glyph glyph-name="Iacute" unicode="&#xcd;" horiz-adv-x="338" 
d="M85 0v680h168v-680h-168zM338 898l-107 -158h-139l81 158h165z" />
    <glyph glyph-name="Icircumflex" unicode="&#xce;" horiz-adv-x="338" 
d="M85 0v680h168v-680h-168zM227 740l-59 78l-59 -78h-124l102 158h162l101 -158h-123z" />
    <glyph glyph-name="Idieresis" unicode="&#xcf;" horiz-adv-x="338" 
d="M85 0v680h168v-680h-168zM-48 822q0 73 88 73q86 0 86 -73q0 -74 -86 -74q-88 0 -88 74zM210 822q0 73 88 73q86 0 86 -73q0 -74 -86 -74q-88 0 -88 74z" />
    <glyph glyph-name="Eth" unicode="&#xd0;" horiz-adv-x="793" 
d="M376 297h-348v82h348v-82zM90 0v680h168v-680h-168zM179 534v146h217q156 -1 253.5 -90.5t97.5 -250.5q0 -160 -97.5 -249.5t-253.5 -89.5h-221v146h213q84 0 135.5 51t51.5 142q0 93 -51.5 144t-135.5 51h-209z" />
    <glyph glyph-name="Ntilde" unicode="&#xd1;" horiz-adv-x="827" 
d="M596 0l-343 413v-413h-168v680h146l343 -413v413h168v-680h-146zM267 751l-46 56q17 39 48.5 64.5t67.5 25.5q39 0 87.5 -29t68.5 -29q44 0 68 44l48 -55q-46 -90 -117 -90q-36 0 -86 28.5t-68 28.5q-42 0 -71 -44z" />
    <glyph glyph-name="Ograve" unicode="&#xd2;" horiz-adv-x="789" 
d="M45 339q0 151 100 251t249 100q151 0 251 -100t100 -251q0 -149 -100 -249t-251 -100q-149 0 -249 100t-100 249zM209 339q0 -81 52.5 -136t132.5 -55q82 0 133.5 54.5t51.5 136.5q0 83 -51.5 137.5t-133.5 54.5q-80 0 -132.5 -54.5t-52.5 -137.5zM330 740l-107 158h165
l81 -158h-139z" />
    <glyph glyph-name="Oacute" unicode="&#xd3;" horiz-adv-x="789" 
d="M45 339q0 151 100 251t249 100q151 0 251 -100t100 -251q0 -149 -100 -249t-251 -100q-149 0 -249 100t-100 249zM209 339q0 -81 52.5 -136t132.5 -55q82 0 133.5 54.5t51.5 136.5q0 83 -51.5 137.5t-133.5 54.5q-80 0 -132.5 -54.5t-52.5 -137.5zM564 898l-107 -158
h-139l81 158h165z" />
    <glyph glyph-name="Ocircumflex" unicode="&#xd4;" horiz-adv-x="789" 
d="M45 339q0 151 100 251t249 100q151 0 251 -100t100 -251q0 -149 -100 -249t-251 -100q-149 0 -249 100t-100 249zM209 339q0 -81 52.5 -136t132.5 -55q82 0 133.5 54.5t51.5 136.5q0 83 -51.5 137.5t-133.5 54.5q-80 0 -132.5 -54.5t-52.5 -137.5zM453 740l-59 78
l-59 -78h-124l102 158h162l101 -158h-123z" />
    <glyph glyph-name="Otilde" unicode="&#xd5;" horiz-adv-x="789" 
d="M45 339q0 151 100 251t249 100q151 0 251 -100t100 -251q0 -149 -100 -249t-251 -100q-149 0 -249 100t-100 249zM209 339q0 -81 52.5 -136t132.5 -55q82 0 133.5 54.5t51.5 136.5q0 83 -51.5 137.5t-133.5 54.5q-80 0 -132.5 -54.5t-52.5 -137.5zM246 751l-46 56
q17 39 48.5 64.5t67.5 25.5q39 0 87.5 -29t68.5 -29q44 0 68 44l48 -55q-46 -90 -117 -90q-35 0 -86 28.5t-68 28.5q-42 0 -71 -44z" />
    <glyph glyph-name="Odieresis" unicode="&#xd6;" horiz-adv-x="789" 
d="M45 339q0 151 100 251t249 100q151 0 251 -100t100 -251q0 -149 -100 -249t-251 -100q-149 0 -249 100t-100 249zM209 339q0 -81 52.5 -136t132.5 -55q82 0 133.5 54.5t51.5 136.5q0 83 -51.5 137.5t-133.5 54.5q-80 0 -132.5 -54.5t-52.5 -137.5zM178 822q0 73 88 73
q86 0 86 -73q0 -74 -86 -74q-88 0 -88 74zM436 822q0 73 88 73q86 0 86 -73q0 -74 -86 -74q-88 0 -88 74z" />
    <glyph glyph-name="multiply" unicode="&#xd7;" horiz-adv-x="547" 
d="M492 428l-126 -125l126 -125l-94 -94l-125 126l-125 -126l-93 94l126 125l-126 125l93 93l125 -126l125 126z" />
    <glyph glyph-name="Oslash" unicode="&#xd8;" horiz-adv-x="789" 
d="M45 339q0 151 100 251t249 100q106 0 192 -54l36 44h101v-12l-70 -87q92 -100 92 -242q0 -149 -100 -249t-251 -100q-101 0 -183 48l-31 -38h-102v13l64 79q-97 99 -97 247zM207 339q0 -69 38 -120l239 292q-41 22 -90 22q-81 0 -134 -55.5t-53 -138.5zM581 339
q0 64 -33 113l-235 -289q37 -17 81 -17q81 0 134 55.5t53 137.5z" />
    <glyph glyph-name="Ugrave" unicode="&#xd9;" horiz-adv-x="784" 
d="M244 680v-377q0 -75 37.5 -116.5t109.5 -41.5q73 0 111.5 42t38.5 116v377h168v-388q0 -128 -84.5 -215.5t-233.5 -87.5t-232 83.5t-83 219.5v388h168zM329 740l-107 158h165l81 -158h-139z" />
    <glyph glyph-name="Uacute" unicode="&#xda;" horiz-adv-x="784" 
d="M244 680v-377q0 -75 37.5 -116.5t109.5 -41.5q73 0 111.5 42t38.5 116v377h168v-388q0 -128 -84.5 -215.5t-233.5 -87.5t-232 83.5t-83 219.5v388h168zM562 898l-107 -158h-139l81 158h165z" />
    <glyph glyph-name="Ucircumflex" unicode="&#xdb;" horiz-adv-x="784" 
d="M244 680v-377q0 -75 37.5 -116.5t109.5 -41.5q73 0 111.5 42t38.5 116v377h168v-388q0 -128 -84.5 -215.5t-233.5 -87.5t-232 83.5t-83 219.5v388h168zM451 740l-59 78l-59 -78h-124l102 158h162l101 -158h-123z" />
    <glyph glyph-name="Udieresis" unicode="&#xdc;" horiz-adv-x="784" 
d="M244 680v-377q0 -75 37.5 -116.5t109.5 -41.5q73 0 111.5 42t38.5 116v377h168v-388q0 -128 -84.5 -215.5t-233.5 -87.5t-232 83.5t-83 219.5v388h168zM176 822q0 73 88 73q86 0 86 -73q0 -74 -86 -74q-88 0 -88 74zM434 822q0 73 88 73q86 0 86 -73q0 -74 -86 -74
q-88 0 -88 74z" />
    <glyph glyph-name="Yacute" unicode="&#xdd;" horiz-adv-x="692" 
d="M262 0v262l-259 406v12h187l156 -263l156 263h187v-12l-259 -405v-263h-168zM515 898l-107 -158h-139l81 158h165z" />
    <glyph glyph-name="Thorn" unicode="&#xde;" horiz-adv-x="709" 
d="M85 0v680h168v-88h170q109 0 180 -62.5t71 -184.5q0 -113 -72.5 -178t-178.5 -65h-170v-102h-168zM399 446h-146v-198h146q45 0 74 26.5t29 72.5q0 47 -29 73t-74 26z" />
    <glyph glyph-name="germandbls" unicode="&#xdf;" horiz-adv-x="698" 
d="M358 720q120 0 183 -64t63 -145q0 -40 -15.5 -73t-31 -52t-15.5 -26t18 -25.5t39.5 -39.5t39.5 -56.5t18 -73.5q0 -86 -52 -130.5t-141 -44.5q-78 0 -151 26l24 135q36 -20 75 -20q30 0 46.5 14t16.5 37q0 20 -17.5 43.5t-39 41t-39 38t-17.5 35.5q0 24 35 69t35 87
q0 35 -24.5 56.5t-64.5 21.5q-50 0 -76 -36.5t-26 -99.5v-438h-168v425q0 78 23.5 136.5t64.5 92t90.5 50t106.5 16.5z" />
    <glyph glyph-name="agrave" unicode="&#xe0;" horiz-adv-x="584" 
d="M247 583l-107 158h165l81 -158h-139zM108 361l-28 135q99 36 207 36q229 0 229 -214v-318h-164v49q-63 -59 -149 -59q-79 0 -122.5 41.5t-43.5 113.5q0 87 64.5 134.5t173.5 47.5q43 0 77 -6q-1 39 -20.5 56t-60.5 17q-83 0 -163 -33zM201 163q0 -54 66 -54q43 0 85 30
v82q-22 5 -45 5q-47 0 -76.5 -16t-29.5 -47z" />
    <glyph glyph-name="aacute" unicode="&#xe1;" horiz-adv-x="584" 
d="M468 741l-107 -158h-139l81 158h165zM108 361l-28 135q99 36 207 36q229 0 229 -214v-318h-164v49q-63 -59 -149 -59q-79 0 -122.5 41.5t-43.5 113.5q0 87 64.5 134.5t173.5 47.5q43 0 77 -6q-1 39 -20.5 56t-60.5 17q-83 0 -163 -33zM201 163q0 -54 66 -54q43 0 85 30
v82q-22 5 -45 5q-47 0 -76.5 -16t-29.5 -47z" />
    <glyph glyph-name="acircumflex" unicode="&#xe2;" horiz-adv-x="584" 
d="M356 583l-59 78l-59 -78h-124l102 158h162l101 -158h-123zM108 361l-28 135q99 36 207 36q229 0 229 -214v-318h-164v49q-63 -59 -149 -59q-79 0 -122.5 41.5t-43.5 113.5q0 87 64.5 134.5t173.5 47.5q43 0 77 -6q-1 39 -20.5 56t-60.5 17q-83 0 -163 -33zM201 163
q0 -54 66 -54q43 0 85 30v82q-22 5 -45 5q-47 0 -76.5 -16t-29.5 -47z" />
    <glyph glyph-name="atilde" unicode="&#xe3;" horiz-adv-x="584" 
d="M152 594l-46 56q17 39 48.5 64.5t67.5 25.5q39 0 87.5 -29t68.5 -29q44 0 68 44l48 -55q-46 -90 -117 -90q-35 0 -86 28.5t-68 28.5q-42 0 -71 -44zM108 361l-28 135q99 36 207 36q229 0 229 -214v-318h-164v49q-63 -59 -149 -59q-79 0 -122.5 41.5t-43.5 113.5
q0 87 64.5 134.5t173.5 47.5q43 0 77 -6q-1 39 -20.5 56t-60.5 17q-83 0 -163 -33zM201 163q0 -54 66 -54q43 0 85 30v82q-22 5 -45 5q-47 0 -76.5 -16t-29.5 -47z" />
    <glyph glyph-name="adieresis" unicode="&#xe4;" horiz-adv-x="584" 
d="M84 665q0 73 88 73q86 0 86 -73q0 -74 -86 -74q-88 0 -88 74zM342 665q0 73 88 73q86 0 86 -73q0 -74 -86 -74q-88 0 -88 74zM108 361l-28 135q99 36 207 36q229 0 229 -214v-318h-164v49q-63 -59 -149 -59q-79 0 -122.5 41.5t-43.5 113.5q0 87 64.5 134.5t173.5 47.5
q43 0 77 -6q-1 39 -20.5 56t-60.5 17q-83 0 -163 -33zM201 163q0 -54 66 -54q43 0 85 30v82q-22 5 -45 5q-47 0 -76.5 -16t-29.5 -47z" />
    <glyph glyph-name="aring" unicode="&#xe5;" horiz-adv-x="584" 
d="M202 670q0 40 29 69t69 29t69 -29t29 -69t-29 -69t-69 -29t-69 29t-29 69zM262 670q0 -16 11 -27t27 -11t26.5 11t10.5 27t-10.5 26.5t-26.5 10.5t-27 -10.5t-11 -26.5zM108 361l-28 135q99 36 207 36q229 0 229 -214v-318h-164v49q-63 -59 -149 -59q-79 0 -122.5 41.5
t-43.5 113.5q0 87 64.5 134.5t173.5 47.5q43 0 77 -6q-1 39 -20.5 56t-60.5 17q-83 0 -163 -33zM201 163q0 -54 66 -54q43 0 85 30v82q-22 5 -45 5q-47 0 -76.5 -16t-29.5 -47z" />
    <glyph glyph-name="ae" unicode="&#xe6;" horiz-adv-x="901" 
d="M846 223h-328q8 -107 131 -107q35 0 74.5 14.5t66.5 34.5l62 -108q-87 -71 -219 -71q-143 0 -198 86q-99 -82 -214 -82q-86 0 -135.5 42t-49.5 113q0 49 23.5 85.5t64 56t85 28.5t94.5 9q22 0 48 -2q0 42 -18.5 57t-66.5 15q-36 0 -82.5 -10.5t-75.5 -24.5l-29 138
q102 35 202 35q80 0 118.5 -20t59.5 -56q72 81 166 81q111 0 171 -62.5t60 -155.5q0 -66 -10 -96zM628 419q-46 0 -74.5 -27.5t-31.5 -71.5h200v10q0 41 -24 65t-70 24zM200 163q0 -54 66 -54q50 0 86 32v88q-16 3 -39 3q-43 0 -78 -15t-35 -54z" />
    <glyph glyph-name="ccedilla" unicode="&#xe7;" horiz-adv-x="565" 
d="M244 -97l27 88q-106 16 -167.5 90.5t-61.5 180.5q0 120 78 197.5t208 77.5q120 0 204 -72l-76 -124q-52 43 -118 43q-58 0 -91 -34t-33 -88q0 -55 33 -89.5t91 -34.5q65 0 118 44l76 -124q-81 -69 -197 -72l-12 -39q12 2 23 2q42 0 65 -18.5t23 -49.5q0 -37 -33 -58
t-85 -21q-44 0 -81 11l14 52q37 -11 62 -11q49 0 49 24t-49 24q-41 0 -63 -5z" />
    <glyph glyph-name="egrave" unicode="&#xe8;" 
d="M489 169l62 -112q-87 -71 -222 -71q-142 0 -214.5 75.5t-72.5 198.5q0 120 77 198.5t201 78.5q114 0 174.5 -61.5t60.5 -156.5q0 -65 -11 -100h-335q8 -47 41 -73.5t89 -26.5q39 0 81 15t69 35zM409 325q1 3 1 12q0 33 -23 52.5t-68 19.5t-73 -24t-34 -60h197zM273 583
l-107 158h165l81 -158h-139z" />
    <glyph glyph-name="eacute" unicode="&#xe9;" 
d="M489 169l62 -112q-87 -71 -222 -71q-142 0 -214.5 75.5t-72.5 198.5q0 120 77 198.5t201 78.5q114 0 174.5 -61.5t60.5 -156.5q0 -65 -11 -100h-335q8 -47 41 -73.5t89 -26.5q39 0 81 15t69 35zM409 325q1 3 1 12q0 33 -23 52.5t-68 19.5t-73 -24t-34 -60h197zM487 741
l-107 -158h-139l81 158h165z" />
    <glyph glyph-name="ecircumflex" unicode="&#xea;" 
d="M489 169l62 -112q-87 -71 -222 -71q-142 0 -214.5 75.5t-72.5 198.5q0 120 77 198.5t201 78.5q114 0 174.5 -61.5t60.5 -156.5q0 -65 -11 -100h-335q8 -47 41 -73.5t89 -26.5q39 0 81 15t69 35zM409 325q1 3 1 12q0 33 -23 52.5t-68 19.5t-73 -24t-34 -60h197zM382 583
l-59 78l-59 -78h-124l102 158h162l101 -158h-123z" />
    <glyph glyph-name="edieresis" unicode="&#xeb;" 
d="M489 169l62 -112q-87 -71 -222 -71q-142 0 -214.5 75.5t-72.5 198.5q0 120 77 198.5t201 78.5q114 0 174.5 -61.5t60.5 -156.5q0 -65 -11 -100h-335q8 -47 41 -73.5t89 -26.5q39 0 81 15t69 35zM409 325q1 3 1 12q0 33 -23 52.5t-68 19.5t-73 -24t-34 -60h197zM106 665
q0 73 88 73q86 0 86 -73q0 -74 -86 -74q-88 0 -88 74zM364 665q0 73 88 73q86 0 86 -73q0 -74 -86 -74q-88 0 -88 74z" />
    <glyph glyph-name="igrave" unicode="&#xec;" horiz-adv-x="315" 
d="M102 583l-107 158h165l81 -158h-139zM241 0h-168v523h168v-523z" />
    <glyph glyph-name="iacute" unicode="&#xed;" horiz-adv-x="315" 
d="M323 741l-107 -158h-139l81 158h165zM241 0h-168v523h168v-523z" />
    <glyph glyph-name="icircumflex" unicode="&#xee;" horiz-adv-x="315" 
d="M241 0h-168v523h168v-523zM216 583l-59 78l-59 -78h-124l102 158h162l101 -158h-123z" />
    <glyph glyph-name="idieresis" unicode="&#xef;" horiz-adv-x="315" 
d="M-57 665q0 73 88 73q86 0 86 -73q0 -74 -86 -74q-88 0 -88 74zM201 665q0 73 88 73q86 0 86 -73q0 -74 -86 -74q-88 0 -88 74zM241 0h-168v523h168v-523z" />
    <glyph glyph-name="eth" unicode="&#xf0;" horiz-adv-x="623" 
d="M461 698l-40 -43q70 -52 111.5 -133t41.5 -181q0 -162 -74 -256.5t-210 -94.5q-109 0 -177 66.5t-68 178.5q0 94 56 154.5t154 60.5q79 0 145 -52q-17 87 -81 148l-46 -49l-43 35l46 49q-34 22 -69 35l67 104q52 -9 99 -35l45 48zM297 143q90 0 105 130q-53 47 -106 47
q-39 0 -61.5 -23t-22.5 -64q0 -38 22 -64t63 -26z" />
    <glyph glyph-name="ntilde" unicode="&#xf1;" horiz-adv-x="673" 
d="M73 523h168v-61q64 70 165 70t150.5 -64t49.5 -167v-301h-168v273q0 104 -92 104q-70 0 -105 -65v-312h-168v523zM191 594l-46 56q17 39 48.5 64.5t67.5 25.5q39 0 87.5 -29t68.5 -29q44 0 68 44l48 -55q-46 -90 -117 -90q-36 0 -86 28.5t-68 28.5q-42 0 -71 -44z" />
    <glyph glyph-name="ograve" unicode="&#xf2;" horiz-adv-x="646" 
d="M41 260q0 119 80 198t201 79q123 0 203 -78.5t80 -198.5q0 -118 -80 -196t-203 -78q-121 0 -201 78t-80 196zM203 260q0 -51 33.5 -86.5t85.5 -35.5q54 0 87.5 35.5t33.5 86.5q0 53 -33.5 88.5t-87.5 35.5q-52 0 -85.5 -35.5t-33.5 -88.5zM259 583l-107 158h165l81 -158
h-139z" />
    <glyph glyph-name="oacute" unicode="&#xf3;" horiz-adv-x="646" 
d="M41 260q0 119 80 198t201 79q123 0 203 -78.5t80 -198.5q0 -118 -80 -196t-203 -78q-121 0 -201 78t-80 196zM203 260q0 -51 33.5 -86.5t85.5 -35.5q54 0 87.5 35.5t33.5 86.5q0 53 -33.5 88.5t-87.5 35.5q-52 0 -85.5 -35.5t-33.5 -88.5zM492 741l-107 -158h-139l81 158
h165z" />
    <glyph glyph-name="ocircumflex" unicode="&#xf4;" horiz-adv-x="646" 
d="M41 260q0 119 80 198t201 79q123 0 203 -78.5t80 -198.5q0 -118 -80 -196t-203 -78q-121 0 -201 78t-80 196zM203 260q0 -51 33.5 -86.5t85.5 -35.5q54 0 87.5 35.5t33.5 86.5q0 53 -33.5 88.5t-87.5 35.5q-52 0 -85.5 -35.5t-33.5 -88.5zM381 583l-59 78l-59 -78h-124
l102 158h162l101 -158h-123z" />
    <glyph glyph-name="otilde" unicode="&#xf5;" horiz-adv-x="646" 
d="M41 260q0 119 80 198t201 79q123 0 203 -78.5t80 -198.5q0 -118 -80 -196t-203 -78q-121 0 -201 78t-80 196zM203 260q0 -51 33.5 -86.5t85.5 -35.5q54 0 87.5 35.5t33.5 86.5q0 53 -33.5 88.5t-87.5 35.5q-52 0 -85.5 -35.5t-33.5 -88.5zM174 594l-46 56
q17 39 48.5 64.5t67.5 25.5q39 0 87.5 -29t68.5 -29q44 0 68 44l48 -55q-46 -90 -117 -90q-35 0 -86 28.5t-68 28.5q-42 0 -71 -44z" />
    <glyph glyph-name="odieresis" unicode="&#xf6;" horiz-adv-x="646" 
d="M41 260q0 119 80 198t201 79q123 0 203 -78.5t80 -198.5q0 -118 -80 -196t-203 -78q-121 0 -201 78t-80 196zM203 260q0 -51 33.5 -86.5t85.5 -35.5q54 0 87.5 35.5t33.5 86.5q0 53 -33.5 88.5t-87.5 35.5q-52 0 -85.5 -35.5t-33.5 -88.5zM106 665q0 73 88 73
q86 0 86 -73q0 -74 -86 -74q-88 0 -88 74zM364 665q0 73 88 73q86 0 86 -73q0 -74 -86 -74q-88 0 -88 74z" />
    <glyph glyph-name="divide" unicode="&#xf7;" horiz-adv-x="577" 
d="M45 368h487v-131h-487v131zM202 503q0 40 22.5 62.5t64.5 22.5q41 0 64 -22.5t23 -62.5t-23 -62t-64 -22q-42 0 -64.5 21.5t-22.5 62.5zM202 101q0 40 22.5 62t64.5 22q41 0 64 -22t23 -62q0 -41 -23 -63t-64 -22q-42 0 -64.5 22t-22.5 63z" />
    <glyph glyph-name="oslash" unicode="&#xf8;" horiz-adv-x="646" 
d="M41 260q0 119 80 198t201 79q88 0 160 -45l26 31h68v-12l-47 -57q76 -78 76 -194q0 -118 -80 -196t-203 -78q-82 0 -149 38l-20 -24h-71v13l41 49q-82 77 -82 198zM203 260q0 -43 23 -75l154 185q-26 14 -58 14q-52 0 -85.5 -35.5t-33.5 -88.5zM443 260q0 38 -19 68
l-150 -181q21 -9 48 -9q54 0 87.5 35.5t33.5 86.5z" />
    <glyph glyph-name="ugrave" unicode="&#xf9;" horiz-adv-x="673" 
d="M600 0h-168v61q-64 -70 -165 -70t-150.5 64t-49.5 167v301h168v-273q0 -104 92 -104q71 0 105 65v312h168v-523zM266 583l-107 158h165l81 -158h-139z" />
    <glyph glyph-name="uacute" unicode="&#xfa;" horiz-adv-x="673" 
d="M600 0h-168v61q-64 -70 -165 -70t-150.5 64t-49.5 167v301h168v-273q0 -104 92 -104q71 0 105 65v312h168v-523zM514 741l-107 -158h-139l81 158h165z" />
    <glyph glyph-name="ucircumflex" unicode="&#xfb;" horiz-adv-x="673" 
d="M600 0h-168v61q-64 -70 -165 -70t-150.5 64t-49.5 167v301h168v-273q0 -104 92 -104q71 0 105 65v312h168v-523zM390 583l-59 78l-59 -78h-124l102 158h162l101 -158h-123z" />
    <glyph glyph-name="udieresis" unicode="&#xfc;" horiz-adv-x="673" 
d="M600 0h-168v61q-64 -70 -165 -70t-150.5 64t-49.5 167v301h168v-273q0 -104 92 -104q71 0 105 65v312h168v-523zM116 665q0 73 88 73q86 0 86 -73q0 -74 -86 -74q-88 0 -88 74zM374 665q0 73 88 73q86 0 86 -73q0 -74 -86 -74q-88 0 -88 74z" />
    <glyph glyph-name="yacute" unicode="&#xfd;" horiz-adv-x="618" 
d="M430 523h169l-209 -516q-43 -111 -94 -158t-141 -47q-69 0 -120 35l24 128q52 -27 93 -27q30 0 46.5 14t29.5 44l9 21l-232 506h185l120 -340zM477 741l-107 -158h-139l81 158h165z" />
    <glyph glyph-name="thorn" unicode="&#xfe;" horiz-adv-x="673" 
d="M630 260q0 -118 -67 -194t-174 -76q-88 0 -148 58v-236h-168v898h168v-240q57 62 148 62q107 0 174 -76t67 -196zM460 260q0 58 -32 92t-87 34q-61 0 -100 -39v-173q41 -38 100 -38q54 0 86.5 33.5t32.5 90.5z" />
    <glyph glyph-name="ydieresis" unicode="&#xff;" horiz-adv-x="618" 
d="M430 523h169l-209 -516q-43 -111 -94 -158t-141 -47q-69 0 -120 35l24 128q52 -27 93 -27q30 0 46.5 14t29.5 44l9 21l-232 506h185l120 -340zM94 665q0 73 88 73q86 0 86 -73q0 -74 -86 -74q-88 0 -88 74zM352 665q0 73 88 73q86 0 86 -73q0 -74 -86 -74q-88 0 -88 74z
" />
    <glyph glyph-name="Amacron" unicode="&#x100;" horiz-adv-x="727" 
d="M3 0l263 680h198l257 -680h-170l-46 125h-285l-47 -125h-170zM365 514l-103 -266h202zM495 762h-261v104h261v-104z" />
    <glyph glyph-name="amacron" unicode="&#x101;" horiz-adv-x="584" 
d="M435 605h-261v104h261v-104zM108 361l-28 135q99 36 207 36q229 0 229 -214v-318h-164v49q-63 -59 -149 -59q-79 0 -122.5 41.5t-43.5 113.5q0 87 64.5 134.5t173.5 47.5q43 0 77 -6q-1 39 -20.5 56t-60.5 17q-83 0 -163 -33zM201 163q0 -54 66 -54q43 0 85 30v82
q-22 5 -45 5q-47 0 -76.5 -16t-29.5 -47z" />
    <glyph glyph-name="Abreve" unicode="&#x102;" horiz-adv-x="727" 
d="M3 0l263 680h198l257 -680h-170l-46 125h-285l-47 -125h-170zM365 514l-103 -266h202zM211 829l40 60q40 -46 113 -46t113 46l40 -60q-48 -86 -152 -86t-154 86z" />
    <glyph glyph-name="abreve" unicode="&#x103;" horiz-adv-x="584" 
d="M144 672l40 60q40 -46 113 -46t113 46l40 -60q-48 -86 -152 -86t-154 86zM108 361l-28 135q99 36 207 36q229 0 229 -214v-318h-164v49q-63 -59 -149 -59q-79 0 -122.5 41.5t-43.5 113.5q0 87 64.5 134.5t173.5 47.5q43 0 77 -6q-1 39 -20.5 56t-60.5 17q-83 0 -163 -33z
M201 163q0 -54 66 -54q43 0 85 30v82q-22 5 -45 5q-47 0 -76.5 -16t-29.5 -47z" />
    <glyph glyph-name="Aogonek" unicode="&#x104;" horiz-adv-x="727" 
d="M3 0l263 680h198l257 -680h-57q-36 -1 -57 -19.5t-21 -46.5q0 -22 12.5 -35t35.5 -13q26 0 53 19l16 -70q-39 -25 -91 -25q-48 0 -75.5 28t-27.5 73q0 60 55 89h-13l-46 125h-285l-47 -125h-170zM365 514l-103 -266h202z" />
    <glyph glyph-name="aogonek" unicode="&#x105;" horiz-adv-x="584" 
d="M108 361l-28 135q99 36 207 36q229 0 229 -214v-318h-26q-37 -1 -59.5 -19t-22.5 -47q0 -22 12.5 -35t35.5 -13q26 0 53 19l16 -70q-39 -25 -91 -25q-48 0 -75.5 28t-27.5 73q0 60 55 89h-34v49q-63 -59 -149 -59q-79 0 -122.5 41.5t-43.5 113.5q0 87 64.5 134.5
t173.5 47.5q43 0 77 -6q-1 39 -20.5 56t-60.5 17q-83 0 -163 -33zM201 163q0 -54 66 -54q43 0 85 30v82q-22 5 -45 5q-47 0 -76.5 -16t-29.5 -47z" />
    <glyph glyph-name="Cacute" unicode="&#x106;" horiz-adv-x="706" 
d="M217 340q0 -83 53 -139t138 -56q100 0 187 67l77 -121q-112 -101 -269 -101q-154 0 -256.5 100.5t-102.5 249.5t102.5 249.5t256.5 100.5q157 0 269 -101l-77 -121q-87 67 -187 67q-85 0 -138 -56t-53 -139zM582 898l-107 -158h-139l81 158h165z" />
    <glyph glyph-name="cacute" unicode="&#x107;" horiz-adv-x="563" 
d="M41 262q0 120 78 197.5t208 77.5q120 0 204 -72l-76 -124q-52 43 -118 43q-58 0 -91 -34t-33 -88q0 -55 33 -89.5t91 -34.5q65 0 118 44l76 -124q-84 -72 -204 -72q-130 0 -208 78t-78 198zM495 741l-107 -158h-139l81 158h165z" />
    <glyph glyph-name="Ccircumflex" unicode="&#x108;" horiz-adv-x="706" 
d="M217 340q0 -83 53 -139t138 -56q100 0 187 67l77 -121q-112 -101 -269 -101q-154 0 -256.5 100.5t-102.5 249.5t102.5 249.5t256.5 100.5q157 0 269 -101l-77 -121q-87 67 -187 67q-85 0 -138 -56t-53 -139zM464 740l-59 78l-59 -78h-124l102 158h162l101 -158h-123z" />
    <glyph glyph-name="ccircumflex" unicode="&#x109;" horiz-adv-x="563" 
d="M41 262q0 120 78 197.5t208 77.5q120 0 204 -72l-76 -124q-52 43 -118 43q-58 0 -91 -34t-33 -88q0 -55 33 -89.5t91 -34.5q65 0 118 44l76 -124q-84 -72 -204 -72q-130 0 -208 78t-78 198zM388 583l-59 78l-59 -78h-124l102 158h162l101 -158h-123z" />
    <glyph glyph-name="Cdotaccent" unicode="&#x10a;" horiz-adv-x="706" 
d="M217 340q0 -83 53 -139t138 -56q100 0 187 67l77 -121q-112 -101 -269 -101q-154 0 -256.5 100.5t-102.5 249.5t102.5 249.5t256.5 100.5q157 0 269 -101l-77 -121q-87 67 -187 67q-85 0 -138 -56t-53 -139zM310 824q0 77 94 77q92 0 92 -77q0 -79 -92 -79q-94 0 -94 79z
" />
    <glyph glyph-name="cdotaccent" unicode="&#x10b;" horiz-adv-x="563" 
d="M41 262q0 120 78 197.5t208 77.5q120 0 204 -72l-76 -124q-52 43 -118 43q-58 0 -91 -34t-33 -88q0 -55 33 -89.5t91 -34.5q65 0 118 44l76 -124q-84 -72 -204 -72q-130 0 -208 78t-78 198zM235 667q0 77 94 77q92 0 92 -77q0 -79 -92 -79q-94 0 -94 79z" />
    <glyph glyph-name="Ccaron" unicode="&#x10c;" horiz-adv-x="706" 
d="M217 340q0 -83 53 -139t138 -56q100 0 187 67l77 -121q-112 -101 -269 -101q-154 0 -256.5 100.5t-102.5 249.5t102.5 249.5t256.5 100.5q157 0 269 -101l-77 -121q-87 67 -187 67q-85 0 -138 -56t-53 -139zM348 898l59 -77l59 77h123l-101 -158h-162l-102 158h124z" />
    <glyph glyph-name="ccaron" unicode="&#x10d;" horiz-adv-x="563" 
d="M41 262q0 120 78 197.5t208 77.5q120 0 204 -72l-76 -124q-52 43 -118 43q-58 0 -91 -34t-33 -88q0 -55 33 -89.5t91 -34.5q65 0 118 44l76 -124q-84 -72 -204 -72q-130 0 -208 78t-78 198zM271 741l59 -77l59 77h123l-101 -158h-162l-102 158h124z" />
    <glyph glyph-name="Dcaron" unicode="&#x10e;" horiz-adv-x="788" 
d="M85 0v680h306q156 -1 253.5 -90.5t97.5 -250.5q0 -160 -97.5 -249.5t-253.5 -89.5h-306zM383 534h-130v-388h130q84 0 134.5 51t50.5 142q0 93 -50.5 144t-134.5 51zM288 898l59 -77l59 77h123l-101 -158h-162l-102 158h124z" />
    <glyph glyph-name="dcaron" unicode="&#x10f;" horiz-adv-x="769" 
d="M43 262q0 119 67 194.5t174 75.5q88 0 149 -59v237h168v-710h-168v52q-57 -62 -149 -62q-107 0 -174 76.5t-67 195.5zM214 262q0 -58 32.5 -92t86.5 -34q58 0 100 38v173q-42 39 -100 39q-54 0 -86.5 -33.5t-32.5 -90.5zM686 480l24 63q-59 14 -59 70q0 35 23 55.5
t58 20.5q97 0 97 -89q0 -65 -65 -148z" />
    <glyph glyph-name="Dcroat" unicode="&#x110;" horiz-adv-x="793" 
d="M90 379v301h306q156 -1 253.5 -90.5t97.5 -250.5q0 -160 -97.5 -249.5t-253.5 -89.5h-306v297h-62v82h62zM258 379h118v-82h-118v-151h130q84 0 135.5 51t51.5 142q0 93 -51.5 144t-135.5 51h-130v-155z" />
    <glyph glyph-name="dcroat" unicode="&#x111;" horiz-adv-x="675" 
d="M43 262q0 119 67 194.5t174 75.5q88 0 149 -59v103h-98v81h98v53h168v-53h82v-81h-82v-576h-168v52q-57 -62 -149 -62q-107 0 -174 76.5t-67 195.5zM214 262q0 -58 32.5 -92t86.5 -34q58 0 100 38v173q-42 39 -100 39q-54 0 -86.5 -33.5t-32.5 -90.5z" />
    <glyph glyph-name="Emacron" unicode="&#x112;" horiz-adv-x="683" 
d="M631 0h-546v680h546v-146h-385v-117h312v-141h-312v-130h385v-146zM489 762h-261v104h261v-104z" />
    <glyph glyph-name="emacron" unicode="&#x113;" 
d="M489 169l62 -112q-87 -71 -222 -71q-142 0 -214.5 75.5t-72.5 198.5q0 120 77 198.5t201 78.5q114 0 174.5 -61.5t60.5 -156.5q0 -65 -11 -100h-335q8 -47 41 -73.5t89 -26.5q39 0 81 15t69 35zM409 325q1 3 1 12q0 33 -23 52.5t-68 19.5t-73 -24t-34 -60h197zM451 605
h-261v104h261v-104z" />
    <glyph glyph-name="Ebreve" unicode="&#x114;" horiz-adv-x="683" 
d="M631 0h-546v680h546v-146h-385v-117h312v-141h-312v-130h385v-146zM205 829l40 60q40 -46 113 -46t113 46l40 -60q-48 -86 -152 -86t-154 86z" />
    <glyph glyph-name="ebreve" unicode="&#x115;" 
d="M489 169l62 -112q-87 -71 -222 -71q-142 0 -214.5 75.5t-72.5 198.5q0 120 77 198.5t201 78.5q114 0 174.5 -61.5t60.5 -156.5q0 -65 -11 -100h-335q8 -47 41 -73.5t89 -26.5q39 0 81 15t69 35zM409 325q1 3 1 12q0 33 -23 52.5t-68 19.5t-73 -24t-34 -60h197zM171 672
l40 60q40 -46 113 -46t113 46l40 -60q-48 -86 -152 -86t-154 86z" />
    <glyph glyph-name="Edotaccent" unicode="&#x116;" horiz-adv-x="683" 
d="M631 0h-546v680h546v-146h-385v-117h312v-141h-312v-130h385v-146zM264 824q0 77 94 77q92 0 92 -77q0 -79 -92 -79q-94 0 -94 79z" />
    <glyph glyph-name="edotaccent" unicode="&#x117;" 
d="M489 169l62 -112q-87 -71 -222 -71q-142 0 -214.5 75.5t-72.5 198.5q0 120 77 198.5t201 78.5q114 0 174.5 -61.5t60.5 -156.5q0 -65 -11 -100h-335q8 -47 41 -73.5t89 -26.5q39 0 81 15t69 35zM409 325q1 3 1 12q0 33 -23 52.5t-68 19.5t-73 -24t-34 -60h197zM231 667
q0 77 94 77q92 0 92 -77q0 -79 -92 -79q-94 0 -94 79z" />
    <glyph glyph-name="Eogonek" unicode="&#x118;" horiz-adv-x="683" 
d="M631 0h-19q-37 -1 -59.5 -19t-22.5 -47q0 -22 12.5 -35t35.5 -13q26 0 53 19l16 -70q-39 -25 -91 -25q-48 0 -75.5 28t-27.5 73q0 60 55 89h-423v680h546v-146h-385v-117h312v-141h-312v-130h385v-146z" />
    <glyph glyph-name="eogonek" unicode="&#x119;" horiz-adv-x="601" 
d="M489 169l62 -112q-67 -55 -168 -67q-35 -19 -35 -56q0 -22 12.5 -35t35.5 -13q26 0 53 19l16 -70q-39 -25 -91 -25q-48 0 -75.5 28t-27.5 73t36 76q-131 6 -198 80.5t-67 192.5q0 120 77 198.5t201 78.5q114 0 174.5 -61.5t60.5 -156.5q0 -65 -11 -100h-335
q8 -47 41 -73.5t89 -26.5q39 0 81 15t69 35zM409 325q1 3 1 12q0 33 -23 52.5t-68 19.5t-73 -24t-34 -60h197z" />
    <glyph glyph-name="Ecaron" unicode="&#x11a;" horiz-adv-x="683" 
d="M631 0h-546v680h546v-146h-385v-117h312v-141h-312v-130h385v-146zM300 898l59 -77l59 77h123l-101 -158h-162l-102 158h124z" />
    <glyph glyph-name="ecaron" unicode="&#x11b;" 
d="M489 169l62 -112q-87 -71 -222 -71q-142 0 -214.5 75.5t-72.5 198.5q0 120 77 198.5t201 78.5q114 0 174.5 -61.5t60.5 -156.5q0 -65 -11 -100h-335q8 -47 41 -73.5t89 -26.5q39 0 81 15t69 35zM409 325q1 3 1 12q0 33 -23 52.5t-68 19.5t-73 -24t-34 -60h197zM261 741
l59 -77l59 77h123l-101 -158h-162l-102 158h124z" />
    <glyph glyph-name="Gcircumflex" unicode="&#x11c;" horiz-adv-x="756" 
d="M700 402v-317q-48 -39 -132.5 -67t-160.5 -28q-156 0 -259 94.5t-103 254.5q0 161 103 256t259 95q152 0 267 -91l-77 -127q-80 63 -187 63q-84 0 -138 -52.5t-54 -143.5t55 -142.5t145 -51.5q67 0 123 29v100h-163v128h322zM467 740l-59 78l-59 -78h-124l102 158h162
l101 -158h-123z" />
    <glyph glyph-name="gcircumflex" unicode="&#x11d;" horiz-adv-x="674" 
d="M43 280q0 106 67.5 179t173.5 73q92 0 149 -62v53h168v-451q0 -129 -79 -199.5t-196 -70.5q-20 0 -39.5 1.5t-35 4t-32.5 6.5t-27 7t-25 8.5t-20.5 8t-18.5 8t-15 6.5l35 131q88 -48 169 -48q52 0 84 24.5t32 77.5v50q-60 -57 -149 -57q-105 0 -173 72.5t-68 177.5z
M215 280q0 -47 32 -75.5t86 -28.5q57 0 100 38v133q-41 39 -100 39q-54 0 -86 -29t-32 -77zM403 583l-59 78l-59 -78h-124l102 158h162l101 -158h-123z" />
    <glyph glyph-name="Gbreve" unicode="&#x11e;" horiz-adv-x="756" 
d="M700 402v-317q-48 -39 -132.5 -67t-160.5 -28q-156 0 -259 94.5t-103 254.5q0 161 103 256t259 95q152 0 267 -91l-77 -127q-80 63 -187 63q-84 0 -138 -52.5t-54 -143.5t55 -142.5t145 -51.5q67 0 123 29v100h-163v128h322zM256 829l40 60q40 -46 113 -46t113 46l40 -60
q-48 -86 -152 -86t-154 86z" />
    <glyph glyph-name="gbreve" unicode="&#x11f;" horiz-adv-x="674" 
d="M43 280q0 106 67.5 179t173.5 73q92 0 149 -62v53h168v-451q0 -129 -79 -199.5t-196 -70.5q-20 0 -39.5 1.5t-35 4t-32.5 6.5t-27 7t-25 8.5t-20.5 8t-18.5 8t-15 6.5l35 131q88 -48 169 -48q52 0 84 24.5t32 77.5v50q-60 -57 -149 -57q-105 0 -173 72.5t-68 177.5z
M215 280q0 -47 32 -75.5t86 -28.5q57 0 100 38v133q-41 39 -100 39q-54 0 -86 -29t-32 -77zM193 672l40 60q40 -46 113 -46t113 46l40 -60q-48 -86 -152 -86t-154 86z" />
    <glyph glyph-name="Gdotaccent" unicode="&#x120;" horiz-adv-x="756" 
d="M700 402v-317q-48 -39 -132.5 -67t-160.5 -28q-156 0 -259 94.5t-103 254.5q0 161 103 256t259 95q152 0 267 -91l-77 -127q-80 63 -187 63q-84 0 -138 -52.5t-54 -143.5t55 -142.5t145 -51.5q67 0 123 29v100h-163v128h322zM314 824q0 77 94 77q92 0 92 -77
q0 -79 -92 -79q-94 0 -94 79z" />
    <glyph glyph-name="gdotaccent" unicode="&#x121;" horiz-adv-x="674" 
d="M43 280q0 106 67.5 179t173.5 73q92 0 149 -62v53h168v-451q0 -129 -79 -199.5t-196 -70.5q-20 0 -39.5 1.5t-35 4t-32.5 6.5t-27 7t-25 8.5t-20.5 8t-18.5 8t-15 6.5l35 131q88 -48 169 -48q52 0 84 24.5t32 77.5v50q-60 -57 -149 -57q-105 0 -173 72.5t-68 177.5z
M215 280q0 -47 32 -75.5t86 -28.5q57 0 100 38v133q-41 39 -100 39q-54 0 -86 -29t-32 -77zM261 667q0 77 94 77q92 0 92 -77q0 -79 -92 -79q-94 0 -94 79z" />
    <glyph glyph-name="Gcommaaccent" unicode="&#x122;" horiz-adv-x="756" 
d="M700 402v-317q-48 -39 -132.5 -67t-160.5 -28q-156 0 -259 94.5t-103 254.5q0 161 103 256t259 95q152 0 267 -91l-77 -127q-80 63 -187 63q-84 0 -138 -52.5t-54 -143.5t55 -142.5t145 -51.5q67 0 123 29v100h-163v128h322zM339 -264l24 63q-59 14 -59 70q0 35 23 55.5
t58 20.5q97 0 97 -89q0 -65 -65 -148z" />
    <glyph glyph-name="gcommaaccent" unicode="&#x123;" horiz-adv-x="674" 
d="M43 280q0 106 67.5 179t173.5 73q92 0 149 -62v53h168v-451q0 -129 -79 -199.5t-196 -70.5q-20 0 -39.5 1.5t-35 4t-32.5 6.5t-27 7t-25 8.5t-20.5 8t-18.5 8t-15 6.5l35 131q88 -48 169 -48q52 0 84 24.5t32 77.5v50q-60 -57 -149 -57q-105 0 -173 72.5t-68 177.5z
M215 280q0 -47 32 -75.5t86 -28.5q57 0 100 38v133q-41 39 -100 39q-54 0 -86 -29t-32 -77zM395 784l-24 -64q60 -12 60 -70q0 -35 -23 -55t-59 -20q-97 0 -97 89q0 67 65 148z" />
    <glyph glyph-name="Hcircumflex" unicode="&#x124;" horiz-adv-x="827" 
d="M574 0v271h-321v-271h-168v680h168v-263h321v263h168v-680h-168zM471 740l-59 78l-59 -78h-124l102 158h162l101 -158h-123z" />
    <glyph glyph-name="hcircumflex" unicode="&#x125;" horiz-adv-x="673" 
d="M73 710h168v-246q63 68 165 68q101 0 150.5 -64t49.5 -167v-301h-168v273q0 104 -92 104q-70 0 -105 -65v-312h-168v710zM394 751l-59 78l-59 -78h-124l102 158h162l101 -158h-123z" />
    <glyph glyph-name="Hbar" unicode="&#x126;" horiz-adv-x="835" 
d="M89 0v505h-46v82h46v93h168v-93h321v93h168v-93h48v-82h-48v-505h-168v271h-321v-271h-168zM257 505v-88h321v88h-321z" />
    <glyph glyph-name="hbar" unicode="&#x127;" horiz-adv-x="673" 
d="M73 710h168v-53h113v-81h-113v-112q63 68 165 68q101 0 150.5 -64t49.5 -167v-301h-168v273q0 104 -92 104q-70 0 -105 -65v-312h-168v576h-67v81h67v53z" />
    <glyph glyph-name="Itilde" unicode="&#x128;" horiz-adv-x="338" 
d="M85 0v680h168v-680h-168zM21 751l-46 56q17 39 48.5 64.5t67.5 25.5q39 0 87.5 -29t68.5 -29q44 0 68 44l48 -55q-46 -90 -117 -90q-36 0 -86.5 28.5t-67.5 28.5q-42 0 -71 -44z" />
    <glyph glyph-name="itilde" unicode="&#x129;" horiz-adv-x="315" 
d="M7 594l-46 56q17 39 48.5 64.5t67.5 25.5q39 0 87.5 -29t68.5 -29q44 0 68 44l48 -55q-46 -90 -117 -90q-36 0 -86 28.5t-68 28.5q-42 0 -71 -44zM241 0h-168v523h168v-523z" />
    <glyph glyph-name="Imacron" unicode="&#x12a;" horiz-adv-x="338" 
d="M85 0v680h168v-680h-168zM299 762h-261v104h261v-104z" />
    <glyph glyph-name="imacron" unicode="&#x12b;" horiz-adv-x="315" 
d="M286 605h-261v104h261v-104zM241 0h-168v523h168v-523z" />
    <glyph glyph-name="Ibreve" unicode="&#x12c;" horiz-adv-x="338" 
d="M85 0v680h168v-680h-168zM15 829l40 60q40 -46 113 -46t113 46l40 -60q-48 -86 -152 -86t-154 86z" />
    <glyph glyph-name="ibreve" unicode="&#x12d;" horiz-adv-x="315" 
d="M3 672l40 60q40 -46 113 -46t113 46l40 -60q-48 -86 -152 -86t-154 86zM241 0h-168v523h168v-523z" />
    <glyph glyph-name="Iogonek" unicode="&#x12e;" horiz-adv-x="338" 
d="M85 0v680h168v-680h-45q-36 -1 -57 -19.5t-21 -46.5q0 -22 12.5 -35t35.5 -13q26 0 53 19l16 -70q-39 -25 -91 -25q-48 0 -75.5 28t-27.5 73q0 60 55 89h-23z" />
    <glyph glyph-name="iogonek" unicode="&#x12f;" horiz-adv-x="315" 
d="M73 0v523h168v-523h-22q-37 -1 -59.5 -19t-22.5 -47q0 -22 12.5 -35t35.5 -13q26 0 53 19l16 -70q-39 -25 -91 -25q-47 0 -75 28t-28 73q0 60 55 89h-42zM64 667q0 77 94 77q93 0 93 -77q0 -79 -93 -79q-94 0 -94 79z" />
    <glyph glyph-name="Idotaccent" unicode="&#x130;" horiz-adv-x="338" 
d="M85 0v680h168v-680h-168zM75 824q0 77 94 77q92 0 92 -77q0 -79 -92 -79q-94 0 -94 79z" />
    <glyph glyph-name="dotlessi" unicode="&#x131;" horiz-adv-x="315" 
d="M241 0h-168v523h168v-523z" />
    <glyph glyph-name="IJ" unicode="&#x132;" horiz-adv-x="995" 
d="M85 0v680h168v-680h-168zM749 680h168v-405q0 -131 -69.5 -208.5t-205.5 -77.5q-257 0 -275 276l166 16q6 -70 30 -105t80 -35q58 0 82 36.5t24 107.5v395z" />
    <glyph glyph-name="ij" unicode="&#x133;" horiz-adv-x="678" 
d="M64 667q0 77 94 77q93 0 93 -77q0 -79 -93 -79q-94 0 -94 79zM73 0v523h168v-523h-168zM438 523h168v-465q0 -172 -148 -255l-101 102q81 55 81 143v475zM429 667q0 77 94 77q92 0 92 -77q0 -79 -92 -79q-94 0 -94 79z" />
    <glyph glyph-name="Jcircumflex" unicode="&#x134;" horiz-adv-x="643" 
d="M397 680h168v-405q0 -131 -69.5 -208.5t-205.5 -77.5q-257 0 -275 276l166 16q6 -70 30 -105t80 -35q58 0 82 36.5t24 107.5v395zM534 740l-59 78l-59 -78h-124l102 158h162l101 -158h-123z" />
    <glyph glyph-name="jcircumflex" unicode="&#x135;" horiz-adv-x="315" 
d="M94 -197l-101 96q81 53 81 146v478h168v-465q0 -172 -148 -255zM216 583l-59 78l-59 -78h-124l102 158h162l101 -158h-123z" />
    <glyph glyph-name="Kcommaaccent" unicode="&#x136;" horiz-adv-x="725" 
d="M85 0v680h168v-269h71l197 269h172v-25l-234 -316l252 -319v-20h-191l-199 265h-68v-265h-168zM315 -264l24 63q-59 14 -59 70q0 35 23 55.5t58 20.5q97 0 97 -89q0 -65 -65 -148z" />
    <glyph glyph-name="kcommaaccent" unicode="&#x137;" horiz-adv-x="636" 
d="M602 523v-28l-200 -221l213 -246v-28h-188l-186 228v-228h-168v710h168v-404l180 217h181zM264 -264l24 63q-59 14 -59 70q0 35 23 55.5t58 20.5q97 0 97 -89q0 -65 -65 -148z" />
    <glyph glyph-name="kgreenlandic" unicode="&#x138;" horiz-adv-x="636" 
d="M602 523v-28l-200 -233l213 -234v-28h-188l-186 217v-217h-168v523h168v-230l180 230h181z" />
    <glyph glyph-name="Lacute" unicode="&#x139;" horiz-adv-x="608" 
d="M592 0h-507v680h168v-534h339v-146zM340 898l-107 -158h-139l81 158h165z" />
    <glyph glyph-name="lacute" unicode="&#x13a;" horiz-adv-x="351" 
d="M72 710h168v-528q0 -51 36 -51q22 0 52 14l7 -133q-61 -22 -127 -22q-136 0 -136 150v570zM319 909l-107 -158h-139l81 158h165z" />
    <glyph glyph-name="Lcommaaccent" unicode="&#x13b;" horiz-adv-x="608" 
d="M592 0h-507v680h168v-534h339v-146zM275 -264l24 63q-59 14 -59 70q0 35 23 55.5t58 20.5q97 0 97 -89q0 -65 -65 -148z" />
    <glyph glyph-name="lcommaaccent" unicode="&#x13c;" horiz-adv-x="351" 
d="M72 710h168v-528q0 -51 36 -51q22 0 52 14l7 -133q-61 -22 -127 -22q-136 0 -136 150v570zM135 -264l24 63q-59 14 -59 70q0 35 23 55.5t58 20.5q97 0 97 -89q0 -65 -65 -148z" />
    <glyph glyph-name="Lcaron" unicode="&#x13d;" horiz-adv-x="612" 
d="M592 0h-507v680h168v-534h339v-146zM411 480l24 63q-59 14 -59 70q0 35 23 55.5t58 20.5q97 0 97 -89q0 -65 -65 -148z" />
    <glyph glyph-name="lcaron" unicode="&#x13e;" horiz-adv-x="415" 
d="M72 710h168v-528q0 -51 36 -51q22 0 52 14l7 -133q-61 -22 -127 -22q-136 0 -136 150v570zM326 480l24 63q-59 14 -59 70q0 35 23 55.5t58 20.5q97 0 97 -89q0 -65 -65 -148z" />
    <glyph glyph-name="Ldot" unicode="&#x13f;" horiz-adv-x="620" 
d="M592 0h-507v680h168v-534h339v-146zM354 387q0 41 23 63.5t64 22.5q42 0 65 -22.5t23 -63.5q0 -40 -23 -61.5t-65 -21.5q-41 0 -64 21.5t-23 61.5z" />
    <glyph glyph-name="ldot" unicode="&#x140;" horiz-adv-x="468" 
d="M72 710h168v-528q0 -51 36 -51q22 0 52 14l7 -133q-61 -22 -127 -22q-136 0 -136 150v570zM298 387q0 41 23 63.5t64 22.5q42 0 65 -22.5t23 -63.5q0 -40 -23 -61.5t-65 -21.5q-41 0 -64 21.5t-23 61.5z" />
    <glyph glyph-name="Lslash" unicode="&#x141;" horiz-adv-x="612" 
d="M595 0h-506v245l-43 -21v131l43 21v304h168v-219l104 53v-132l-104 -52v-184h338v-146z" />
    <glyph glyph-name="lslash" unicode="&#x142;" horiz-adv-x="357" 
d="M333 145l7 -133q-61 -22 -127 -22q-136 0 -136 150v121l-44 -22v132l44 22v317h168v-232l68 35v-131l-68 -35v-165q0 -51 36 -51q22 0 52 14z" />
    <glyph glyph-name="Nacute" unicode="&#x143;" horiz-adv-x="827" 
d="M596 0l-343 413v-413h-168v680h146l343 -413v413h168v-680h-146zM587 898l-107 -158h-139l81 158h165z" />
    <glyph glyph-name="nacute" unicode="&#x144;" horiz-adv-x="673" 
d="M73 523h168v-61q64 70 165 70t150.5 -64t49.5 -167v-301h-168v273q0 104 -92 104q-70 0 -105 -65v-312h-168v523zM512 741l-107 -158h-139l81 158h165z" />
    <glyph glyph-name="Ncommaaccent" unicode="&#x145;" horiz-adv-x="827" 
d="M596 0l-343 413v-413h-168v680h146l343 -413v413h168v-680h-146zM348 -264l24 63q-59 14 -59 70q0 35 23 55.5t58 20.5q97 0 97 -89q0 -65 -65 -148z" />
    <glyph glyph-name="ncommaaccent" unicode="&#x146;" horiz-adv-x="673" 
d="M73 523h168v-61q64 70 165 70t150.5 -64t49.5 -167v-301h-168v273q0 104 -92 104q-70 0 -105 -65v-312h-168v523zM283 -264l24 63q-59 14 -59 70q0 35 23 55.5t58 20.5q97 0 97 -89q0 -65 -65 -148z" />
    <glyph glyph-name="Ncaron" unicode="&#x147;" horiz-adv-x="827" 
d="M596 0l-343 413v-413h-168v680h146l343 -413v413h168v-680h-146zM357 898l59 -77l59 77h123l-101 -158h-162l-102 158h124z" />
    <glyph glyph-name="ncaron" unicode="&#x148;" horiz-adv-x="673" 
d="M73 523h168v-61q64 70 165 70t150.5 -64t49.5 -167v-301h-168v273q0 104 -92 104q-70 0 -105 -65v-312h-168v523zM276 741l59 -77l59 77h123l-101 -158h-162l-102 158h124z" />
    <glyph glyph-name="napostrophe" unicode="&#x149;" horiz-adv-x="806" 
d="M206 523h168v-61q64 70 165 70t150.5 -64t49.5 -167v-301h-168v273q0 104 -92 104q-70 0 -105 -65v-312h-168v523zM38 482l24 63q-59 14 -59 70q0 35 23 55.5t58 20.5q97 0 97 -89q0 -65 -65 -148z" />
    <glyph glyph-name="Eng" unicode="&#x14a;" horiz-adv-x="827" 
d="M574 47l-321 366v-413h-168v680h146l343 -406v406h168v-619q0 -172 -148 -255l-101 95q81 55 81 146z" />
    <glyph glyph-name="eng" unicode="&#x14b;" horiz-adv-x="673" 
d="M438 47v226q0 104 -92 104q-70 0 -105 -65v-312h-168v523h168v-61q64 70 165 70t150.5 -64t49.5 -167v-240q0 -173 -148 -255l-100 95q80 55 80 146z" />
    <glyph glyph-name="Omacron" unicode="&#x14c;" horiz-adv-x="789" 
d="M45 339q0 151 100 251t249 100q151 0 251 -100t100 -251q0 -149 -100 -249t-251 -100q-149 0 -249 100t-100 249zM209 339q0 -81 52.5 -136t132.5 -55q82 0 133.5 54.5t51.5 136.5q0 83 -51.5 137.5t-133.5 54.5q-80 0 -132.5 -54.5t-52.5 -137.5zM524 762h-261v104h261
v-104z" />
    <glyph glyph-name="omacron" unicode="&#x14d;" horiz-adv-x="646" 
d="M41 260q0 119 80 198t201 79q123 0 203 -78.5t80 -198.5q0 -118 -80 -196t-203 -78q-121 0 -201 78t-80 196zM203 260q0 -51 33.5 -86.5t85.5 -35.5q54 0 87.5 35.5t33.5 86.5q0 53 -33.5 88.5t-87.5 35.5q-52 0 -85.5 -35.5t-33.5 -88.5zM452 605h-261v104h261v-104z
" />
    <glyph glyph-name="Obreve" unicode="&#x14e;" horiz-adv-x="789" 
d="M45 339q0 151 100 251t249 100q151 0 251 -100t100 -251q0 -149 -100 -249t-251 -100q-149 0 -249 100t-100 249zM209 339q0 -81 52.5 -136t132.5 -55q82 0 133.5 54.5t51.5 136.5q0 83 -51.5 137.5t-133.5 54.5q-80 0 -132.5 -54.5t-52.5 -137.5zM241 829l40 60
q40 -46 113 -46t113 46l40 -60q-48 -86 -152 -86t-154 86z" />
    <glyph glyph-name="obreve" unicode="&#x14f;" horiz-adv-x="646" 
d="M41 260q0 119 80 198t201 79q123 0 203 -78.5t80 -198.5q0 -118 -80 -196t-203 -78q-121 0 -201 78t-80 196zM203 260q0 -51 33.5 -86.5t85.5 -35.5q54 0 87.5 35.5t33.5 86.5q0 53 -33.5 88.5t-87.5 35.5q-52 0 -85.5 -35.5t-33.5 -88.5zM169 672l40 60q40 -46 113 -46
t113 46l40 -60q-48 -86 -152 -86t-154 86z" />
    <glyph glyph-name="Ohungarumlaut" unicode="&#x150;" horiz-adv-x="789" 
d="M45 339q0 151 100 251t249 100q151 0 251 -100t100 -251q0 -149 -100 -249t-251 -100q-149 0 -249 100t-100 249zM209 339q0 -81 52.5 -136t132.5 -55q82 0 133.5 54.5t51.5 136.5q0 83 -51.5 137.5t-133.5 54.5q-80 0 -132.5 -54.5t-52.5 -137.5zM470 898l-108 -158
h-138l80 158h166zM689 898l-106 -158h-139l81 158h164z" />
    <glyph glyph-name="ohungarumlaut" unicode="&#x151;" horiz-adv-x="646" 
d="M41 260q0 119 80 198t201 79q123 0 203 -78.5t80 -198.5q0 -118 -80 -196t-203 -78q-121 0 -201 78t-80 196zM203 260q0 -51 33.5 -86.5t85.5 -35.5q54 0 87.5 35.5t33.5 86.5q0 53 -33.5 88.5t-87.5 35.5q-52 0 -85.5 -35.5t-33.5 -88.5zM385 741l-108 -158h-138l80 158
h166zM604 741l-106 -158h-139l81 158h164z" />
    <glyph glyph-name="OE" unicode="&#x152;" horiz-adv-x="1144" 
d="M546 0v33q-75 -44 -156 -44q-149 0 -247 99.5t-98 249.5q0 151 98 251t247 100q86 0 156 -43v34h547v-147h-386v-119h313v-135h-313v-133h386v-146h-547zM207 338q0 -82 54.5 -137t139.5 -55q88 0 145 55v276q-57 55 -147 55q-84 0 -138 -55.5t-54 -138.5z" />
    <glyph glyph-name="oe" unicode="&#x153;" horiz-adv-x="1038" 
d="M983 223h-342q4 -49 39 -77.5t103 -28.5q35 0 76 15t68 34l62 -109q-87 -71 -222 -71q-160 0 -229 104q-34 -49 -90.5 -76.5t-125.5 -27.5q-121 0 -201 78t-80 196q0 119 80 198t201 79q70 0 127.5 -29.5t91.5 -80.5q33 51 89 80.5t128 29.5q114 0 174.5 -62t60.5 -156
q0 -70 -10 -96zM203 260q0 -51 33.5 -86.5t85.5 -35.5q54 0 87.5 35.5t33.5 86.5q0 53 -33.5 88.5t-87.5 35.5q-52 0 -85.5 -35.5t-33.5 -88.5zM758 417q-46 0 -77.5 -25.5t-38.5 -71.5h218q1 6 1 18q-2 38 -31.5 58.5t-71.5 20.5z" />
    <glyph glyph-name="Racute" unicode="&#x154;" horiz-adv-x="734" 
d="M85 0v680h323q122 0 192 -56.5t70 -168.5q0 -74 -44.5 -128.5t-116.5 -75.5l198 -219v-32h-179l-207 241h-68v-241h-168zM405 534h-152v-168h152q41 0 66 23t25 61q0 39 -25 61.5t-66 22.5zM518 898l-107 -158h-139l81 158h165z" />
    <glyph glyph-name="racute" unicode="&#x155;" horiz-adv-x="494" 
d="M73 0v523h168v-91q50 100 142 100q57 0 104 -30l-51 -145q-42 20 -86 20q-41 0 -69.5 -23.5t-39.5 -61.5v-292h-168zM434 741l-107 -158h-139l81 158h165z" />
    <glyph glyph-name="Rcommaaccent" unicode="&#x156;" horiz-adv-x="734" 
d="M85 0v680h323q122 0 192 -56.5t70 -168.5q0 -74 -44.5 -128.5t-116.5 -75.5l198 -219v-32h-179l-207 241h-68v-241h-168zM405 534h-152v-168h152q41 0 66 23t25 61q0 39 -25 61.5t-66 22.5zM319 -264l24 63q-59 14 -59 70q0 35 23 55.5t58 20.5q97 0 97 -89
q0 -65 -65 -148z" />
    <glyph glyph-name="rcommaaccent" unicode="&#x157;" horiz-adv-x="494" 
d="M73 0v523h168v-91q50 100 142 100q57 0 104 -30l-51 -145q-42 20 -86 20q-41 0 -69.5 -23.5t-39.5 -61.5v-292h-168zM100 -264l24 63q-59 14 -59 70q0 35 23 55.5t58 20.5q97 0 97 -89q0 -65 -65 -148z" />
    <glyph glyph-name="Rcaron" unicode="&#x158;" horiz-adv-x="734" 
d="M85 0v680h323q122 0 192 -56.5t70 -168.5q0 -74 -44.5 -128.5t-116.5 -75.5l198 -219v-32h-179l-207 241h-68v-241h-168zM405 534h-152v-168h152q41 0 66 23t25 61q0 39 -25 61.5t-66 22.5zM282 898l59 -77l59 77h123l-101 -158h-162l-102 158h124z" />
    <glyph glyph-name="rcaron" unicode="&#x159;" horiz-adv-x="494" 
d="M73 0v523h168v-91q50 100 142 100q57 0 104 -30l-51 -145q-42 20 -86 20q-41 0 -69.5 -23.5t-39.5 -61.5v-292h-168zM205 741l59 -77l59 77h123l-101 -158h-162l-102 158h124z" />
    <glyph glyph-name="Sacute" unicode="&#x15a;" horiz-adv-x="627" 
d="M49 49l39 153q104 -68 215 -68q51 0 80 16.5t29 48.5q0 23 -18 37.5t-59 24.5l-111 30q-173 46 -173 189q0 92 70 150.5t202 58.5q139 0 245 -54l-47 -145q-42 24 -98 39.5t-107 15.5q-94 0 -94 -54q0 -21 14.5 -32.5t47.5 -21.5l121 -35q93 -27 136 -73.5t43 -117.5
q0 -98 -79 -159.5t-206 -61.5q-69 0 -140 18.5t-110 40.5zM492 898l-107 -158h-139l81 158h165z" />
    <glyph glyph-name="sacute" unicode="&#x15b;" horiz-adv-x="524" 
d="M468 493l-43 -131q-77 40 -151 40q-56 0 -56 -35q0 -14 8.5 -19.5t33.5 -12.5l81 -22q76 -21 108 -59t32 -95q0 -76 -61.5 -122.5t-164.5 -46.5q-116 0 -206 45l33 130q92 -48 162 -48q68 0 68 32q0 25 -52 38l-74 20q-71 19 -102.5 54.5t-31.5 95.5q0 80 59.5 127.5
t166.5 47.5q50 0 104 -11.5t86 -27.5zM421 741l-107 -158h-139l81 158h165z" />
    <glyph glyph-name="Scircumflex" unicode="&#x15c;" horiz-adv-x="627" 
d="M49 49l39 153q104 -68 215 -68q51 0 80 16.5t29 48.5q0 23 -18 37.5t-59 24.5l-111 30q-173 46 -173 189q0 92 70 150.5t202 58.5q139 0 245 -54l-47 -145q-42 24 -98 39.5t-107 15.5q-94 0 -94 -54q0 -21 14.5 -32.5t47.5 -21.5l121 -35q93 -27 136 -73.5t43 -117.5
q0 -98 -79 -159.5t-206 -61.5q-69 0 -140 18.5t-110 40.5zM373 740l-59 78l-59 -78h-124l102 158h162l101 -158h-123z" />
    <glyph glyph-name="scircumflex" unicode="&#x15d;" horiz-adv-x="524" 
d="M468 493l-43 -131q-77 40 -151 40q-56 0 -56 -35q0 -14 8.5 -19.5t33.5 -12.5l81 -22q76 -21 108 -59t32 -95q0 -76 -61.5 -122.5t-164.5 -46.5q-116 0 -206 45l33 130q92 -48 162 -48q68 0 68 32q0 25 -52 38l-74 20q-71 19 -102.5 54.5t-31.5 95.5q0 80 59.5 127.5
t166.5 47.5q50 0 104 -11.5t86 -27.5zM322 583l-59 78l-59 -78h-124l102 158h162l101 -158h-123z" />
    <glyph glyph-name="Scedilla" unicode="&#x15e;" horiz-adv-x="628" 
d="M226 -97l27 89q-59 6 -115.5 22.5t-88.5 34.5l39 153q104 -68 215 -68q51 0 80 16.5t29 48.5q0 23 -18 37.5t-59 24.5l-111 30q-173 46 -173 189q0 92 70 150.5t202 58.5q139 0 245 -54l-47 -145q-42 24 -98 39.5t-107 15.5q-94 0 -94 -54q0 -21 14.5 -32.5t47.5 -21.5
l121 -35q93 -27 136 -73.5t43 -117.5q0 -94 -73.5 -154.5t-192.5 -65.5l-13 -44q12 2 23 2q42 0 65 -18.5t23 -49.5q0 -37 -33 -58t-85 -21q-44 0 -81 11l14 52q37 -11 62 -11q49 0 49 24t-49 24q-41 0 -63 -5z" />
    <glyph glyph-name="scedilla" unicode="&#x15f;" horiz-adv-x="525" 
d="M177 -97l27 90q-88 9 -154 42l33 130q92 -48 162 -48q68 0 68 32q0 25 -52 38l-74 20q-71 19 -102.5 54.5t-31.5 95.5q0 80 59.5 127.5t166.5 47.5q50 0 104 -11.5t86 -27.5l-43 -131q-77 40 -151 40q-56 0 -56 -35q0 -14 8.5 -19.5t33.5 -12.5l81 -22q76 -21 108 -59
t32 -95q0 -74 -58 -120t-155 -49l-13 -43q12 2 23 2q42 0 65 -18.5t23 -49.5q0 -37 -33 -58t-85 -21q-44 0 -81 11l14 52q37 -11 62 -11q49 0 49 24t-49 24q-41 0 -63 -5z" />
    <glyph glyph-name="Scaron" unicode="&#x160;" horiz-adv-x="627" 
d="M49 49l39 153q104 -68 215 -68q51 0 80 16.5t29 48.5q0 23 -18 37.5t-59 24.5l-111 30q-173 46 -173 189q0 92 70 150.5t202 58.5q139 0 245 -54l-47 -145q-42 24 -98 39.5t-107 15.5q-94 0 -94 -54q0 -21 14.5 -32.5t47.5 -21.5l121 -35q93 -27 136 -73.5t43 -117.5
q0 -98 -79 -159.5t-206 -61.5q-69 0 -140 18.5t-110 40.5zM249 898l59 -77l59 77h123l-101 -158h-162l-102 158h124z" />
    <glyph glyph-name="scaron" unicode="&#x161;" horiz-adv-x="524" 
d="M468 493l-43 -131q-77 40 -151 40q-56 0 -56 -35q0 -14 8.5 -19.5t33.5 -12.5l81 -22q76 -21 108 -59t32 -95q0 -76 -61.5 -122.5t-164.5 -46.5q-116 0 -206 45l33 130q92 -48 162 -48q68 0 68 32q0 25 -52 38l-74 20q-71 19 -102.5 54.5t-31.5 95.5q0 80 59.5 127.5
t166.5 47.5q50 0 104 -11.5t86 -27.5zM203 741l59 -77l59 77h123l-101 -158h-162l-102 158h124z" />
    <glyph glyph-name="Tcommaaccent" unicode="&#x162;" horiz-adv-x="630" 
d="M605 533h-203v-533h-62l-17 -53q14 2 24 2q42 0 65 -18.5t23 -49.5q0 -37 -33 -58t-86 -21q-43 0 -80 11l13 52q39 -11 62 -11q50 0 50 24t-50 24q-40 0 -62 -5l-5 6l31 97h-41v533h-209v147h580v-147z" />
    <glyph glyph-name="tcommaaccent" unicode="&#x163;" horiz-adv-x="520" 
d="M216 -97l28 93q-59 14 -91 61.5t-32 124.5v211h-89v130h94l20 133h143v-133h181v-130h-181v-176q0 -44 15 -63t46 -19q49 0 98 36l52 -128q-81 -50 -192 -53l-13 -43q12 2 23 2q42 0 65 -18.5t23 -49.5q0 -37 -33 -58t-85 -21q-44 0 -81 11l14 52q37 -11 62 -11
q49 0 49 24t-49 24q-41 0 -63 -5z" />
    <glyph glyph-name="Tcaron" unicode="&#x164;" horiz-adv-x="630" 
d="M605 533h-203v-533h-168v533h-209v147h580v-147zM258 898l59 -77l59 77h123l-101 -158h-162l-102 158h124z" />
    <glyph glyph-name="tcaron" unicode="&#x165;" horiz-adv-x="576" 
d="M145 656h143v-133h181v-130h-181v-176q0 -44 15 -63t46 -19q49 0 98 36l52 -128q-86 -53 -203 -53q-83 0 -129.5 49.5t-46.5 142.5v211h-89v130h94zM500 480l24 63q-59 14 -59 70q0 35 23 55.5t58 20.5q97 0 97 -89q0 -65 -65 -148z" />
    <glyph glyph-name="Tbar" unicode="&#x166;" horiz-adv-x="630" 
d="M605 533h-203v-187h93v-82h-93v-264h-168v264h-88v82h88v187h-209v147h580v-147z" />
    <glyph glyph-name="tbar" unicode="&#x167;" horiz-adv-x="521" 
d="M290 393v-80h108v-81h-108v-15q0 -82 61 -82q51 0 99 36l51 -128q-86 -53 -204 -53q-82 0 -128.5 49.5t-46.5 142.5v50h-73v81h73v80h-89v130h101l19 133h137v-133h181v-130h-181z" />
    <glyph glyph-name="Utilde" unicode="&#x168;" horiz-adv-x="784" 
d="M244 680v-377q0 -75 37.5 -116.5t109.5 -41.5q73 0 111.5 42t38.5 116v377h168v-388q0 -128 -84.5 -215.5t-233.5 -87.5t-232 83.5t-83 219.5v388h168zM244 751l-46 56q17 39 48.5 64.5t67.5 25.5q39 0 87.5 -29t68.5 -29q44 0 68 44l48 -55q-46 -90 -117 -90
q-35 0 -86 28.5t-68 28.5q-42 0 -71 -44z" />
    <glyph glyph-name="utilde" unicode="&#x169;" horiz-adv-x="673" 
d="M600 0h-168v61q-64 -70 -165 -70t-150.5 64t-49.5 167v301h168v-273q0 -104 92 -104q71 0 105 65v312h168v-523zM188 594l-46 56q17 39 48.5 64.5t67.5 25.5q39 0 87.5 -29t68.5 -29q44 0 68 44l48 -55q-46 -90 -117 -90q-35 0 -86 28.5t-68 28.5q-42 0 -71 -44z" />
    <glyph glyph-name="Umacron" unicode="&#x16a;" horiz-adv-x="784" 
d="M244 680v-377q0 -75 37.5 -116.5t109.5 -41.5q73 0 111.5 42t38.5 116v377h168v-388q0 -128 -84.5 -215.5t-233.5 -87.5t-232 83.5t-83 219.5v388h168zM522 762h-261v104h261v-104z" />
    <glyph glyph-name="umacron" unicode="&#x16b;" horiz-adv-x="673" 
d="M600 0h-168v61q-64 -70 -165 -70t-150.5 64t-49.5 167v301h168v-273q0 -104 92 -104q71 0 105 65v312h168v-523zM464 605h-261v104h261v-104z" />
    <glyph glyph-name="Ubreve" unicode="&#x16c;" horiz-adv-x="784" 
d="M244 680v-377q0 -75 37.5 -116.5t109.5 -41.5q73 0 111.5 42t38.5 116v377h168v-388q0 -128 -84.5 -215.5t-233.5 -87.5t-232 83.5t-83 219.5v388h168zM239 829l40 60q40 -46 113 -46t113 46l40 -60q-48 -86 -152 -86t-154 86z" />
    <glyph glyph-name="ubreve" unicode="&#x16d;" horiz-adv-x="673" 
d="M600 0h-168v61q-64 -70 -165 -70t-150.5 64t-49.5 167v301h168v-273q0 -104 92 -104q71 0 105 65v312h168v-523zM182 672l40 60q40 -46 113 -46t113 46l40 -60q-48 -86 -152 -86t-154 86z" />
    <glyph glyph-name="Uring" unicode="&#x16e;" horiz-adv-x="784" 
d="M244 680v-377q0 -75 37.5 -116.5t109.5 -41.5q73 0 111.5 42t38.5 116v377h168v-388q0 -128 -84.5 -215.5t-233.5 -87.5t-232 83.5t-83 219.5v388h168zM294 787q0 41 29 69.5t69 28.5t69 -28.5t29 -69.5t-29 -69.5t-69 -28.5t-69 28.5t-29 69.5zM354 787q0 -17 11 -27.5
t27 -10.5t26.5 11t10.5 27t-10.5 26.5t-26.5 10.5t-27 -10.5t-11 -26.5z" />
    <glyph glyph-name="uring" unicode="&#x16f;" horiz-adv-x="673" 
d="M600 0h-168v61q-64 -70 -165 -70t-150.5 64t-49.5 167v301h168v-273q0 -104 92 -104q71 0 105 65v312h168v-523zM233 670q0 40 28.5 69t69.5 29t69.5 -29t28.5 -69t-28.5 -69t-69.5 -29t-69.5 29t-28.5 69zM293 670q0 -16 10.5 -27t27.5 -11q16 0 26.5 11t10.5 27
t-10.5 26.5t-26.5 10.5t-27 -10.5t-11 -26.5z" />
    <glyph glyph-name="Uhungarumlaut" unicode="&#x170;" horiz-adv-x="784" 
d="M244 680v-377q0 -75 37.5 -116.5t109.5 -41.5q73 0 111.5 42t38.5 116v377h168v-388q0 -128 -84.5 -215.5t-233.5 -87.5t-232 83.5t-83 219.5v388h168zM452 898l-108 -158h-138l80 158h166zM671 898l-106 -158h-139l81 158h164z" />
    <glyph glyph-name="uhungarumlaut" unicode="&#x171;" horiz-adv-x="673" 
d="M600 0h-168v61q-64 -70 -165 -70t-150.5 64t-49.5 167v301h168v-273q0 -104 92 -104q71 0 105 65v312h168v-523zM397 741l-108 -158h-138l80 158h166zM616 741l-106 -158h-139l81 158h164z" />
    <glyph glyph-name="Uogonek" unicode="&#x172;" horiz-adv-x="785" 
d="M244 680v-377q0 -75 37.5 -117.5t109.5 -42.5q73 0 111.5 43t38.5 117v377h168v-388q0 -111 -64 -193t-180 -103q-57 -18 -57 -62q0 -22 12.5 -35t36.5 -13q26 0 53 19l15 -70q-37 -25 -92 -25q-46 0 -74 28t-28 73q0 48 40 79q-140 6 -217.5 88.5t-77.5 213.5v388h168z
" />
    <glyph glyph-name="uogonek" unicode="&#x173;" horiz-adv-x="673" 
d="M600 0h-31q-36 -1 -57 -19.5t-21 -46.5q0 -22 12.5 -35t35.5 -13q26 0 53 19l16 -70q-39 -25 -91 -25q-47 0 -75 28t-28 73q0 60 55 89h-37v61q-64 -70 -165 -70t-150.5 64t-49.5 167v301h168v-273q0 -104 92 -104q71 0 105 65v312h168v-523z" />
    <glyph glyph-name="Wcircumflex" unicode="&#x174;" horiz-adv-x="1104" 
d="M655 0l-101 262l-108 -262h-183l-257 680h181l183 -492l111 273l-80 219h183l160 -464l173 464h184l-263 -680h-183zM611 740l-59 78l-59 -78h-124l102 158h162l101 -158h-123z" />
    <glyph glyph-name="wcircumflex" unicode="&#x175;" horiz-adv-x="1014" 
d="M817 523h181l-181 -523h-203l-107 341l-111 -341h-203l-173 523h181l98 -371l111 371h198l103 -371zM567 583l-59 78l-59 -78h-124l102 158h162l101 -158h-123z" />
    <glyph glyph-name="Ycircumflex" unicode="&#x176;" horiz-adv-x="692" 
d="M262 0v262l-259 406v12h187l156 -263l156 263h187v-12l-259 -405v-263h-168zM404 740l-59 78l-59 -78h-124l102 158h162l101 -158h-123z" />
    <glyph glyph-name="ycircumflex" unicode="&#x177;" horiz-adv-x="618" 
d="M430 523h169l-209 -516q-43 -111 -94 -158t-141 -47q-69 0 -120 35l24 128q52 -27 93 -27q30 0 46.5 14t29.5 44l9 21l-232 506h185l120 -340zM368 583l-59 78l-59 -78h-124l102 158h162l101 -158h-123z" />
    <glyph glyph-name="Ydieresis" unicode="&#x178;" horiz-adv-x="692" 
d="M262 0v262l-259 406v12h187l156 -263l156 263h187v-12l-259 -405v-263h-168zM129 822q0 73 88 73q86 0 86 -73q0 -74 -86 -74q-88 0 -88 74zM387 822q0 73 88 73q86 0 86 -73q0 -74 -86 -74q-88 0 -88 74z" />
    <glyph glyph-name="Zacute" unicode="&#x179;" horiz-adv-x="646" 
d="M53 116l324 418h-324v146h541v-116l-323 -418h323v-146h-541v116zM493 898l-107 -158h-139l81 158h165z" />
    <glyph glyph-name="zacute" unicode="&#x17a;" horiz-adv-x="536" 
d="M52 116l222 276h-222v131h432v-116l-220 -276h220v-131h-432v116zM437 741l-107 -158h-139l81 158h165z" />
    <glyph glyph-name="Zdotaccent" unicode="&#x17b;" horiz-adv-x="646" 
d="M53 116l324 418h-324v146h541v-116l-323 -418h323v-146h-541v116zM238 824q0 77 94 77q92 0 92 -77q0 -79 -92 -79q-94 0 -94 79z" />
    <glyph glyph-name="zdotaccent" unicode="&#x17c;" horiz-adv-x="536" 
d="M52 116l222 276h-222v131h432v-116l-220 -276h220v-131h-432v116zM185 667q0 77 94 77q92 0 92 -77q0 -79 -92 -79q-94 0 -94 79z" />
    <glyph glyph-name="Zcaron" unicode="&#x17d;" horiz-adv-x="646" 
d="M53 116l324 418h-324v146h541v-116l-323 -418h323v-146h-541v116zM269 898l59 -77l59 77h123l-101 -158h-162l-102 158h124z" />
    <glyph glyph-name="zcaron" unicode="&#x17e;" horiz-adv-x="536" 
d="M52 116l222 276h-222v131h432v-116l-220 -276h220v-131h-432v116zM210 741l59 -77l59 77h123l-101 -158h-162l-102 158h124z" />
    <glyph glyph-name="florin" unicode="&#x192;" horiz-adv-x="519" 
d="M465 307h-121v-322q0 -78 -44.5 -130.5t-128.5 -52.5q-31 0 -72.5 8t-64.5 18l24 132q38 -21 69 -21q49 0 49 48v320h-118v77h118v154q0 78 44.5 130t128.5 52q72 0 137 -26l-23 -134q-41 23 -70 23q-49 0 -49 -51v-148h121v-77z" />
    <glyph glyph-name="Aringacute" unicode="&#x1fa;" horiz-adv-x="727" 
d="M3 0l263 680h9q-8 18 -8 38q0 39 28 62t70 23t70 -23t28 -62q0 -22 -9 -38h10l257 -680h-170l-46 125h-285l-47 -125h-170zM365 514l-103 -266h202zM485 907l-72 -87h-100l53 87h119zM327 718q0 -29 38 -29q37 0 37 29q0 28 -37 28q-38 0 -38 -28z" />
    <glyph glyph-name="aringacute" unicode="&#x1fb;" horiz-adv-x="584" 
d="M108 361l-28 135q99 36 207 36q229 0 229 -214v-318h-164v49q-63 -59 -149 -59q-79 0 -122.5 41.5t-43.5 113.5q0 87 64.5 134.5t173.5 47.5q43 0 77 -6q-1 39 -20.5 56t-60.5 17q-83 0 -163 -33zM202 653q0 39 28 62t70 23t70 -23t28 -62t-28 -62.5t-70 -23.5t-70 23.5
t-28 62.5zM201 163q0 -54 66 -54q43 0 85 30v82q-22 5 -45 5q-47 0 -76.5 -16t-29.5 -47zM421 842l-72 -87h-101l54 87h119zM263 653q0 -29 37 -29q38 0 38 29q0 27 -38 27q-37 0 -37 -27z" />
    <glyph glyph-name="AEacute" unicode="&#x1fc;" horiz-adv-x="1066" 
d="M468 0v125h-237l-68 -125h-178l377 680h652v-147h-386v-119h313v-135h-313v-133h386v-146h-546zM293 248h175v324zM839 898l-107 -158h-139l81 158h165z" />
    <glyph glyph-name="aeacute" unicode="&#x1fd;" horiz-adv-x="901" 
d="M846 223h-328q8 -107 131 -107q35 0 74.5 14.5t66.5 34.5l62 -108q-87 -71 -219 -71q-143 0 -198 86q-99 -82 -214 -82q-86 0 -135.5 42t-49.5 113q0 49 23.5 85.5t64 56t85 28.5t94.5 9q22 0 48 -2q0 42 -18.5 57t-66.5 15q-36 0 -82.5 -10.5t-75.5 -24.5l-29 138
q102 35 202 35q80 0 118.5 -20t59.5 -56q72 81 166 81q111 0 171 -62.5t60 -155.5q0 -66 -10 -96zM628 419q-46 0 -74.5 -27.5t-31.5 -71.5h200v10q0 41 -24 65t-70 24zM200 163q0 -54 66 -54q50 0 86 32v88q-16 3 -39 3q-43 0 -78 -15t-35 -54zM633 741l-107 -158h-139
l81 158h165z" />
    <glyph glyph-name="Oslashacute" unicode="&#x1fe;" horiz-adv-x="789" 
d="M564 898l-107 -158h-139l81 158h165zM45 339q0 151 100 251t249 100q106 0 192 -54l36 44h101v-12l-70 -87q92 -100 92 -242q0 -149 -100 -249t-251 -100q-101 0 -183 48l-31 -38h-102v13l64 79q-97 99 -97 247zM207 339q0 -69 38 -120l239 292q-41 22 -90 22
q-81 0 -134 -55.5t-53 -138.5zM581 339q0 64 -33 113l-235 -289q37 -17 81 -17q81 0 134 55.5t53 137.5z" />
    <glyph glyph-name="oslashacute" unicode="&#x1ff;" horiz-adv-x="646" 
d="M492 741l-107 -158h-139l81 158h165zM41 260q0 119 80 198t201 79q88 0 160 -45l26 31h68v-12l-47 -57q76 -78 76 -194q0 -118 -80 -196t-203 -78q-82 0 -149 38l-20 -24h-71v13l41 49q-82 77 -82 198zM203 260q0 -43 23 -75l154 185q-26 14 -58 14q-52 0 -85.5 -35.5
t-33.5 -88.5zM443 260q0 38 -19 68l-150 -181q21 -9 48 -9q54 0 87.5 35.5t33.5 86.5z" />
    <glyph glyph-name="Scommaaccent" unicode="&#x218;" horiz-adv-x="627" 
d="M49 49l39 153q104 -68 215 -68q51 0 80 16.5t29 48.5q0 23 -18 37.5t-59 24.5l-111 30q-173 46 -173 189q0 92 70 150.5t202 58.5q139 0 245 -54l-47 -145q-42 24 -98 39.5t-107 15.5q-94 0 -94 -54q0 -21 14.5 -32.5t47.5 -21.5l121 -35q93 -27 136 -73.5t43 -117.5
q0 -98 -79 -159.5t-206 -61.5q-69 0 -140 18.5t-110 40.5zM249 -264l24 63q-59 14 -59 70q0 35 23 55.5t58 20.5q97 0 97 -89q0 -65 -65 -148z" />
    <glyph glyph-name="scommaaccent" unicode="&#x219;" horiz-adv-x="524" 
d="M468 493l-43 -131q-77 40 -151 40q-56 0 -56 -35q0 -14 8.5 -19.5t33.5 -12.5l81 -22q76 -21 108 -59t32 -95q0 -76 -61.5 -122.5t-164.5 -46.5q-116 0 -206 45l33 130q92 -48 162 -48q68 0 68 32q0 25 -52 38l-74 20q-71 19 -102.5 54.5t-31.5 95.5q0 80 59.5 127.5
t166.5 47.5q50 0 104 -11.5t86 -27.5zM204 -264l24 63q-59 14 -59 70q0 35 23 55.5t58 20.5q97 0 97 -89q0 -65 -65 -148z" />
    <glyph glyph-name="uni021A" unicode="&#x21a;" horiz-adv-x="630" 
d="M605 533h-203v-533h-168v533h-209v147h580v-147zM255 -264l24 63q-59 14 -59 70q0 35 23 55.5t58 20.5q97 0 97 -89q0 -65 -65 -148z" />
    <glyph glyph-name="uni021B" unicode="&#x21b;" horiz-adv-x="519" 
d="M145 656h143v-133h181v-130h-181v-176q0 -44 15 -63t46 -19q49 0 98 36l52 -128q-86 -53 -203 -53q-83 0 -129.5 49.5t-46.5 142.5v211h-89v130h94zM226 -264l24 63q-59 14 -59 70q0 35 23 55.5t58 20.5q97 0 97 -89q0 -65 -65 -148z" />
    <glyph glyph-name="dotlessj" unicode="&#x237;" horiz-adv-x="315" 
d="M94 -197l-101 96q81 53 81 146v478h168v-465q0 -172 -148 -255z" />
    <glyph glyph-name="circumflex" unicode="&#x2c6;" 
d="M366 583l-59 78l-59 -78h-124l102 158h162l101 -158h-123z" />
    <glyph glyph-name="caron" unicode="&#x2c7;" 
d="M248 741l59 -77l59 77h123l-101 -158h-162l-102 158h124z" />
    <glyph glyph-name="breve" unicode="&#x2d8;" 
d="M154 672l40 60q40 -46 113 -46t113 46l40 -60q-48 -86 -152 -86t-154 86z" />
    <glyph glyph-name="dotaccent" unicode="&#x2d9;" 
d="M214 667q0 77 94 77q92 0 92 -77q0 -79 -92 -79q-94 0 -94 79z" />
    <glyph glyph-name="ring" unicode="&#x2da;" 
d="M209 630q0 40 28.5 69t69.5 29t69.5 -29t28.5 -69t-28.5 -69t-69.5 -29t-69.5 29t-28.5 69zM269 630q0 -16 10.5 -27t27.5 -11q16 0 26.5 11t10.5 27t-10.5 26.5t-26.5 10.5t-27 -10.5t-11 -26.5z" />
    <glyph glyph-name="ogonek" unicode="&#x2db;" 
d="M279 8l83 -8q-37 -1 -59.5 -19t-22.5 -47q0 -22 12.5 -35t35.5 -13q26 0 53 19l16 -70q-39 -25 -91 -25q-48 0 -75.5 28t-27.5 73q0 36 22.5 62.5t53.5 34.5z" />
    <glyph glyph-name="tilde" unicode="&#x2dc;" 
d="M159 594l-46 56q17 39 48.5 64.5t67.5 25.5q39 0 87.5 -29t68.5 -29q44 0 68 44l48 -55q-46 -90 -117 -90q-36 0 -86 28.5t-68 28.5q-42 0 -71 -44z" />
    <glyph glyph-name="hungarumlaut" unicode="&#x2dd;" 
d="M320 741l-108 -158h-138l80 158h166zM539 741l-106 -158h-139l81 158h164z" />
    <glyph glyph-name="uni0394" unicode="&#x394;" horiz-adv-x="727" 
d="M5 0l262 680h198l257 -680h-717zM365 514l-149 -390h295z" />
    <glyph glyph-name="uni03A9" unicode="&#x3a9;" horiz-adv-x="802" 
d="M452 0v127q62 31 99 87t37 125q0 84 -51 139t-137 55q-85 0 -135.5 -55t-50.5 -139q0 -139 134 -212v-127h-278v130h103q-54 34 -88 98.5t-34 142.5q0 130 99 224.5t250 94.5q152 0 251.5 -94.5t99.5 -224.5q0 -78 -34 -142.5t-88 -98.5h102v-130h-279z" />
    <glyph glyph-name="uni03BC" unicode="&#x3bc;" horiz-adv-x="665" 
d="M241 523v-247q0 -75 18 -104t70 -29q62 0 95 49v331h168v-523h-168v45q-60 -55 -159 -55q-5 0 -12.5 0.5t-11.5 0.5v-179h-168v711h168z" />
    <glyph glyph-name="pi" unicode="&#x3c0;" horiz-adv-x="759" 
d="M31 523h684v-130h-106v-214q0 -48 32 -48q31 0 50 14l6 -133q-2 -2 -19 -7t-47 -10t-59 -5q-131 0 -131 148v255h-136v-393h-168v393h-106v130z" />
    <glyph glyph-name="Wgrave" unicode="&#x1e80;" horiz-adv-x="1104" 
d="M655 0l-101 262l-108 -262h-183l-257 680h181l183 -492l111 273l-80 219h183l160 -464l173 464h184l-263 -680h-183zM496 740l-107 158h165l81 -158h-139z" />
    <glyph glyph-name="wgrave" unicode="&#x1e81;" horiz-adv-x="1014" 
d="M817 523h181l-181 -523h-203l-107 341l-111 -341h-203l-173 523h181l98 -371l111 371h198l103 -371zM446 583l-107 158h165l81 -158h-139z" />
    <glyph glyph-name="Wacute" unicode="&#x1e82;" horiz-adv-x="1104" 
d="M655 0l-101 262l-108 -262h-183l-257 680h181l183 -492l111 273l-80 219h183l160 -464l173 464h184l-263 -680h-183zM720 898l-107 -158h-139l81 158h165z" />
    <glyph glyph-name="wacute" unicode="&#x1e83;" horiz-adv-x="1014" 
d="M817 523h181l-181 -523h-203l-107 341l-111 -341h-203l-173 523h181l98 -371l111 371h198l103 -371zM682 741l-107 -158h-139l81 158h165z" />
    <glyph glyph-name="Wdieresis" unicode="&#x1e84;" horiz-adv-x="1104" 
d="M655 0l-101 262l-108 -262h-183l-257 680h181l183 -492l111 273l-80 219h183l160 -464l173 464h184l-263 -680h-183zM336 822q0 73 88 73q86 0 86 -73q0 -74 -86 -74q-88 0 -88 74zM594 822q0 73 88 73q86 0 86 -73q0 -74 -86 -74q-88 0 -88 74z" />
    <glyph glyph-name="wdieresis" unicode="&#x1e85;" horiz-adv-x="1014" 
d="M817 523h181l-181 -523h-203l-107 341l-111 -341h-203l-173 523h181l98 -371l111 371h198l103 -371zM292 665q0 73 88 73q86 0 86 -73q0 -74 -86 -74q-88 0 -88 74zM550 665q0 73 88 73q86 0 86 -73q0 -74 -86 -74q-88 0 -88 74z" />
    <glyph glyph-name="Ygrave" unicode="&#x1ef2;" horiz-adv-x="692" 
d="M262 0v262l-259 406v12h187l156 -263l156 263h187v-12l-259 -405v-263h-168zM282 740l-107 158h165l81 -158h-139z" />
    <glyph glyph-name="ygrave" unicode="&#x1ef3;" horiz-adv-x="618" 
d="M430 523h169l-209 -516q-43 -111 -94 -158t-141 -47q-69 0 -120 35l24 128q52 -27 93 -27q30 0 46.5 14t29.5 44l9 21l-232 506h185l120 -340zM245 583l-107 158h165l81 -158h-139z" />
    <glyph glyph-name="endash" unicode="&#x2013;" horiz-adv-x="637" 
d="M64 368h509v-131h-509v131z" />
    <glyph glyph-name="emdash" unicode="&#x2014;" horiz-adv-x="892" 
d="M64 368h763v-131h-763v131z" />
    <glyph glyph-name="quoteleft" unicode="&#x2018;" horiz-adv-x="293" 
d="M225 652l-42 -124q60 -20 60 -91q0 -47 -25.5 -72.5t-71.5 -25.5t-72 26t-26 72q0 56 26 128t58 125z" />
    <glyph glyph-name="quoteright" unicode="&#x2019;" horiz-adv-x="290" 
d="M68 375l42 125q-60 18 -60 90q0 47 25.5 73t71.5 26t72.5 -26.5t26.5 -72.5q0 -55 -26 -126t-59 -126z" />
    <glyph glyph-name="quotesinglbase" unicode="&#x201a;" horiz-adv-x="302" 
d="M70 -136l42 125q-60 18 -60 90q0 47 25.5 73t71.5 26t72.5 -26.5t26.5 -72.5q0 -55 -26 -126t-59 -126z" />
    <glyph glyph-name="quotedblleft" unicode="&#x201c;" horiz-adv-x="501" 
d="M435 658l-38 -114q53 -15 53 -79q0 -41 -22 -64t-62 -23q-41 0 -64 23.5t-23 63.5q0 50 23.5 113.5t52.5 111.5zM204 658l-38 -114q54 -15 54 -79q0 -41 -22.5 -64t-63.5 -23q-40 0 -63 23.5t-23 63.5q0 50 23.5 114.5t52.5 110.5z" />
    <glyph glyph-name="quotedblright" unicode="&#x201d;" horiz-adv-x="499" 
d="M67 410l37 114q-53 15 -53 79q0 41 22.5 63.5t62.5 22.5t63 -23t23 -63q0 -50 -23.5 -115t-51.5 -110zM298 410l37 114q-53 15 -53 79q0 41 22.5 63.5t62.5 22.5q41 0 64 -23t23 -63q0 -50 -23.5 -114.5t-52.5 -110.5z" />
    <glyph glyph-name="quotedblbase" unicode="&#x201e;" horiz-adv-x="509" 
d="M69 -141l38 114q-53 13 -53 79q0 41 22 64t63 23q40 0 63 -23.5t23 -63.5q0 -50 -23.5 -114.5t-52.5 -110.5zM300 -141l38 114q-54 13 -54 79q0 41 22.5 64t63.5 23q40 0 63 -23.5t23 -63.5q0 -50 -23.5 -114.5t-52.5 -110.5z" />
    <glyph glyph-name="dagger" unicode="&#x2020;" horiz-adv-x="599" 
d="M569 338h-204v-526h-131v526h-203v131h203v241h131v-241h204v-131z" />
    <glyph glyph-name="daggerdbl" unicode="&#x2021;" horiz-adv-x="630" 
d="M584 38h-203v-226h-131v226h-204v131h204v169h-204v131h204v241h131v-241h203v-131h-203v-169h203v-131z" />
    <glyph glyph-name="bullet" unicode="&#x2022;" horiz-adv-x="429" 
d="M78 302q0 65 36 101.5t100 36.5q65 0 101 -36.5t36 -101.5q0 -66 -36 -102t-101 -36t-100.5 36t-35.5 102z" />
    <glyph glyph-name="ellipsis" unicode="&#x2026;" horiz-adv-x="836" 
d="M53 72q0 42 24 65t67 23t67 -23t24 -65t-24 -64.5t-67 -22.5q-44 0 -67.5 22.5t-23.5 64.5zM327 72q0 42 24 65t67 23t67 -23t24 -65t-24 -64.5t-67 -22.5q-44 0 -67.5 22.5t-23.5 64.5zM601 72q0 42 24 65t67 23t67 -23t24 -65t-24 -64.5t-67 -22.5q-44 0 -67.5 22.5
t-23.5 64.5z" />
    <glyph glyph-name="perthousand" unicode="&#x2030;" horiz-adv-x="1326" 
d="M913 175q0 80 54 133.5t136 53.5t136 -53.5t54 -133.5t-54 -132.5t-136 -52.5t-136 52.5t-54 132.5zM1029 175q0 -31 21 -53t53 -22t52.5 21.5t20.5 53.5t-20.5 54t-52.5 22t-53 -22t-21 -54zM499 175q0 80 54 133.5t135 53.5q82 0 136.5 -53.5t54.5 -133.5t-54.5 -132.5
t-136.5 -52.5t-135.5 52.5t-53.5 132.5zM614 175q0 -31 21 -53t53 -22t53 22t21 53q0 32 -21 54t-53 22t-53 -22t-21 -54zM218 13l357 667h113v-12l-355 -668h-115v13zM34 503q0 80 53.5 133.5t135.5 53.5t136.5 -53.5t54.5 -133.5t-54.5 -132.5t-136.5 -52.5t-135.5 52.5
t-53.5 132.5zM149 503q0 -31 21 -53t53 -22t53 22t21 53q0 32 -21 54t-53 22t-53 -22t-21 -54z" />
    <glyph glyph-name="guilsinglleft" unicode="&#x2039;" horiz-adv-x="326" 
d="M41 286v31l164 207h11l61 -29l-96 -193l96 -193l-61 -30h-11z" />
    <glyph glyph-name="guilsinglright" unicode="&#x203a;" horiz-adv-x="326" 
d="M284 317v-31l-162 -207h-13l-60 29l96 194l-97 192l61 30h13z" />
    <glyph glyph-name="fraction" unicode="&#x2044;" horiz-adv-x="132" 
d="M-162 13l369 667h88v-12l-368 -668h-89v13z" />
    <glyph glyph-name="zerosuperior" unicode="&#x2070;" horiz-adv-x="377" 
d="M34 611q0 84 39.5 131.5t114.5 47.5t115 -47t40 -132q0 -83 -40 -130.5t-115 -47.5t-114.5 47.5t-39.5 130.5zM122 611q0 -94 66 -94t66 94q0 96 -66 96t-66 -96z" />
    <glyph glyph-name="foursuperior" unicode="&#x2074;" horiz-adv-x="371" 
d="M346 497h-54v-59h-92v59h-180v59l150 228h122v-219h54v-68zM111 565h89v136z" />
    <glyph glyph-name="fivesuperior" unicode="&#x2075;" horiz-adv-x="333" 
d="M49 586l-4 4l16 194h227v-79h-150l-4 -52h20q145 0 145 -99q0 -60 -40 -90.5t-112 -30.5q-61 0 -121 22l23 75q45 -20 92 -20q65 0 65 42q0 34 -58 34h-99z" />
    <glyph glyph-name="sixsuperior" unicode="&#x2076;" horiz-adv-x="365" 
d="M206 713q-72 0 -80 -76q36 28 82 28q62 0 94 -28t32 -79q0 -57 -38.5 -91t-100.5 -34q-77 0 -119 48.5t-42 130.5t42 130t120 48q65 0 122 -24l-24 -74q-47 21 -88 21zM193 598q-33 0 -65 -21q12 -60 67 -60q22 0 35.5 12t13.5 29q0 40 -51 40z" />
    <glyph glyph-name="sevensuperior" unicode="&#x2077;" horiz-adv-x="306" 
d="M55 447l131 258h-162v79h264v-62l-133 -284h-100v9z" />
    <glyph glyph-name="eightsuperior" unicode="&#x2078;" horiz-adv-x="371" 
d="M185 433q-74 0 -112.5 27.5t-38.5 73.5q0 69 73 85q-28 7 -44.5 27t-16.5 45q0 99 139 99q140 0 140 -99q0 -25 -16.5 -45t-44.5 -27q73 -17 73 -85q0 -46 -39 -73.5t-113 -27.5zM185 587q-29 0 -44 -11t-15 -28q0 -18 16 -30t43 -12q28 0 43.5 12t15.5 30q0 39 -59 39z
M185 718q-23 0 -36 -9.5t-13 -25.5q0 -15 12.5 -25.5t36.5 -10.5q49 0 49 36q0 35 -49 35z" />
    <glyph glyph-name="ninesuperior" unicode="&#x2079;" horiz-adv-x="365" 
d="M158 510q71 0 79 74q-33 -27 -80 -27q-62 0 -94 28t-32 79q0 57 39 91.5t100 34.5q77 0 119 -48.5t42 -130.5q0 -81 -42.5 -129.5t-119.5 -48.5q-65 0 -122 24l24 75q40 -22 87 -22zM170 625q33 0 66 20q-12 62 -66 62q-22 0 -35 -12.5t-13 -30.5q0 -39 48 -39z" />
    <glyph glyph-name="zeroinferior" unicode="&#x2080;" horiz-adv-x="377" 
d="M34 73q0 84 39.5 131.5t114.5 47.5t115 -47.5t40 -131.5t-40 -131t-115 -47t-114.5 47t-39.5 131zM122 73q0 -94 66 -94t66 94q0 95 -66 95t-66 -95z" />
    <glyph glyph-name="oneinferior" unicode="&#x2081;" horiz-adv-x="281" 
d="M10 159l152 87h66v-346h-92v242l-90 -51z" />
    <glyph glyph-name="twoinferior" unicode="&#x2082;" horiz-adv-x="349" 
d="M41 -100v68l128 96q43 31 43 65q0 17 -11.5 28t-31.5 11q-56 0 -56 -60l-83 16q2 59 38.5 93.5t101.5 34.5q67 0 101.5 -32.5t34.5 -87.5q0 -65 -74 -116l-53 -36h135v-80h-273z" />
    <glyph glyph-name="threeinferior" unicode="&#x2083;" horiz-adv-x="336" 
d="M74 113h76q48 0 48 31q0 30 -52 30q-45 0 -97 -19l-20 77q55 20 117 20q145 0 145 -99q0 -25 -16.5 -45t-44.5 -27q72 -18 72 -86q0 -47 -39.5 -73.5t-116.5 -26.5q-53 0 -116 20l23 75q44 -18 93 -18q29 0 45.5 10.5t16.5 27.5q0 30 -58 30h-76v73z" />
    <glyph glyph-name="fourinferior" unicode="&#x2084;" horiz-adv-x="371" 
d="M346 -41h-54v-59h-92v59h-180v59l150 228h122v-220h54v-67zM111 26h89v137z" />
    <glyph glyph-name="fiveinferior" unicode="&#x2085;" horiz-adv-x="333" 
d="M49 48l-4 4l16 194h227v-79h-150l-4 -52h19q146 0 146 -100q0 -59 -40 -89.5t-112 -30.5q-64 0 -121 22l22 74q45 -19 93 -19q29 0 47 10.5t18 30.5q0 35 -58 35h-99z" />
    <glyph glyph-name="sixinferior" unicode="&#x2086;" horiz-adv-x="363" 
d="M206 174q-72 0 -80 -75q36 28 81 28q62 0 94.5 -28t32.5 -80q0 -56 -39 -90t-101 -34q-77 0 -119 48.5t-42 130.5q0 81 42.5 129.5t119.5 48.5q63 0 123 -24l-24 -75q-44 21 -88 21zM193 60q-33 0 -65 -21q10 -61 66 -61q23 0 36 12t13 29q0 41 -50 41z" />
    <glyph glyph-name="seveninferior" unicode="&#x2087;" horiz-adv-x="306" 
d="M55 -92l131 259h-162v79h264v-62l-133 -284h-100v8z" />
    <glyph glyph-name="eightinferior" unicode="&#x2088;" horiz-adv-x="370" 
d="M185 -105q-75 0 -113.5 27t-38.5 73q0 69 73 86q-28 7 -44.5 27t-16.5 45q0 99 140 99q139 0 139 -99q0 -25 -16.5 -45t-44.5 -27q73 -16 73 -86q0 -46 -38.5 -73t-112.5 -27zM185 49q-30 0 -44.5 -11t-14.5 -28q0 -18 16 -30.5t43 -12.5t43 12.5t16 30.5q0 16 -15 27.5
t-44 11.5zM185 180q-23 0 -36 -9.5t-13 -25.5q0 -36 49 -36t49 36q0 35 -49 35z" />
    <glyph glyph-name="nineinferior" unicode="&#x2089;" horiz-adv-x="364" 
d="M158 -28q71 0 79 74q-33 -27 -80 -27q-62 0 -94 28t-32 79q0 57 39 91.5t100 34.5q77 0 119 -48.5t42 -130.5t-42.5 -130t-119.5 -48q-65 0 -122 24l24 74q42 -21 87 -21zM170 87q33 0 66 20q-12 61 -66 61q-22 0 -35 -12t-13 -30q0 -39 48 -39z" />
    <glyph glyph-name="Euro" unicode="&#x20ac;" horiz-adv-x="624" 
d="M580 605l-59 -125q-54 57 -124 57q-95 0 -122 -107h223l-35 -76h-197v-15q0 -21 1 -30h177l-31 -76h-134q27 -90 113 -90q68 0 131 48l61 -138q-88 -63 -205 -63q-110 0 -182 63t-94 180h-55v76h47q-1 10 -1 30v15h-46v76h52q20 125 93.5 192.5t188.5 67.5q113 0 198 -85
z" />
    <glyph glyph-name="afii61289" unicode="&#x2113;" horiz-adv-x="438" 
d="M61 122l-30 54l78 54v258q0 102 44.5 151.5t121.5 49.5q130 0 130 -141q0 -101 -47 -188t-118 -148v-37q0 -43 15 -59t47 -16q28 0 65 21l-6 -111q-43 -20 -119 -20q-133 0 -133 136v28zM240 509v-216q95 95 95 257q0 66 -45 66q-50 0 -50 -107z" />
    <glyph glyph-name="uni2117" unicode="&#x2117;" horiz-adv-x="794" 
d="M47 339q0 151 100 251t249 100q151 0 251 -100t100 -251q0 -149 -100 -249t-251 -100q-149 0 -249 100t-100 249zM120 339q0 -120 78 -199.5t198 -79.5t198.5 79.5t78.5 199.5q0 121 -78.5 201t-198.5 80t-198 -80t-78 -201zM277 169v340h176q55 0 91 -33t36 -95
q0 -57 -36.5 -91.5t-90.5 -34.5h-65v-86h-111zM437 416h-49v-68h49q14 0 23 9.5t9 24.5t-9 24.5t-23 9.5z" />
    <glyph glyph-name="trademark" unicode="&#x2122;" horiz-adv-x="830" 
d="M665 357v166l-82 -98h-15l-81 98v-166h-89v306h74l104 -121l104 121h74v-306h-89zM326 574h-86v-217h-89v217h-86v89h261v-89z" />
    <glyph glyph-name="Omega" unicode="&#x2126;" horiz-adv-x="805" 
d="M453 0v127q62 31 99 87t37 125q0 84 -51 139t-137 55q-85 0 -135.5 -55t-50.5 -139q0 -138 134 -212v-127h-278v130h103q-54 34 -88 98.5t-34 142.5q0 130 99 224.5t250 94.5q153 0 252 -94.5t99 -224.5q0 -78 -34 -142.5t-88 -98.5h102v-130h-279z" />
    <glyph glyph-name="estimated" unicode="&#x212e;" horiz-adv-x="652" 
d="M331 601q71 0 126 -25.5t87.5 -69.5t49 -98t16.5 -114v-26h-431v-169q58 -58 152 -58q130 0 184 104h66q-30 -73 -93 -115t-157 -42q-93 0 -157.5 45t-92.5 112.5t-28 148.5q0 82 28 149.5t92.5 112.5t157.5 45zM331 548q-96 0 -152 -58v-170h305v170q-56 58 -153 58z
" />
    <glyph glyph-name="onethird" unicode="&#x2153;" horiz-adv-x="830" 
d="M156 13l369 667h88v-12l-368 -668h-89v13zM28 594l151 86h66v-346h-91v243l-91 -51zM560 209h76q48 0 48 31q0 30 -52 30q-45 0 -97 -19l-20 77q55 20 117 20q145 0 145 -99q0 -25 -16.5 -45t-44.5 -27q72 -18 72 -86q0 -47 -39.5 -73.5t-116.5 -26.5q-53 0 -116 20
l23 75q44 -18 93 -18q29 0 45.5 10.5t16.5 27.5q0 30 -58 30h-76v73z" />
    <glyph glyph-name="twothirds" unicode="&#x2154;" horiz-adv-x="875" 
d="M208 13l369 667h88v-12l-368 -668h-89v13zM613 209h76q48 0 48 31q0 30 -52 30q-45 0 -97 -19l-20 77q55 20 117 20q145 0 145 -99q0 -25 -16.5 -45t-44.5 -27q72 -18 72 -86q0 -47 -39.5 -73.5t-116.5 -26.5q-53 0 -116 20l23 75q44 -18 93 -18q29 0 45.5 10.5
t16.5 27.5q0 30 -58 30h-76v73zM50 338v68l128 96q43 32 43 65q0 17 -11.5 28.5t-31.5 11.5q-28 0 -42.5 -16.5t-14.5 -43.5l-83 15q2 60 39 94t102 34q67 0 101.5 -32.5t34.5 -86.5q0 -66 -74 -116l-53 -37h135v-80h-273z" />
    <glyph glyph-name="oneeighth" unicode="&#x215b;" horiz-adv-x="830" 
d="M155 13l369 667h88v-12l-368 -668h-89v13zM636 -5q-75 0 -113.5 27t-38.5 73q0 69 73 86q-28 7 -44.5 27t-16.5 45q0 99 140 99q139 0 139 -99q0 -25 -16.5 -45t-44.5 -27q73 -16 73 -86q0 -46 -38.5 -73t-112.5 -27zM636 149q-30 0 -44.5 -11t-14.5 -28q0 -18 16 -30.5
t43 -12.5t43 12.5t16 30.5q0 16 -15 27.5t-44 11.5zM636 280q-23 0 -36 -9.5t-13 -25.5q0 -36 49 -36t49 36q0 35 -49 35zM28 598l151 86h66v-346h-91v243l-91 -51z" />
    <glyph glyph-name="threeeighths" unicode="&#x215c;" horiz-adv-x="861" 
d="M194 13l369 667h88v-12l-368 -668h-89v13zM675 -5q-75 0 -113.5 27t-38.5 73q0 69 73 86q-28 7 -44.5 27t-16.5 45q0 99 140 99q139 0 139 -99q0 -25 -16.5 -45t-44.5 -27q73 -16 73 -86q0 -46 -38.5 -73t-112.5 -27zM675 149q-30 0 -44.5 -11t-14.5 -28q0 -18 16 -30.5
t43 -12.5t43 12.5t16 30.5q0 16 -15 27.5t-44 11.5zM675 280q-23 0 -36 -9.5t-13 -25.5q0 -36 49 -36t49 36q0 35 -49 35zM82 551h76q48 0 48 31q0 30 -52 30q-49 0 -97 -19l-20 78q52 19 117 19q145 0 145 -99q0 -25 -16.5 -45t-44.5 -27q72 -18 72 -85q0 -47 -39.5 -74
t-116.5 -27q-53 0 -116 20l23 76q46 -19 93 -19q29 0 45.5 10.5t16.5 27.5q0 31 -58 31h-76v72z" />
    <glyph glyph-name="fiveeighths" unicode="&#x215d;" horiz-adv-x="857" 
d="M190 13l369 667h88v-12l-368 -668h-89v13zM671 -5q-75 0 -113.5 27t-38.5 73q0 69 73 86q-28 7 -44.5 27t-16.5 45q0 99 140 99q139 0 139 -99q0 -25 -16.5 -45t-44.5 -27q73 -16 73 -86q0 -46 -38.5 -73t-112.5 -27zM671 149q-30 0 -44.5 -11t-14.5 -28q0 -18 16 -30.5
t43 -12.5t43 12.5t16 30.5q0 16 -15 27.5t-44 11.5zM671 280q-23 0 -36 -9.5t-13 -25.5q0 -36 49 -36t49 36q0 35 -49 35zM57 486l-4 4l16 194h227v-79h-150l-4 -52h20q145 0 145 -99q0 -60 -40 -90.5t-112 -30.5q-61 0 -121 22l23 75q45 -20 92 -20q65 0 65 42q0 34 -58 34
h-99z" />
    <glyph glyph-name="seveneighths" unicode="&#x215e;" horiz-adv-x="816" 
d="M148 13l369 667h88v-12l-368 -668h-89v13zM629 -5q-75 0 -113.5 27t-38.5 73q0 69 73 86q-28 7 -44.5 27t-16.5 45q0 99 140 99q139 0 139 -99q0 -25 -16.5 -45t-44.5 -27q73 -16 73 -86q0 -46 -38.5 -73t-112.5 -27zM629 149q-30 0 -44.5 -11t-14.5 -28q0 -18 16 -30.5
t43 -12.5t43 12.5t16 30.5q0 16 -15 27.5t-44 11.5zM629 280q-23 0 -36 -9.5t-13 -25.5q0 -36 49 -36t49 36q0 35 -49 35zM65 347l131 258h-162v79h264v-62l-133 -284h-100v9z" />
    <glyph glyph-name="arrowleft" unicode="&#x2190;" horiz-adv-x="716" 
d="M269 356h388v-120h-387l133 -128l-79 -82l-265 272l262 269l82 -85z" />
    <glyph glyph-name="arrowup" unicode="&#x2191;" horiz-adv-x="716" 
d="M417 384v-387h-120v386l-128 -133l-82 80l272 264l269 -262l-85 -82z" />
    <glyph glyph-name="arrowright" unicode="&#x2192;" horiz-adv-x="716" 
d="M447 236h-388v120h387l-134 128l80 83l265 -273l-262 -268l-83 84z" />
    <glyph glyph-name="arrowdown" unicode="&#x2193;" horiz-adv-x="716" 
d="M297 206v388h120v-386l128 133l83 -79l-273 -265l-268 262l84 82z" />
    <glyph glyph-name="uni2196" unicode="&#x2196;" horiz-adv-x="716" 
d="M337 402l274 -275l-84 -85l-274 273l5 -184l-116 -2l5 380l376 5l-1 -119z" />
    <glyph glyph-name="uni2197" unicode="&#x2197;" horiz-adv-x="716" 
d="M463 316l-275 -274l-85 84l273 274l-184 -4q0 19 -0.5 57.5t-0.5 57.5l379 -5l5 -376l-118 2z" />
    <glyph glyph-name="uni2198" unicode="&#x2198;" horiz-adv-x="716" 
d="M379 191l-274 274l84 85l273 -273l-4 184l115 2l-5 -380l-376 -4l2 118z" />
    <glyph glyph-name="uni2199" unicode="&#x2199;" horiz-adv-x="716" 
d="M252 275l274 273l85 -83l-273 -274l184 4l2 -115l-380 5l-4 376l118 -2z" />
    <glyph glyph-name="partialdiff" unicode="&#x2202;" horiz-adv-x="614" 
d="M245 450q78 0 145 -53q-15 83 -70.5 139t-122.5 80l66 104q124 -22 212.5 -126t88.5 -253q0 -161 -74 -256t-210 -95q-109 0 -177.5 66.5t-68.5 178.5q0 94 56 154.5t155 60.5zM286 143q89 0 106 130q-53 47 -106 47q-40 0 -62.5 -23t-22.5 -64q0 -38 22.5 -64t62.5 -26z
" />
    <glyph glyph-name="Delta" unicode="&#x2206;" horiz-adv-x="771" 
d="M27 0l263 680h197l257 -680h-717zM388 514l-149 -390h294z" />
    <glyph glyph-name="product" unicode="&#x220f;" horiz-adv-x="733" 
d="M242 -188h-159v868h567v-868h-159v721h-249v-721z" />
    <glyph glyph-name="summation" unicode="&#x2211;" horiz-adv-x="565" 
d="M55 0v88l174 253l-176 254v85h458v-131h-257l138 -209l-136 -209h255v-131h-456z" />
    <glyph glyph-name="minus" unicode="&#x2212;" horiz-adv-x="626" 
d="M70 368h486v-131h-486v131z" />
    <glyph glyph-name="uni2215" unicode="&#x2215;" horiz-adv-x="443" 
d="M-7 13l369 667h88v-12l-368 -668h-89v13z" />
    <glyph glyph-name="uni2219" unicode="&#x2219;" horiz-adv-x="312" 
d="M56 294q0 46 26 71.5t73 25.5t73.5 -25.5t26.5 -71.5t-26.5 -70.5t-73.5 -24.5t-73 24.5t-26 70.5z" />
    <glyph glyph-name="radical" unicode="&#x221a;" horiz-adv-x="644" 
d="M225 484l146 -298l171 528l89 -30l-225 -684h-106l-148 303l-93 -45l-55 110z" />
    <glyph glyph-name="infinity" unicode="&#x221e;" horiz-adv-x="804" 
d="M172 301q0 -30 16.5 -46.5t41.5 -16.5q24 0 58 31l34 32l-34 31q-34 31 -58 31q-25 0 -41.5 -16t-16.5 -46zM402 231l-42 -38q-39 -35 -72 -50.5t-76 -15.5q-65 0 -110.5 47t-45.5 127t45.5 127t110.5 47q43 0 76.5 -15.5t71.5 -50.5l41 -38l43 38q40 35 73 50.5t76 15.5
q65 0 110.5 -47.5t45.5 -126.5t-45.5 -126.5t-110.5 -47.5q-44 0 -77 15.5t-72 50.5zM631 301q0 30 -16.5 46t-41.5 16q-24 0 -58 -31l-34 -31l34 -32q36 -31 58 -31q25 0 41.5 16.5t16.5 46.5z" />
    <glyph glyph-name="integral" unicode="&#x222b;" horiz-adv-x="465" 
d="M148 -13v551q0 78 45 130t128 52q74 0 137 -26l-23 -134q-41 23 -69 23q-50 0 -50 -51v-547q0 -78 -44.5 -130.5t-127.5 -52.5q-32 0 -73 8t-64 18l23 132q38 -21 69 -21q49 0 49 48z" />
    <glyph glyph-name="approxequal" unicode="&#x2248;" horiz-adv-x="633" 
d="M529 510l37 -99q-44 -69 -133 -69q-41 0 -118 23t-110 23q-68 0 -101 -38l-36 105q44 65 130 65q47 0 126 -23.5t104 -23.5q65 0 101 37zM528 245l37 -100q-45 -69 -133 -69q-41 0 -118.5 23.5t-110.5 23.5q-67 0 -101 -38l-36 104q44 65 131 65q46 0 125 -23t104 -23
q66 0 102 37z" />
    <glyph glyph-name="notequal" unicode="&#x2260;" horiz-adv-x="619" 
d="M158 32l24 66h-116v131h163l53 147h-216v131h263l38 104l86 -30l-27 -74h126v-131h-174l-53 -147h227v-131h-275l-34 -95z" />
    <glyph glyph-name="lessequal" unicode="&#x2264;" horiz-adv-x="630" 
d="M67 171h486v-131h-486v131zM67 352v128l475 149h12v-119l-333 -92l333 -89v-121h-12z" />
    <glyph glyph-name="greaterequal" unicode="&#x2265;" horiz-adv-x="629" 
d="M76 171h486v-131h-486v131zM562 480v-128l-475 -144h-11v121l332 89l-332 92v119h11z" />
    <glyph glyph-name="lozenge" unicode="&#x25ca;" horiz-adv-x="588" 
d="M553 333l-208 -333h-104l-207 333l207 347h104zM413 332l-119 201l-119 -201l119 -191z" />
    <glyph glyph-name="commaaccent" unicode="&#xf6c3;" 
d="M247 -264l24 63q-59 14 -59 70q0 35 23 55.5t58 20.5q97 0 97 -89q0 -65 -65 -148z" />
    <glyph glyph-name="uniF8FF" unicode="&#xf8ff;" horiz-adv-x="669" 
d="M79 720h512v-720h-512v720zM295 283h48q0 32 21.5 57.5t46.5 40.5t46.5 41t21.5 58q0 51 -36.5 85t-101.5 34q-39 0 -67 -14.5t-41.5 -37t-19 -43.5t-5.5 -41h47q0 40 21 66.5t65 26.5q41 0 64 -21.5t23 -54.5q0 -23 -21 -45t-45.5 -38t-45.5 -46t-21 -68zM284 194v-71
h68v71h-68z" />
    <glyph glyph-name="fi" unicode="&#xfb01;" horiz-adv-x="781" 
d="M436 371h-142v-371h-168v371h-90v130h90v29q0 82 47.5 136t139.5 54q73 0 136 -25l-29 -134q-42 22 -78 22q-48 0 -48 -54v-28h142v-130zM531 667q0 77 94 77q93 0 93 -77q0 -79 -93 -79q-94 0 -94 79zM540 0v523h168v-523h-168z" />
    <glyph glyph-name="fl" unicode="&#xfb02;" horiz-adv-x="816" 
d="M436 371h-142v-371h-168v371h-90v130h90v29q0 82 47.5 136t139.5 54q73 0 136 -25l-29 -134q-42 22 -78 22q-48 0 -48 -54v-28h142v-130zM537 710h168v-528q0 -51 36 -51q22 0 52 14l7 -133q-61 -22 -127 -22q-136 0 -136 150v570z" />
    <glyph glyph-name="commaaccent.alt" 
d="M351 762l-24 -64q60 -12 60 -70q0 -35 -23 -55t-59 -20q-97 0 -97 89q0 67 65 148z" />
    <glyph glyph-name="zero.tf" 
d="M29 339q0 164 69.5 257.5t199.5 93.5q132 0 202 -93t70 -258q0 -163 -70 -256t-202 -93q-129 0 -199 93t-70 256zM192 339q0 -195 106 -195q108 0 108 195q0 92 -24 145t-84 53q-106 0 -106 -198z" />
    <glyph glyph-name="one.tf" 
d="M573 0h-512v146h190v351l-146 -71l-57 133l248 121h123v-534h154v-146z" />
    <glyph glyph-name="two.tf" 
d="M57 0v125l234 191q75 64 75 135q0 37 -19.5 61.5t-56.5 24.5q-51 0 -76 -33.5t-25 -90.5l-152 29q2 114 70 181t186 67q120 0 183 -62t63 -162q0 -66 -27.5 -121t-95.5 -110l-114 -89h252v-146h-497z" />
    <glyph glyph-name="three.tf" 
d="M126 415h144q95 0 95 67q0 64 -111 64q-82 0 -182 -37l-38 142q38 14 102.5 26.5t122.5 12.5q276 0 276 -191q0 -50 -32.5 -90t-87.5 -54q144 -33 144 -168q0 -92 -75.5 -144.5t-224.5 -52.5q-95 0 -222 40l40 139q90 -37 182 -37q60 0 93.5 21.5t33.5 59.5q0 36 -28 52
t-88 16h-144v134z" />
    <glyph glyph-name="four.tf" 
d="M564 120h-73v-120h-168v120h-306v108l252 452h222v-437h73v-123zM168 243h155v270z" />
    <glyph glyph-name="five.tf" 
d="M78 298l-7 7l32 375h427v-146h-286l-9 -113h42q274 0 274 -195q0 -117 -76.5 -176.5t-210.5 -59.5q-112 0 -228 43l41 138q88 -39 178 -39q57 0 90.5 23t33.5 67q0 76 -113 76h-188z" />
    <glyph glyph-name="six.tf" 
d="M342 548q-64 0 -95.5 -38t-38.5 -108q60 48 136 48q108 0 165 -56.5t57 -158.5q0 -112 -68.5 -178.5t-177.5 -66.5q-136 0 -210 95t-74 256q0 160 74.5 254.5t211.5 94.5q64 0 123 -15.5t92 -32.5l-44 -137q-74 43 -151 43zM313 320q-50 0 -104 -46q17 -131 104 -131
q40 0 63 26.5t23 65.5q0 85 -86 85z" />
    <glyph glyph-name="seven.tf" 
d="M112 15l262 519h-328v146h515v-116l-264 -564h-185v15z" />
    <glyph glyph-name="eight.tf" 
d="M300 -10q-132 0 -199 52.5t-67 144.5q0 140 118 168q-46 12 -72 52t-26 92q0 191 246 191q245 0 245 -191q0 -52 -25 -92t-71 -52q61 -15 89 -56t28 -112q0 -92 -67 -144.5t-199 -52.5zM301 286q-48 0 -72.5 -21.5t-24.5 -55.5q0 -36 25.5 -58.5t70.5 -22.5t70.5 22.5
t25.5 58.5q0 34 -24 55.5t-71 21.5zM300 555q-79 0 -79 -68q0 -31 19.5 -50t60.5 -19q39 0 58 19t19 50q0 68 -78 68z" />
    <glyph glyph-name="nine.tf" 
d="M257 132q64 0 95.5 37.5t39.5 108.5q-60 -48 -138 -48q-108 0 -164.5 56t-56.5 159q0 112 68.5 178.5t177.5 66.5q136 0 210 -95t74 -256q0 -159 -74.5 -254t-210.5 -95q-65 0 -124 15.5t-92 32.5l43 137q76 -43 152 -43zM288 360q50 0 102 46q-19 131 -104 131
q-38 0 -62 -26.5t-24 -65.5q0 -42 23.5 -63.5t64.5 -21.5z" />
    <glyph glyph-name="Euro.tf" 
d="M568 605l-59 -125q-54 57 -124 57q-95 0 -122 -107h223l-35 -76h-197v-15q0 -21 1 -30h177l-31 -76h-134q27 -90 113 -90q68 0 131 48l61 -138q-88 -63 -205 -63q-110 0 -182 63t-94 180h-55v76h47q-1 10 -1 30v15h-46v76h52q20 125 93.5 192.5t188.5 67.5q113 0 198 -85
z" />
    <glyph glyph-name="cent.tf" 
d="M42 262q0 120 78 197.5t208 77.5q13 0 37 -2l31 111l75 -20l-30 -109q46 -16 91 -52l-76 -124q-26 21 -55 32l-66 -235h3q65 0 118 44l76 -124q-84 -72 -204 -72q-12 0 -34 2l-35 -126l-74 20l33 121q-83 29 -129.5 98t-46.5 161zM214 262q0 -69 47 -102l62 223
q-52 -4 -80.5 -37t-28.5 -84z" />
    <glyph glyph-name="sterling.tf" 
d="M465 307h-161q11 -94 7 -144q3 -2 13.5 -8.5t16 -10t15 -8.5t17.5 -7t15 -2q34 0 46 25.5t9 79.5h127q12 -110 -24 -176t-124 -66q-26 0 -55 13t-42 22.5t-49 37.5q-26 -38 -57.5 -55.5t-83.5 -17.5q-53 0 -83 32.5t-30 82.5q0 47 30 76.5t76 29.5q21 0 44 -7
q0 33 -19 103h-94v77h73q-13 61 -13 108q0 88 55.5 143t164.5 55q59 0 120.5 -22t92.5 -47l-47 -145q-21 18 -34.5 28t-41.5 21.5t-56 11.5q-43 0 -64.5 -23.5t-21.5 -63.5q0 -26 5 -66h173v-77zM139 122q-15 0 -24 -8t-9 -20q0 -25 23 -25q29 0 36 45q-10 8 -26 8z" />
    <glyph glyph-name="florin.tf" 
d="M505 307h-121v-322q0 -78 -44.5 -130.5t-128.5 -52.5q-31 0 -72.5 8t-64.5 18l24 132q38 -21 69 -21q49 0 49 48v320h-118v77h118v154q0 78 44.5 130t128.5 52q72 0 137 -26l-23 -134q-41 23 -70 23q-49 0 -49 -51v-148h121v-77z" />
    <glyph glyph-name="yen.tf" 
d="M522 115h-140v-115h-168v115h-141v76h141v54h-141v77h112l-163 346v12h172l104 -285l110 285h173v-12l-170 -346h111v-77h-140v-54h140v-76z" />
    <glyph glyph-name="dollar.tf" 
d="M264 -129v120q-64 3 -125.5 20.5t-97.5 37.5l40 152q83 -57 183 -66v137l-76 21q-157 43 -157 184q0 84 60.5 142t172.5 68v82h72v-81q129 -6 219 -53l-48 -149q-75 48 -171 57v-130l48 -14q94 -28 138 -73t44 -115q0 -89 -62 -148t-168 -70v-122h-72zM202 489
q0 -22 14 -33.5t47 -20.5l1 -1v108q-62 -10 -62 -53zM394 199q0 34 -58 53v-113q58 15 58 60z" />
    <glyph glyph-name="zero.denom" horiz-adv-x="377" 
d="M34 173q0 84 39.5 131.5t114.5 47.5t115 -47.5t40 -131.5t-40 -131t-115 -47t-114.5 47t-39.5 131zM122 173q0 -94 66 -94t66 94q0 95 -66 95t-66 -95z" />
    <glyph glyph-name="one.denom" horiz-adv-x="281" 
d="M10 259l152 87h66v-346h-92v242l-90 -51z" />
    <glyph glyph-name="two.denom" horiz-adv-x="349" 
d="M41 0v68l128 96q43 31 43 65q0 17 -11.5 28t-31.5 11q-56 0 -56 -60l-83 16q2 59 38.5 93.5t101.5 34.5q67 0 101.5 -32.5t34.5 -87.5q0 -65 -74 -116l-53 -36h135v-80h-273z" />
    <glyph glyph-name="three.denom" horiz-adv-x="336" 
d="M74 213h76q48 0 48 31q0 30 -52 30q-45 0 -97 -19l-20 77q55 20 117 20q145 0 145 -99q0 -25 -16.5 -45t-44.5 -27q72 -18 72 -86q0 -47 -39.5 -73.5t-116.5 -26.5q-53 0 -116 20l23 75q44 -18 93 -18q29 0 45.5 10.5t16.5 27.5q0 30 -58 30h-76v73z" />
    <glyph glyph-name="four.denom" horiz-adv-x="371" 
d="M346 59h-54v-59h-92v59h-180v59l150 228h122v-220h54v-67zM111 126h89v137z" />
    <glyph glyph-name="five.denom" horiz-adv-x="333" 
d="M49 148l-4 4l16 194h227v-79h-150l-4 -52h19q146 0 146 -100q0 -59 -40 -89.5t-112 -30.5q-64 0 -121 22l22 74q45 -19 93 -19q29 0 47 10.5t18 30.5q0 35 -58 35h-99z" />
    <glyph glyph-name="six.denom" horiz-adv-x="364" 
d="M206 274q-72 0 -80 -75q36 28 81 28q62 0 94.5 -28t32.5 -80q0 -56 -39 -90t-101 -34q-77 0 -119 48.5t-42 130.5q0 81 42.5 129.5t119.5 48.5q63 0 123 -24l-24 -75q-44 21 -88 21zM193 160q-33 0 -65 -21q10 -61 66 -61q23 0 36 12t13 29q0 41 -50 41z" />
    <glyph glyph-name="seven.denom" horiz-adv-x="306" 
d="M55 8l131 259h-162v79h264v-62l-133 -284h-100v8z" />
    <glyph glyph-name="eight.denom" horiz-adv-x="370" 
d="M185 -5q-75 0 -113.5 27t-38.5 73q0 69 73 86q-28 7 -44.5 27t-16.5 45q0 99 140 99q139 0 139 -99q0 -25 -16.5 -45t-44.5 -27q73 -16 73 -86q0 -46 -38.5 -73t-112.5 -27zM185 149q-30 0 -44.5 -11t-14.5 -28q0 -18 16 -30.5t43 -12.5t43 12.5t16 30.5q0 16 -15 27.5
t-44 11.5zM185 280q-23 0 -36 -9.5t-13 -25.5q0 -36 49 -36t49 36q0 35 -49 35z" />
    <glyph glyph-name="nine.denom" horiz-adv-x="364" 
d="M158 72q71 0 79 74q-33 -27 -80 -27q-62 0 -94 28t-32 79q0 57 39 91.5t100 34.5q77 0 119 -48.5t42 -130.5t-42.5 -130t-119.5 -48q-65 0 -122 24l24 74q42 -21 87 -21zM170 187q33 0 66 20q-12 61 -66 61q-22 0 -35 -12t-13 -30q0 -39 48 -39z" />
    <glyph glyph-name="zero.num" horiz-adv-x="377" 
d="M34 506q0 84 39.5 131.5t114.5 47.5t115 -47t40 -132q0 -83 -40 -130.5t-115 -47.5t-114.5 47.5t-39.5 130.5zM122 506q0 -94 66 -94t66 94q0 96 -66 96t-66 -96z" />
    <glyph glyph-name="one.num" horiz-adv-x="281" 
d="M10 594l151 86h66v-346h-91v243l-91 -51z" />
    <glyph glyph-name="two.num" horiz-adv-x="349" 
d="M42 333v68l128 96q43 32 43 65q0 17 -11.5 28.5t-31.5 11.5q-28 0 -42.5 -16.5t-14.5 -43.5l-83 15q2 60 39 94t102 34q67 0 101.5 -32.5t34.5 -86.5q0 -66 -74 -116l-53 -37h135v-80h-273z" />
    <glyph glyph-name="three.num" horiz-adv-x="336" 
d="M74 546h76q48 0 48 31q0 30 -52 30q-50 0 -97 -19l-20 78q52 19 117 19q145 0 145 -99q0 -25 -16.5 -45t-44.5 -27q72 -18 72 -85q0 -47 -39.5 -74t-116.5 -27q-53 0 -116 20l23 76q46 -19 93 -19q29 0 45.5 10.5t16.5 27.5q0 31 -58 31h-76v72z" />
    <glyph glyph-name="four.num" horiz-adv-x="371" 
d="M346 393h-54v-59h-92v59h-180v59l150 228h122v-219h54v-68zM111 461h89v136z" />
    <glyph glyph-name="five.num" horiz-adv-x="333" 
d="M49 482l-4 4l16 194h227v-79h-150l-4 -52h20q145 0 145 -99q0 -60 -40 -90.5t-112 -30.5q-61 0 -121 22l23 75q45 -20 92 -20q65 0 65 42q0 34 -58 34h-99z" />
    <glyph glyph-name="six.num" horiz-adv-x="365" 
d="M206 608q-72 0 -80 -76q36 28 82 28q62 0 94 -28t32 -79q0 -57 -38.5 -91t-100.5 -34q-77 0 -119 48.5t-42 130.5t42 130t120 48q65 0 122 -24l-24 -74q-47 21 -88 21zM193 493q-33 0 -65 -21q12 -60 67 -60q22 0 35.5 12t13.5 29q0 40 -51 40z" />
    <glyph glyph-name="seven.num" horiz-adv-x="307" 
d="M55 343l131 258h-162v79h264v-62l-133 -284h-100v9z" />
    <glyph glyph-name="eight.num" horiz-adv-x="371" 
d="M185 328q-74 0 -112.5 27.5t-38.5 73.5q0 69 73 85q-28 7 -44.5 27t-16.5 45q0 99 139 99q140 0 140 -99q0 -25 -16.5 -45t-44.5 -27q73 -17 73 -85q0 -46 -39 -73.5t-113 -27.5zM185 482q-29 0 -44 -11t-15 -28q0 -18 16 -30t43 -12q28 0 43.5 12t15.5 30q0 39 -59 39z
M185 613q-23 0 -36 -9.5t-13 -25.5q0 -15 12.5 -25.5t36.5 -10.5q49 0 49 36q0 35 -49 35z" />
    <glyph glyph-name="nine.num" horiz-adv-x="365" 
d="M158 405q71 0 79 74q-33 -27 -80 -27q-62 0 -94 28t-32 79q0 57 39 91.5t100 34.5q77 0 119 -48.5t42 -130.5q0 -81 -42.5 -129.5t-119.5 -48.5q-65 0 -122 24l24 75q40 -22 87 -22zM170 520q33 0 66 20q-12 62 -66 62q-22 0 -35 -12.5t-13 -30.5q0 -39 48 -39z" />
    <glyph glyph-name="parenleft.case" horiz-adv-x="330" 
d="M299 744q-46 -71 -78.5 -175t-32.5 -228q0 -122 32.5 -226t78.5 -176l-93 -52q-60 55 -112.5 177.5t-52.5 277.5t52.5 277t112.5 177z" />
    <glyph glyph-name="parenright.case" horiz-adv-x="330" 
d="M30 744l94 52q60 -55 112.5 -177t52.5 -277t-52.5 -277.5t-112.5 -177.5l-94 52q46 71 79 175.5t33 226.5q0 124 -33 228.5t-79 174.5z" />
    <glyph glyph-name="hyphen.case" horiz-adv-x="540" 
d="M64 408h412v-131h-412v131z" />
    <glyph glyph-name="bracketleft.case" horiz-adv-x="365" 
d="M326 -108h-250v898h250v-131h-119v-636h119v-131z" />
    <glyph glyph-name="bracketright.case" horiz-adv-x="364" 
d="M39 790h249v-898h-249v131h118v636h-118v131z" />
    <glyph glyph-name="braceleft.case" horiz-adv-x="362" 
d="M317 790v-116h-40q-27 0 -41 -15t-14 -36q0 -23 24 -88.5t24 -101.5q0 -79 -87 -95q87 -16 87 -96q0 -36 -24 -101t-24 -89q0 -21 14 -36t41 -15h40v-116h-57q-169 0 -169 134q0 37 24 105.5t24 104.5q0 33 -25 47t-83 14v97q57 0 82.5 17t25.5 53q0 34 -24 101t-24 105
q0 127 169 127h57z" />
    <glyph glyph-name="bar.case" horiz-adv-x="283" 
d="M76 -108v898h131v-898h-131z" />
    <glyph glyph-name="braceright.case" horiz-adv-x="362" 
d="M45 790h57q169 0 169 -127q0 -38 -24 -105t-24 -101q0 -36 25.5 -53t81.5 -17v-97q-58 0 -82.5 -14t-24.5 -47q0 -36 24 -104.5t24 -105.5q0 -134 -169 -134h-57v116h41q27 0 40.5 14.5t13.5 36.5q0 24 -24 89t-24 101q0 80 88 96q-88 16 -88 95q0 36 24 101.5t24 88.5
q0 22 -13.5 36.5t-40.5 14.5h-41v116z" />
    <glyph glyph-name="guilsinglleft.case" horiz-adv-x="326" 
d="M41 326v31l164 207h11l61 -29l-96 -193l96 -193l-61 -30h-11z" />
    <glyph glyph-name="guilsinglright.case" horiz-adv-x="326" 
d="M284 357v-31l-162 -207h-13l-60 29l96 194l-97 192l61 30h13z" />
    <glyph glyph-name="guillemotleft.case" horiz-adv-x="569" 
d="M41 326v31l164 207h11l61 -29l-96 -193l96 -193l-61 -30h-11zM285 326v31l163 207h12l61 -29l-97 -193l97 -193l-61 -30h-12z" />
    <glyph glyph-name="guillemotright.case" horiz-adv-x="569" 
d="M284 357v-31l-162 -207h-13l-60 29l96 194l-97 192l61 30h13zM528 357v-31l-163 -207h-12l-61 29l96 194l-96 192l61 30h12z" />
    <glyph glyph-name="endash.case" horiz-adv-x="637" 
d="M64 408h509v-131h-509v131z" />
    <glyph glyph-name="emdash.case" horiz-adv-x="892" 
d="M64 408h763v-131h-763v131z" />
    <glyph glyph-name="bullet.case" horiz-adv-x="427" 
d="M77 342q0 65 35.5 101.5t99.5 36.5q65 0 101.5 -36.5t36.5 -101.5q0 -66 -36.5 -102t-101.5 -36q-64 0 -99.5 36t-35.5 102z" />
    <glyph glyph-name="periodcentered.case" horiz-adv-x="310" 
d="M55 334q0 46 26 71.5t73 25.5t73.5 -25.5t26.5 -71.5t-26.5 -70.5t-73.5 -24.5t-73 24.5t-26 70.5z" />
    <glyph glyph-name="a.alt" horiz-adv-x="675" 
d="M43 262q0 119 67 194.5t174 75.5q88 0 149 -59v50h168v-523h-168v52q-57 -62 -149 -62q-107 0 -174 76.5t-67 195.5zM214 262q0 -58 32.5 -92t86.5 -34q58 0 100 38v173q-42 39 -100 39q-54 0 -86.5 -33.5t-32.5 -90.5z" />
    <glyph glyph-name="agrave.alt" horiz-adv-x="675" 
d="M43 262q0 119 67 194.5t174 75.5q88 0 149 -59v50h168v-523h-168v52q-57 -62 -149 -62q-107 0 -174 76.5t-67 195.5zM214 262q0 -58 32.5 -92t86.5 -34q58 0 100 38v173q-42 39 -100 39q-54 0 -86.5 -33.5t-32.5 -90.5zM293 583l-107 158h165l81 -158h-139z" />
    <glyph glyph-name="aacute.alt" horiz-adv-x="675" 
d="M43 262q0 119 67 194.5t174 75.5q88 0 149 -59v50h168v-523h-168v52q-57 -62 -149 -62q-107 0 -174 76.5t-67 195.5zM214 262q0 -58 32.5 -92t86.5 -34q58 0 100 38v173q-42 39 -100 39q-54 0 -86.5 -33.5t-32.5 -90.5zM517 741l-107 -158h-139l81 158h165z" />
    <glyph glyph-name="acircumflex.alt" horiz-adv-x="675" 
d="M43 262q0 119 67 194.5t174 75.5q88 0 149 -59v50h168v-523h-168v52q-57 -62 -149 -62q-107 0 -174 76.5t-67 195.5zM214 262q0 -58 32.5 -92t86.5 -34q58 0 100 38v173q-42 39 -100 39q-54 0 -86.5 -33.5t-32.5 -90.5zM407 583l-59 78l-59 -78h-124l102 158h162
l101 -158h-123z" />
    <glyph glyph-name="atilde.alt" horiz-adv-x="675" 
d="M43 262q0 119 67 194.5t174 75.5q88 0 149 -59v50h168v-523h-168v52q-57 -62 -149 -62q-107 0 -174 76.5t-67 195.5zM214 262q0 -58 32.5 -92t86.5 -34q58 0 100 38v173q-42 39 -100 39q-54 0 -86.5 -33.5t-32.5 -90.5zM207 594l-46 56q17 39 48.5 64.5t67.5 25.5
q39 0 87.5 -29t68.5 -29q44 0 68 44l48 -55q-46 -90 -117 -90q-36 0 -86 28.5t-68 28.5q-42 0 -71 -44z" />
    <glyph glyph-name="adieresis.alt" horiz-adv-x="675" 
d="M43 262q0 119 67 194.5t174 75.5q88 0 149 -59v50h168v-523h-168v52q-57 -62 -149 -62q-107 0 -174 76.5t-67 195.5zM214 262q0 -58 32.5 -92t86.5 -34q58 0 100 38v173q-42 39 -100 39q-54 0 -86.5 -33.5t-32.5 -90.5zM137 665q0 73 88 73q86 0 86 -73q0 -74 -86 -74
q-88 0 -88 74zM395 665q0 73 88 73q86 0 86 -73q0 -74 -86 -74q-88 0 -88 74z" />
    <glyph glyph-name="amacron.alt" horiz-adv-x="675" 
d="M43 262q0 119 67 194.5t174 75.5q88 0 149 -59v50h168v-523h-168v52q-57 -62 -149 -62q-107 0 -174 76.5t-67 195.5zM214 262q0 -58 32.5 -92t86.5 -34q58 0 100 38v173q-42 39 -100 39q-54 0 -86.5 -33.5t-32.5 -90.5zM482 605h-261v104h261v-104z" />
    <glyph glyph-name="abreve.alt" horiz-adv-x="675" 
d="M43 262q0 119 67 194.5t174 75.5q88 0 149 -59v50h168v-523h-168v52q-57 -62 -149 -62q-107 0 -174 76.5t-67 195.5zM214 262q0 -58 32.5 -92t86.5 -34q58 0 100 38v173q-42 39 -100 39q-54 0 -86.5 -33.5t-32.5 -90.5zM198 672l40 60q40 -46 113 -46t113 46l40 -60
q-48 -86 -152 -86t-154 86z" />
    <glyph glyph-name="aring.alt" horiz-adv-x="675" 
d="M43 262q0 119 67 194.5t174 75.5q88 0 149 -59v50h168v-523h-168v52q-57 -62 -149 -62q-107 0 -174 76.5t-67 195.5zM214 262q0 -58 32.5 -92t86.5 -34q58 0 100 38v173q-42 39 -100 39q-54 0 -86.5 -33.5t-32.5 -90.5zM254 670q0 40 29 69t69 29t69 -29t29 -69t-29 -69
t-69 -29t-69 29t-29 69zM314 670q0 -16 11 -27t27 -11t26.5 11t10.5 27t-10.5 26.5t-26.5 10.5t-27 -10.5t-11 -26.5z" />
    <glyph glyph-name="aringacute.alt" horiz-adv-x="675" 
d="M463 842l-72 -87h-101l54 87h119zM244 653q0 39 28 62t70 23t70 -23t28 -62t-28 -62.5t-70 -23.5t-70 23.5t-28 62.5zM304 653q0 -29 38 -29q37 0 37 29q0 27 -37 27q-38 0 -38 -27zM43 262q0 119 67 194.5t174 75.5q88 0 149 -59v50h168v-523h-168v52q-57 -62 -149 -62
q-107 0 -174 76.5t-67 195.5zM214 262q0 -58 32.5 -92t86.5 -34q58 0 100 38v173q-42 39 -100 39q-54 0 -86.5 -33.5t-32.5 -90.5z" />
    <glyph glyph-name="aogonek.alt" horiz-adv-x="675" 
d="M43 262q0 119 67 194.5t174 75.5q88 0 149 -59v50h168v-523h-31q-35 0 -56.5 -19t-21.5 -47q0 -22 12.5 -35t35.5 -13q26 0 53 19l16 -70q-39 -25 -91 -25q-48 0 -75.5 28t-27.5 73q0 60 55 89h-37v52q-57 -62 -149 -62q-107 0 -174 76.5t-67 195.5zM214 262
q0 -58 32.5 -92t86.5 -34q58 0 100 38v173q-42 39 -100 39q-54 0 -86.5 -33.5t-32.5 -90.5z" />
    <glyph glyph-name="g.alt" horiz-adv-x="662" 
d="M44 284q0 110 61.5 179t168.5 69q91 0 144 -55v46h168v-429q0 -75 -24 -133.5t-64 -92t-86 -50t-96 -16.5q-81 0 -127 36.5t-46 98.5q0 40 24 71.5t65 45.5q-84 14 -136 74t-52 156zM215 284q0 -50 32 -75.5t80 -25.5h91v166q-43 37 -94 37q-50 0 -79.5 -28t-29.5 -74z
M324 -72q39 0 66.5 30t27.5 74v12h-19q-56 0 -89 -20t-33 -50q0 -22 13 -34t34 -12z" />
    <glyph glyph-name="y.alt" horiz-adv-x="615" 
d="M32 -61q0 58 43 101.5t122 51.5l-171 431h183l111 -343l114 343h168l-186 -508q-44 -122 -94.5 -167.5t-135.5 -45.5q-70 0 -112 36t-42 101zM182 -72q27 0 40 17.5t24 56.5l4 14q-107 0 -107 -52q0 -17 11 -26.5t28 -9.5z" />
    <glyph glyph-name="gcircumflex.alt" horiz-adv-x="656" 
d="M44 284q0 110 61.5 179t168.5 69q91 0 144 -55v46h168v-429q0 -75 -24 -133.5t-64 -92t-86 -50t-96 -16.5q-81 0 -127 36.5t-46 98.5q0 40 24 71.5t65 45.5q-84 14 -136 74t-52 156zM215 284q0 -50 32 -75.5t80 -25.5h91v166q-43 37 -94 37q-50 0 -79.5 -28t-29.5 -74z
M324 -72q39 0 66.5 30t27.5 74v12h-19q-56 0 -89 -20t-33 -50q0 -22 13 -34t34 -12zM403 583l-59 78l-59 -78h-124l102 158h162l101 -158h-123z" />
    <glyph glyph-name="gbreve.alt" horiz-adv-x="656" 
d="M189 672l40 60q40 -46 113 -46t113 46l40 -60q-48 -86 -152 -86t-154 86zM44 284q0 110 61.5 179t168.5 69q91 0 144 -55v46h168v-429q0 -75 -24 -133.5t-64 -92t-86 -50t-96 -16.5q-81 0 -127 36.5t-46 98.5q0 40 24 71.5t65 45.5q-84 14 -136 74t-52 156zM215 284
q0 -50 32 -75.5t80 -25.5h91v166q-43 37 -94 37q-50 0 -79.5 -28t-29.5 -74zM324 -72q39 0 66.5 30t27.5 74v12h-19q-56 0 -89 -20t-33 -50q0 -22 13 -34t34 -12z" />
    <glyph glyph-name="gdotaccent.alt" horiz-adv-x="656" 
d="M44 284q0 110 61.5 179t168.5 69q91 0 144 -55v46h168v-429q0 -75 -24 -133.5t-64 -92t-86 -50t-96 -16.5q-81 0 -127 36.5t-46 98.5q0 40 24 71.5t65 45.5q-84 14 -136 74t-52 156zM215 284q0 -50 32 -75.5t80 -25.5h91v166q-43 37 -94 37q-50 0 -79.5 -28t-29.5 -74z
M324 -72q39 0 66.5 30t27.5 74v12h-19q-56 0 -89 -20t-33 -50q0 -22 13 -34t34 -12zM257 667q0 77 94 77q92 0 92 -77q0 -79 -92 -79q-94 0 -94 79z" />
    <glyph glyph-name="gcommaaccent.alt" horiz-adv-x="656" 
d="M44 284q0 110 61.5 179t168.5 69q91 0 144 -55v46h168v-429q0 -75 -24 -133.5t-64 -92t-86 -50t-96 -16.5q-81 0 -127 36.5t-46 98.5q0 40 24 71.5t65 45.5q-84 14 -136 74t-52 156zM215 284q0 -50 32 -75.5t80 -25.5h91v166q-43 37 -94 37q-50 0 -79.5 -28t-29.5 -74z
M324 -72q39 0 66.5 30t27.5 74v12h-19q-56 0 -89 -20t-33 -50q0 -22 13 -34t34 -12zM392 784l-24 -64q60 -12 60 -70q0 -35 -23 -55t-59 -20q-97 0 -97 89q0 67 65 148z" />
    <glyph glyph-name="yacute.alt" horiz-adv-x="616" 
d="M493 741l-107 -158h-139l81 158h165zM32 -61q0 58 43 101.5t122 51.5l-171 431h183l111 -343l114 343h168l-186 -508q-44 -122 -94.5 -167.5t-135.5 -45.5q-70 0 -112 36t-42 101zM182 -72q27 0 40 17.5t24 56.5l4 14q-107 0 -107 -52q0 -17 11 -26.5t28 -9.5z" />
    <glyph glyph-name="ycircumflex.alt" horiz-adv-x="616" 
d="M32 -61q0 58 43 101.5t122 51.5l-171 431h183l111 -343l114 343h168l-186 -508q-44 -122 -94.5 -167.5t-135.5 -45.5q-70 0 -112 36t-42 101zM182 -72q27 0 40 17.5t24 56.5l4 14q-107 0 -107 -52q0 -17 11 -26.5t28 -9.5zM377 583l-59 78l-59 -78h-124l102 158h162
l101 -158h-123z" />
    <glyph glyph-name="ydieresis.alt" horiz-adv-x="616" 
d="M32 -61q0 58 43 101.5t122 51.5l-171 431h183l111 -343l114 343h168l-186 -508q-44 -122 -94.5 -167.5t-135.5 -45.5q-70 0 -112 36t-42 101zM182 -72q27 0 40 17.5t24 56.5l4 14q-107 0 -107 -52q0 -17 11 -26.5t28 -9.5zM110 665q0 73 88 73q86 0 86 -73q0 -74 -86 -74
q-88 0 -88 74zM368 665q0 73 88 73q86 0 86 -73q0 -74 -86 -74q-88 0 -88 74z" />
    <glyph glyph-name="ygrave.alt" horiz-adv-x="616" 
d="M261 583l-107 158h165l81 -158h-139zM32 -61q0 58 43 101.5t122 51.5l-171 431h183l111 -343l114 343h168l-186 -508q-44 -122 -94.5 -167.5t-135.5 -45.5q-70 0 -112 36t-42 101zM182 -72q27 0 40 17.5t24 56.5l4 14q-107 0 -107 -52q0 -17 11 -26.5t28 -9.5z" />
    </font>
</defs>
</svg>
